SplineFontDB: 1.0
FontName: Vytis-Italic
FullName: Vytis Italic
FamilyName: Vytis
Weight: Book
Copyright: Copyleft Atviras kodas Lietuvai (AKL), 2005
Version: 1.002 2005
ItalicAngle: -16
UnderlinePosition: -223
UnderlineWidth: 100
Ascent: 1638
Descent: 410
Order2: 1
XUID: [1021 703 207864929 7428176]
FSType: 0
PfmFamily: 17
TTFWeight: 400
TTFWidth: 5
Panose: 2 2 5 3 5 4 5 9 3 4
LineGap: 87
VLineGap: 0
OS2TypoAscent: 1422
OS2TypoDescent: -442
OS2TypoLinegap: 0
OS2WinAscent: -233
OS2WinAOffset: 1
OS2WinDescent: -185
OS2WinDOffset: 1
HheadAscent: -233
HheadAOffset: 1
HheadDescent: 185
HheadDOffset: 1
OS2SubXSize: 1434
OS2SubYSize: 1331
OS2SubXOff: 44
OS2SubYOff: 293
OS2SupXSize: 1434
OS2SupYSize: 1331
OS2SupXOff: 76
OS2SupYOff: 928
OS2StrikeYSize: 102
OS2StrikeYPos: 530
OS2FamilyClass: 261
OS2Vendor: 'euge'
ScriptLang: 4
 1 latn 1 dflt 
 1 cyrl 1 dflt 
 1 grek 1 dflt 
 1 DFLT 1 dflt 
TtfTable: prep 1297
\,^M!\,^.l\,]eb\,]GX5l(K]!!.TNO9#H/!Pe`b!<WW7!?(t?#6>kH7KEJq!<W<75t-#A5X]i?
hr#7d*7WLS(E@dL()qUJ))ch2HW5=o5gg#Q3=jQ2d/q_D()Iqpd2(,?d<*cgd04];()Is-E#'60
#nUnR#Ae;o(E=!&+D``J"#+OVC]Z;,5\s85^Ma5]"De)DCMjn,?Y]\GDSL&jCMn]D)F/EY)*)e]
'GVU#C(qC&!+nK.:hK3/"D2?^'c^gtG%RCZY\"#LBG;C]ARB!M)e^a84(sO`Rq2b7BSURGAnV2_
Eu#&fErcPm6Q%%m6Q%$KT;)E*UFN$!UI_-_\GtJP%AOFH3>S>9U,J`6U'/"+^d&a2&/%!s6REtL
6REtLT`Qa6TsgWrOKJVos1gl.X:Gq(X?m@<X/Z7P\Gs?0/ufEp3GGJol^&8,5e\Ki3C'e[&im2"
"=m9d!V2X$+"HCq,<779',Wa"MutT?s1gl2XUPn'Uo+_RPE>qtP*#bq\Gs?0-]o]%3TPkr/#K3H
.mU!f6TJbE!C2o$1-(Hg!>"c&naHN/n:^oo\Gt,F+3k0$3R,bJ/'NkP/':0f+3DS(/'*DG/(!V`
m"H)p\Gs@Nl:+9(\Gs?0+6kO=3RI$llKKH6n*'l;K`WdNkQ*r`,UGH9]d+ma\Gs@NYne<>\Gs?0
/?]j03Nn,;.u]Gi.uTDp.uK;n.uB5g.uoSk.uf5c.t<*O.t3$O.t)sO/%GVp5gP$--94>B00VCI
LBK,^LBK,]LC,PaLBK+mLH@RX5_g^>3I-C:LB=H1!?3s4(cE*D2&-`\'b<)8$o/P(0bjmH'a$*(
!%o!5-OqOP%k9(>/1V5T,7YtD%iuf&+<M+)&.o<W$4@7H#7(_?"9f26!<NZ6"(WK=!"KK!5QDE1
3<0-f/'nA!%hA[O!tPoL%g*+K%j(lT#9+X'%2]<g%2BEj%2&dX%4jUk4=E<=4=!$54<Qa-4<$C"
4;Bsk4:aO\49dnM49.K?1BF]m9)qUa6Eh+(9)qU`6Ei6r9=P'H;Qqo,9<\Xt>?J-2!KL<e1Fo[2

StartChar: .notdef
Encoding: 65536 -1 0
Width: 1593
Flags: W
Fore
256 0 m 1,0,-1
 256 1536 l 1,1,-1
 1309 1536 l 1,2,-1
 1309 0 l 1,3,-1
 256 0 l 1,0,-1
384 128 m 1,4,-1
 1181 128 l 1,5,-1
 1181 1408 l 1,6,-1
 384 1408 l 1,7,-1
 384 128 l 1,4,-1
EndSplineSet
EndChar
StartChar: exclam
Encoding: 33 33 4
Width: 682
Flags: W
Fore
279 330 m 1,0,1
 400 925 400 925 432.5 1155.5 c 128,-1,2
 465 1386 465 1386 582 1386 c 0,3,4
 619 1386 619 1386 640.5 1361.5 c 128,-1,5
 662 1337 662 1337 662 1303 c 0,6,7
 662 1223 662 1223 554 934 c 2,8,-1
 330 330 l 1,9,-1
 279 330 l 1,0,1
254 190 m 0,10,11
 300 190 300 190 332.5 158 c 128,-1,12
 365 126 365 126 365 80 c 0,13,14
 365 34 365 34 332.5 1.5 c 128,-1,15
 300 -31 300 -31 254 -31 c 0,16,17
 208 -31 208 -31 175.5 1.5 c 128,-1,18
 143 34 143 34 143 80 c 0,19,20
 143 126 143 126 175.5 158 c 128,-1,21
 208 190 208 190 254 190 c 0,10,11
EndSplineSet
EndChar
StartChar: quotedbl
Encoding: 34 34 5
Width: 860
Flags: W
Fore
655 803 m 1,0,-1
 685 1096 l 2,1,2
 698 1216 698 1216 710 1265 c 128,-1,3
 722 1314 722 1314 755 1350 c 128,-1,4
 788 1386 788 1386 848 1386 c 0,5,6
 920 1386 920 1386 920 1319 c 0,7,8
 920 1279 920 1279 860 1135 c 128,-1,9
 800 991 800 991 702 803 c 1,10,-1
 655 803 l 1,0,-1
287 803 m 1,11,-1
 317 1096 l 2,12,13
 329 1216 329 1216 341 1265 c 128,-1,14
 353 1314 353 1314 386 1350 c 128,-1,15
 419 1386 419 1386 479 1386 c 0,16,17
 551 1386 551 1386 551 1319 c 0,18,19
 551 1279 551 1279 491 1135 c 128,-1,20
 431 991 431 991 334 803 c 1,21,-1
 287 803 l 1,11,-1
EndSplineSet
EndChar
StartChar: numbersign
Encoding: 35 35 6
Width: 1024
Flags: W
Fore
1040 428 m 1,0,-1
 750 428 l 1,1,-1
 655 -31 l 1,2,-1
 571 -31 l 1,3,-1
 666 428 l 1,4,-1
 362 428 l 1,5,-1
 268 -31 l 1,6,-1
 184 -31 l 1,7,-1
 279 428 l 1,8,-1
 90 428 l 1,9,-1
 90 510 l 1,10,-1
 295 510 l 1,11,-1
 365 846 l 1,12,-1
 90 846 l 1,13,-1
 90 928 l 1,14,-1
 381 928 l 1,15,-1
 475 1386 l 1,16,-1
 559 1386 l 1,17,-1
 465 928 l 1,18,-1
 768 928 l 1,19,-1
 862 1386 l 1,20,-1
 946 1386 l 1,21,-1
 852 928 l 1,22,-1
 1040 928 l 1,23,-1
 1040 846 l 1,24,-1
 836 846 l 1,25,-1
 766 510 l 1,26,-1
 1040 510 l 1,27,-1
 1040 428 l 1,0,-1
752 846 m 1,28,-1
 449 846 l 1,29,-1
 379 510 l 1,30,-1
 682 510 l 1,31,-1
 752 846 l 1,28,-1
EndSplineSet
EndChar
StartChar: dollar
Encoding: 36 36 7
Width: 1024
Flags: W
Fore
1067 1386 m 1,0,-1
 973 983 l 1,1,-1
 926 983 l 1,2,3
 934 1042 934 1042 934 1073 c 0,4,5
 934 1149 934 1149 894 1210 c 128,-1,6
 854 1271 854 1271 780 1298 c 1,7,-1
 639 807 l 1,8,9
 823 639 823 639 871.5 549 c 128,-1,10
 920 459 920 459 920 375 c 0,11,12
 920 197 920 197 794 83 c 128,-1,13
 668 -31 668 -31 483 -31 c 0,14,15
 436 -31 436 -31 399 -25 c 1,16,-1
 362 -156 l 1,17,-1
 289 -156 l 1,18,-1
 330 -10 l 1,19,20
 311 -5 311 -5 278 8 c 0,21,22
 215 31 215 31 178 31 c 0,23,24
 122 31 122 31 100 -31 c 1,25,-1
 53 -31 l 1,26,-1
 150 399 l 1,27,-1
 197 399 l 1,28,29
 186 335 186 335 186 283 c 0,30,31
 186 205 186 205 228.5 145 c 128,-1,32
 271 85 271 85 350 59 c 1,33,-1
 520 647 l 1,34,35
 378 786 378 786 328.5 874 c 128,-1,36
 279 962 279 962 279 1049 c 0,37,38
 279 1198 279 1198 393 1292 c 128,-1,39
 507 1386 507 1386 659 1386 c 0,40,41
 688 1386 688 1386 731 1382 c 1,42,-1
 756 1470 l 1,43,-1
 829 1470 l 1,44,-1
 801 1370 l 1,45,46
 829 1362 829 1362 869 1343 c 0,47,48
 909 1325 909 1325 928 1325 c 0,49,50
 992 1325 992 1325 1020 1386 c 1,51,-1
 1067 1386 l 1,0,-1
711 1313 m 1,52,53
 701 1315 701 1315 678 1315 c 0,54,55
 588 1315 588 1315 519.5 1255.5 c 128,-1,56
 451 1196 451 1196 451 1108 c 0,57,58
 451 997 451 997 582 864 c 1,59,-1
 711 1313 l 1,52,53
420 43 m 1,60,61
 435 41 435 41 471 41 c 0,62,63
 584 41 584 41 658.5 117.5 c 128,-1,64
 733 194 733 194 733 305 c 0,65,66
 733 430 733 430 578 590 c 1,67,-1
 420 43 l 1,60,61
EndSplineSet
EndChar
StartChar: percent
Encoding: 37 37 8
Width: 1706
Flags: W
Fore
1679 1386 m 1,0,-1
 262 -31 l 1,1,-1
 166 -31 l 1,2,-1
 1583 1386 l 1,3,-1
 1679 1386 l 1,0,-1
582 1386 m 0,4,5
 672 1386 672 1386 742.5 1309 c 128,-1,6
 813 1232 813 1232 813 1108 c 0,7,8
 813 930 813 930 691.5 792.5 c 128,-1,9
 570 655 570 655 436 655 c 0,10,11
 329 655 329 655 261 731 c 128,-1,12
 193 807 193 807 193 920 c 0,13,14
 193 1087 193 1087 310 1236.5 c 128,-1,15
 427 1386 427 1386 582 1386 c 0,4,5
420 711 m 0,16,17
 519 711 519 711 592.5 892 c 128,-1,18
 666 1073 666 1073 666 1210 c 0,19,20
 666 1331 666 1331 582 1331 c 0,21,22
 484 1331 484 1331 412 1149.5 c 128,-1,23
 340 968 340 968 340 819 c 0,24,25
 340 711 340 711 420 711 c 0,16,17
1403 700 m 0,26,27
 1493 700 1493 700 1563.5 623 c 128,-1,28
 1634 546 1634 546 1634 422 c 0,29,30
 1634 246 1634 246 1512 107.5 c 128,-1,31
 1390 -31 1390 -31 1257 -31 c 0,32,33
 1150 -31 1150 -31 1082 45 c 128,-1,34
 1014 121 1014 121 1014 233 c 0,35,36
 1014 401 1014 401 1131 550.5 c 128,-1,37
 1248 700 1248 700 1403 700 c 0,26,27
1241 25 m 0,38,39
 1341 25 1341 25 1414 206 c 128,-1,40
 1487 387 1487 387 1487 524 c 0,41,42
 1487 645 1487 645 1403 645 c 0,43,44
 1305 645 1305 645 1233 463.5 c 128,-1,45
 1161 282 1161 282 1161 133 c 0,46,47
 1161 25 1161 25 1241 25 c 0,38,39
EndSplineSet
EndChar
StartChar: ampersand
Encoding: 38 38 9
Width: 1593
Flags: W
Fore
1614 772 m 1,0,-1
 1599 725 l 1,1,2
 1508 725 1508 725 1432.5 675.5 c 128,-1,3
 1357 626 1357 626 1211 461 c 0,4,5
 1104 341 1104 341 1042 285 c 1,6,7
 1207 70 1207 70 1346 70 c 0,8,9
 1420 70 1420 70 1499 88 c 1,10,-1
 1487 47 l 1,11,12
 1336 -25 1336 -25 1180 -25 c 0,13,14
 1038 -25 1038 -25 899 166 c 1,15,16
 639 -31 639 -31 385 -31 c 0,17,18
 248 -31 248 -31 159 51 c 128,-1,19
 70 133 70 133 70 272 c 0,20,21
 70 565 70 565 578 743 c 1,22,23
 524 877 524 877 524 1012 c 0,24,25
 524 1169 524 1169 642.5 1277.5 c 128,-1,26
 761 1386 761 1386 950 1386 c 0,27,28
 1056 1386 1056 1386 1119 1333 c 128,-1,29
 1182 1280 1182 1280 1182 1200 c 0,30,31
 1182 1068 1182 1068 1086.5 963 c 128,-1,32
 991 858 991 858 770 754 c 1,33,34
 862 539 862 539 997 344 c 1,35,36
 1081 425 1081 425 1148.5 524.5 c 128,-1,37
 1216 624 1216 624 1216 656 c 0,38,39
 1216 687 1216 687 1180.5 706 c 128,-1,40
 1145 725 1145 725 1104 725 c 1,41,-1
 1118 772 l 1,42,-1
 1614 772 l 1,0,-1
745 817 m 1,43,44
 911 903 911 903 987 991 c 128,-1,45
 1063 1079 1063 1079 1063 1188 c 0,46,47
 1063 1244 1063 1244 1027.5 1278.5 c 128,-1,48
 992 1313 992 1313 930 1313 c 0,49,50
 832 1313 832 1313 767 1236.5 c 128,-1,51
 702 1160 702 1160 702 1061 c 0,52,53
 702 915 702 915 745 817 c 1,43,44
854 229 m 1,54,55
 695 458 695 458 604 676 c 1,56,57
 456 609 456 609 369.5 504.5 c 128,-1,58
 283 400 283 400 283 297 c 0,59,60
 283 206 283 206 338.5 148 c 128,-1,61
 394 90 394 90 475 90 c 0,62,63
 649 90 649 90 854 229 c 1,54,55
EndSplineSet
EndChar
StartChar: quotesingle
Encoding: 39 39 10
Width: 438
Flags: W
Fore
266 803 m 1,0,-1
 296 1096 l 2,1,2
 308 1216 308 1216 320.5 1265 c 128,-1,3
 333 1314 333 1314 366 1350 c 128,-1,4
 399 1386 399 1386 459 1386 c 0,5,6
 530 1386 530 1386 530 1319 c 0,7,8
 530 1279 530 1279 470.5 1135 c 128,-1,9
 411 991 411 991 313 803 c 1,10,-1
 266 803 l 1,0,-1
EndSplineSet
EndChar
StartChar: parenleft
Encoding: 40 40 11
Width: 682
Flags: W
Fore
940 1376 m 1,0,1
 633 1119 633 1119 467 771 c 128,-1,2
 301 423 301 423 301 68 c 0,3,4
 301 -171 301 -171 422 -410 c 1,5,-1
 377 -442 l 1,6,7
 154 -117 154 -117 154 236 c 0,8,9
 154 573 154 573 336 861 c 128,-1,10
 518 1149 518 1149 907 1421 c 1,11,-1
 940 1376 l 1,0,1
EndSplineSet
EndChar
StartChar: parenright
Encoding: 41 41 12
Width: 682
Flags: W
Fore
336 1421 m 1,0,1
 559 1096 559 1096 559 743 c 0,2,3
 559 406 559 406 377 118 c 128,-1,4
 195 -170 195 -170 -195 -442 c 1,5,-1
 -227 -397 l 1,6,7
 80 -140 80 -140 246 208 c 128,-1,8
 412 556 412 556 412 911 c 0,9,10
 412 1150 412 1150 291 1389 c 1,11,-1
 336 1421 l 1,0,1
EndSplineSet
EndChar
StartChar: asterisk
Encoding: 42 42 13
Width: 1024
Flags: W
Fore
672 963 m 1,0,1
 697 943 697 943 810 921 c 0,2,3
 945 896 945 896 982.5 866 c 128,-1,4
 1020 836 1020 836 1020 795 c 0,5,6
 1020 765 1020 765 997 744 c 128,-1,7
 974 723 974 723 944 723 c 0,8,9
 912 723 912 723 874.5 742.5 c 128,-1,10
 837 762 837 762 764 834 c 0,11,12
 687 911 687 911 651 926 c 1,13,14
 651 871 651 871 686 768 c 0,15,16
 715 683 715 683 715 647 c 0,17,18
 715 600 715 600 693 569.5 c 128,-1,19
 671 539 671 539 633 539 c 0,20,21
 595 539 595 539 573 569.5 c 128,-1,22
 551 600 551 600 551 647 c 0,23,24
 551 683 551 683 579 768 c 0,25,26
 614 871 614 871 614 926 c 1,27,28
 578 911 578 911 501 834 c 0,29,30
 428 762 428 762 391 742.5 c 128,-1,31
 354 723 354 723 322 723 c 0,32,33
 291 723 291 723 268.5 744 c 128,-1,34
 246 765 246 765 246 795 c 0,35,36
 246 836 246 836 283.5 866 c 128,-1,37
 321 896 321 896 456 921 c 0,38,39
 569 943 569 943 594 963 c 1,40,41
 569 982 569 982 456 1004 c 0,42,43
 321 1029 321 1029 283.5 1059 c 128,-1,44
 246 1089 246 1089 246 1130 c 0,45,46
 246 1161 246 1161 269 1181.5 c 128,-1,47
 292 1202 292 1202 322 1202 c 0,48,49
 354 1202 354 1202 391 1183 c 128,-1,50
 428 1164 428 1164 501 1091 c 0,51,52
 578 1014 578 1014 614 999 c 1,53,54
 614 1054 614 1054 579 1158 c 0,55,56
 551 1242 551 1242 551 1278 c 0,57,58
 551 1325 551 1325 573 1355.5 c 128,-1,59
 595 1386 595 1386 633 1386 c 0,60,61
 671 1386 671 1386 693 1355.5 c 128,-1,62
 715 1325 715 1325 715 1278 c 0,63,64
 715 1242 715 1242 686 1158 c 0,65,66
 651 1054 651 1054 651 999 c 1,67,68
 687 1014 687 1014 764 1091 c 0,69,70
 837 1164 837 1164 874.5 1183 c 128,-1,71
 912 1202 912 1202 944 1202 c 0,72,73
 974 1202 974 1202 997 1181 c 128,-1,74
 1020 1160 1020 1160 1020 1130 c 0,75,76
 1020 1089 1020 1089 982.5 1059 c 128,-1,77
 945 1029 945 1029 810 1004 c 0,78,79
 697 982 697 982 672 963 c 1,0,1
EndSplineSet
EndChar
StartChar: plus
Encoding: 43 43 14
Width: 1382
Flags: W
Fore
1282 639 m 1,0,-1
 784 639 l 1,1,-1
 784 141 l 1,2,-1
 702 141 l 1,3,-1
 702 639 l 1,4,-1
 204 639 l 1,5,-1
 204 721 l 1,6,-1
 702 721 l 1,7,-1
 702 1219 l 1,8,-1
 784 1219 l 1,9,-1
 784 721 l 1,10,-1
 1282 721 l 1,11,-1
 1282 639 l 1,0,-1
EndSplineSet
EndChar
StartChar: comma
Encoding: 44 44 15
Width: 512
Flags: W
Fore
-59 -240 m 1,0,1
 42 -207 42 -207 97 -161 c 128,-1,2
 152 -115 152 -115 152 -68 c 0,3,4
 152 -37 152 -37 112 -5 c 0,5,6
 63 35 63 35 63 82 c 0,7,8
 63 125 63 125 98 157.5 c 128,-1,9
 133 190 133 190 180 190 c 0,10,11
 230 190 230 190 262.5 156.5 c 128,-1,12
 295 123 295 123 295 72 c 0,13,14
 295 -45 295 -45 208.5 -136 c 128,-1,15
 122 -227 122 -227 -37 -281 c 1,16,-1
 -59 -240 l 1,0,1
EndSplineSet
EndChar
StartChar: hyphen
Encoding: 45 45 16
Width: 682
Flags: W
Fore
618 539 m 1,0,-1
 571 381 l 1,1,-1
 53 381 l 1,2,-1
 100 539 l 1,3,-1
 618 539 l 1,0,-1
EndSplineSet
EndChar
StartChar: period
Encoding: 46 46 17
Width: 512
Flags: W
Fore
170 190 m 0,0,1
 216 190 216 190 248.5 158 c 128,-1,2
 281 126 281 126 281 80 c 0,3,4
 281 34 281 34 248.5 1.5 c 128,-1,5
 216 -31 216 -31 170 -31 c 0,6,7
 124 -31 124 -31 91.5 1.5 c 128,-1,8
 59 34 59 34 59 80 c 0,9,10
 59 126 59 126 91.5 158 c 128,-1,11
 124 190 124 190 170 190 c 0,0,1
EndSplineSet
EndChar
StartChar: slash
Encoding: 47 47 18
Width: 569
Flags: W
Fore
778 1421 m 1,0,-1
 16 -31 l 1,1,-1
 -72 -31 l 1,2,-1
 694 1421 l 1,3,-1
 778 1421 l 1,0,-1
EndSplineSet
EndChar
StartChar: zero
Encoding: 48 48 19
Width: 1024
Flags: W
Fore
719 1386 m 0,0,1
 858 1386 858 1386 938 1265 c 128,-1,2
 1018 1144 1018 1144 1018 920 c 0,3,4
 1018 701 1018 701 932 472.5 c 128,-1,5
 846 244 846 244 709 106.5 c 128,-1,6
 572 -31 572 -31 428 -31 c 0,7,8
 117 -31 117 -31 117 424 c 0,9,10
 117 637 117 637 203 871 c 128,-1,11
 289 1105 289 1105 427.5 1245.5 c 128,-1,12
 566 1386 566 1386 719 1386 c 0,0,1
432 41 m 0,13,14
 540 41 540 41 635.5 219 c 128,-1,15
 731 397 731 397 792.5 679 c 128,-1,16
 854 961 854 961 854 1100 c 0,17,18
 854 1315 854 1315 707 1315 c 0,19,20
 592 1315 592 1315 495 1128 c 128,-1,21
 398 941 398 941 339.5 648 c 128,-1,22
 281 355 281 355 281 233 c 0,23,24
 281 41 281 41 432 41 c 0,13,14
EndSplineSet
EndChar
StartChar: one
Encoding: 49 49 20
Width: 1024
Flags: W
Fore
864 1384 m 1,0,-1
 553 289 l 2,1,2
 514 149 514 149 514 125 c 0,3,4
 514 88 514 88 542 67.5 c 128,-1,5
 570 47 570 47 676 47 c 1,6,-1
 664 0 l 1,7,-1
 117 0 l 1,8,-1
 129 47 l 1,9,10
 211 47 211 47 251 59.5 c 128,-1,11
 291 72 291 72 319 115 c 128,-1,12
 347 158 347 158 375 254 c 2,13,-1
 623 1124 l 2,14,15
 631 1155 631 1155 631 1174 c 0,16,17
 631 1202 631 1202 610.5 1212.5 c 128,-1,18
 590 1223 590 1223 539 1223 c 2,19,-1
 397 1223 l 1,20,-1
 412 1270 l 1,21,22
 525 1270 525 1270 618 1293.5 c 128,-1,23
 711 1317 711 1317 825 1384 c 1,24,-1
 864 1384 l 1,0,-1
EndSplineSet
KernsSLIFO: 20 -152 0 0
EndChar
StartChar: two
Encoding: 50 50 21
Width: 1024
Flags: W
Fore
229 1071 m 1,0,1
 298 1217 298 1217 416 1301.5 c 128,-1,2
 534 1386 534 1386 674 1386 c 0,3,4
 815 1386 815 1386 908 1294.5 c 128,-1,5
 1001 1203 1001 1203 1001 1071 c 0,6,7
 1001 845 1001 845 766 631 c 2,8,-1
 236 147 l 1,9,-1
 606 147 l 2,10,11
 711 147 711 147 754 191 c 128,-1,12
 797 235 797 235 825 338 c 1,13,-1
 872 338 l 1,14,-1
 776 0 l 1,15,-1
 27 0 l 1,16,-1
 27 37 l 1,17,-1
 491 462 l 2,18,19
 626 585 626 585 695 677 c 128,-1,20
 764 769 764 769 794.5 847.5 c 128,-1,21
 825 926 825 926 825 1001 c 0,22,23
 825 1104 825 1104 759.5 1171.5 c 128,-1,24
 694 1239 694 1239 582 1239 c 0,25,26
 390 1239 390 1239 272 1051 c 1,27,-1
 229 1071 l 1,0,1
EndSplineSet
EndChar
StartChar: three
Encoding: 51 51 22
Width: 1024
Flags: W
Fore
293 1169 m 1,0,1
 468 1386 468 1386 702 1386 c 0,2,3
 825 1386 825 1386 901 1315 c 128,-1,4
 977 1244 977 1244 977 1133 c 0,5,6
 977 913 977 913 664 797 c 1,7,-1
 664 793 l 1,8,9
 773 764 773 764 835 678 c 128,-1,10
 897 592 897 592 897 483 c 0,11,12
 897 258 897 258 728.5 113.5 c 128,-1,13
 560 -31 560 -31 313 -31 c 0,14,15
 231 -31 231 -31 146.5 -6 c 128,-1,16
 62 19 62 19 12 57 c 1,17,-1
 45 106 l 1,18,19
 168 41 168 41 309 41 c 0,20,21
 494 41 494 41 605.5 158 c 128,-1,22
 717 275 717 275 717 459 c 0,23,24
 717 582 717 582 642 653.5 c 128,-1,25
 567 725 567 725 455 725 c 0,26,27
 399 725 399 725 334 715 c 1,28,-1
 334 772 l 1,29,30
 551 798 551 798 676 892 c 128,-1,31
 801 986 801 986 801 1120 c 0,32,33
 801 1276 801 1276 618 1276 c 0,34,35
 549 1276 549 1276 468.5 1238 c 128,-1,36
 388 1200 388 1200 334 1139 c 1,37,-1
 293 1169 l 1,0,1
EndSplineSet
EndChar
StartChar: four
Encoding: 52 52 23
Width: 1024
Flags: W
Fore
1036 1384 m 1,0,-1
 782 502 l 1,1,-1
 969 502 l 1,2,-1
 932 371 l 1,3,-1
 745 371 l 1,4,5
 692 185 692 185 686 162 c 128,-1,6
 680 139 680 139 680 117 c 0,7,8
 680 76 680 76 716 61.5 c 128,-1,9
 752 47 752 47 846 47 c 1,10,-1
 831 0 l 1,11,-1
 233 0 l 1,12,-1
 248 47 l 1,13,14
 386 47 386 47 438.5 66 c 128,-1,15
 491 85 491 85 507 122 c 128,-1,16
 523 159 523 159 584 371 c 1,17,-1
 23 371 l 1,18,-1
 59 500 l 1,19,-1
 938 1384 l 1,20,-1
 1036 1384 l 1,0,-1
811 1161 m 1,21,-1
 158 502 l 1,22,-1
 621 502 l 1,23,-1
 811 1161 l 1,21,-1
EndSplineSet
EndChar
StartChar: five
Encoding: 53 53 24
Width: 1024
Flags: W
Fore
1081 1356 m 1,0,-1
 1038 1208 l 1,1,-1
 502 1208 l 1,2,-1
 344 811 l 1,3,4
 454 866 454 866 575 866 c 0,5,6
 723 866 723 866 812 773 c 128,-1,7
 901 680 901 680 901 532 c 0,8,9
 901 296 901 296 734 132.5 c 128,-1,10
 567 -31 567 -31 322 -31 c 0,11,12
 188 -31 188 -31 29 61 c 1,13,-1
 59 117 l 1,14,15
 196 47 196 47 311 47 c 0,16,17
 490 47 490 47 605.5 180.5 c 128,-1,18
 721 314 721 314 721 524 c 0,19,20
 721 640 721 640 667 706 c 128,-1,21
 613 772 613 772 512 772 c 0,22,23
 440 772 440 772 389.5 755 c 128,-1,24
 339 738 339 738 266 692 c 1,25,-1
 217 700 l 1,26,-1
 475 1356 l 1,27,-1
 1081 1356 l 1,0,-1
EndSplineSet
EndChar
StartChar: six
Encoding: 54 54 25
Width: 1024
Flags: W
Fore
1075 1339 m 1,0,1
 900 1303 900 1303 728 1166 c 128,-1,2
 556 1029 556 1029 444 844 c 1,3,4
 544 897 544 897 633 897 c 0,5,6
 773 897 773 897 861.5 797.5 c 128,-1,7
 950 698 950 698 950 551 c 0,8,9
 950 311 950 311 794 140 c 128,-1,10
 638 -31 638 -31 463 -31 c 0,11,12
 300 -31 300 -31 205.5 80.5 c 128,-1,13
 111 192 111 192 111 377 c 0,14,15
 111 729 111 729 396 1042 c 128,-1,16
 681 1355 681 1355 1075 1386 c 1,17,-1
 1075 1339 l 1,0,1
455 41 m 0,18,19
 577 41 577 41 673.5 195.5 c 128,-1,20
 770 350 770 350 770 578 c 0,21,22
 770 678 770 678 714.5 741.5 c 128,-1,23
 659 805 659 805 563 805 c 0,24,25
 522 805 522 805 463.5 786 c 128,-1,26
 405 767 405 767 392.5 748 c 128,-1,27
 380 729 380 729 345.5 640 c 128,-1,28
 311 551 311 551 290.5 452 c 128,-1,29
 270 353 270 353 270 260 c 0,30,31
 270 160 270 160 318.5 100.5 c 128,-1,32
 367 41 367 41 455 41 c 0,18,19
EndSplineSet
EndChar
StartChar: seven
Encoding: 55 55 26
Width: 1024
Flags: W
Fore
1135 1356 m 1,0,-1
 1122 1319 l 1,1,-1
 276 -29 l 1,2,-1
 102 -29 l 1,3,-1
 954 1208 l 1,4,-1
 471 1208 l 2,5,6
 380 1208 380 1208 334 1167 c 128,-1,7
 288 1126 288 1126 246 989 c 1,8,-1
 197 989 l 1,9,-1
 303 1356 l 1,10,-1
 1135 1356 l 1,0,-1
EndSplineSet
EndChar
StartChar: eight
Encoding: 56 56 27
Width: 1024
Flags: W
Fore
469 743 m 1,0,1
 379 845 379 845 342 911.5 c 128,-1,2
 305 978 305 978 305 1053 c 0,3,4
 305 1196 305 1196 419.5 1291 c 128,-1,5
 534 1386 534 1386 688 1386 c 0,6,7
 832 1386 832 1386 932 1308 c 128,-1,8
 1032 1230 1032 1230 1032 1110 c 0,9,10
 1032 866 1032 866 715 752 c 1,11,12
 909 549 909 549 909 383 c 0,13,14
 909 240 909 240 779.5 104.5 c 128,-1,15
 650 -31 650 -31 453 -31 c 0,16,17
 291 -31 291 -31 180.5 67.5 c 128,-1,18
 70 166 70 166 70 305 c 0,19,20
 70 454 70 454 163 554.5 c 128,-1,21
 256 655 256 655 469 743 c 1,0,1
659 807 m 1,22,23
 891 890 891 890 891 1110 c 0,24,25
 891 1208 891 1208 835.5 1261.5 c 128,-1,26
 780 1315 780 1315 680 1315 c 0,27,28
 590 1315 590 1315 529.5 1259.5 c 128,-1,29
 469 1204 469 1204 469 1120 c 0,30,31
 469 1051 469 1051 510.5 984 c 128,-1,32
 552 917 552 917 659 807 c 1,22,23
522 688 m 1,33,34
 221 565 221 565 221 293 c 0,35,36
 221 188 221 188 293.5 114.5 c 128,-1,37
 366 41 366 41 475 41 c 0,38,39
 585 41 585 41 665 114 c 128,-1,40
 745 187 745 187 745 291 c 0,41,42
 745 364 745 364 706.5 446 c 128,-1,43
 668 528 668 528 522 688 c 1,33,34
EndSplineSet
EndChar
StartChar: nine
Encoding: 57 57 28
Width: 1024
Flags: W
Fore
686 512 m 1,0,1
 587 459 587 459 498 459 c 0,2,3
 358 459 358 459 269 558.5 c 128,-1,4
 180 658 180 658 180 805 c 0,5,6
 180 961 180 961 251.5 1095 c 128,-1,7
 323 1229 323 1229 439.5 1307.5 c 128,-1,8
 556 1386 556 1386 668 1386 c 0,9,10
 831 1386 831 1386 925.5 1275 c 128,-1,11
 1020 1164 1020 1164 1020 979 c 0,12,13
 1020 627 1020 627 734.5 314 c 128,-1,14
 449 1 449 1 55 -31 c 1,15,-1
 55 16 l 1,16,17
 231 53 231 53 403 190 c 128,-1,18
 575 327 575 327 686 512 c 1,0,1
567 551 m 0,19,20
 609 551 609 551 667 570 c 128,-1,21
 725 589 725 589 737.5 608 c 128,-1,22
 750 627 750 627 785 716 c 128,-1,23
 820 805 820 805 840 904 c 128,-1,24
 860 1003 860 1003 860 1096 c 0,25,26
 860 1196 860 1196 811.5 1255.5 c 128,-1,27
 763 1315 763 1315 676 1315 c 0,28,29
 553 1315 553 1315 456.5 1160.5 c 128,-1,30
 360 1006 360 1006 360 778 c 0,31,32
 360 678 360 678 416 614.5 c 128,-1,33
 472 551 472 551 567 551 c 0,19,20
EndSplineSet
EndChar
StartChar: colon
Encoding: 58 58 29
Width: 682
Flags: W
Fore
434 905 m 0,0,1
 480 905 480 905 512.5 872.5 c 128,-1,2
 545 840 545 840 545 795 c 0,3,4
 545 749 545 749 512.5 716.5 c 128,-1,5
 480 684 480 684 434 684 c 0,6,7
 388 684 388 684 356 716.5 c 128,-1,8
 324 749 324 749 324 795 c 0,9,10
 324 840 324 840 356 872.5 c 128,-1,11
 388 905 388 905 434 905 c 0,0,1
223 190 m 0,12,13
 269 190 269 190 301.5 158 c 128,-1,14
 334 126 334 126 334 80 c 0,15,16
 334 34 334 34 301.5 1.5 c 128,-1,17
 269 -31 269 -31 223 -31 c 0,18,19
 177 -31 177 -31 145 1.5 c 128,-1,20
 113 34 113 34 113 80 c 0,21,22
 113 126 113 126 145 158 c 128,-1,23
 177 190 177 190 223 190 c 0,12,13
EndSplineSet
EndChar
StartChar: semicolon
Encoding: 59 59 30
Width: 682
Flags: W
Fore
434 905 m 0,0,1
 480 905 480 905 512.5 872.5 c 128,-1,2
 545 840 545 840 545 795 c 0,3,4
 545 749 545 749 512.5 716.5 c 128,-1,5
 480 684 480 684 434 684 c 0,6,7
 388 684 388 684 356 716.5 c 128,-1,8
 324 749 324 749 324 795 c 0,9,10
 324 840 324 840 356 872.5 c 128,-1,11
 388 905 388 905 434 905 c 0,0,1
-6 -240 m 1,12,13
 96 -207 96 -207 150.5 -161 c 128,-1,14
 205 -115 205 -115 205 -68 c 0,15,16
 205 -37 205 -37 166 -5 c 0,17,18
 117 35 117 35 117 82 c 0,19,20
 117 125 117 125 151.5 157.5 c 128,-1,21
 186 190 186 190 233 190 c 0,22,23
 283 190 283 190 315.5 156.5 c 128,-1,24
 348 123 348 123 348 72 c 0,25,26
 348 -45 348 -45 261.5 -136 c 128,-1,27
 175 -227 175 -227 16 -281 c 1,28,-1
 -6 -240 l 1,12,13
EndSplineSet
EndChar
StartChar: less
Encoding: 60 60 31
Width: 1382
Flags: W
Fore
1282 184 m 1,0,-1
 205 655 l 1,1,-1
 205 705 l 1,2,-1
 1282 1176 l 1,3,-1
 1282 1085 l 1,4,-1
 354 680 l 1,5,-1
 1282 274 l 1,6,-1
 1282 184 l 1,0,-1
EndSplineSet
EndChar
StartChar: equal
Encoding: 61 61 32
Width: 1382
Flags: W
Fore
1282 803 m 1,0,-1
 205 803 l 1,1,-1
 205 885 l 1,2,-1
 1282 885 l 1,3,-1
 1282 803 l 1,0,-1
1282 475 m 1,4,-1
 205 475 l 1,5,-1
 205 557 l 1,6,-1
 1282 557 l 1,7,-1
 1282 475 l 1,4,-1
EndSplineSet
EndChar
StartChar: greater
Encoding: 62 62 33
Width: 1382
Flags: W
Fore
1282 655 m 1,0,-1
 205 184 l 1,1,-1
 205 274 l 1,2,-1
 1133 680 l 1,3,-1
 205 1085 l 1,4,-1
 205 1176 l 1,5,-1
 1282 705 l 1,6,-1
 1282 655 l 1,0,-1
EndSplineSet
EndChar
StartChar: question
Encoding: 63 63 34
Width: 1024
Flags: W
Fore
408 643 m 1,0,1
 654 711 654 711 753 798 c 128,-1,2
 852 885 852 885 852 1016 c 0,3,4
 852 1105 852 1105 792 1168 c 128,-1,5
 732 1231 732 1231 645 1231 c 0,6,7
 613 1231 613 1231 570 1207 c 0,8,9
 519 1178 519 1178 471 1178 c 0,10,11
 440 1178 440 1178 419.5 1200 c 128,-1,12
 399 1222 399 1222 399 1255 c 0,13,14
 399 1308 399 1308 452 1347 c 128,-1,15
 505 1386 505 1386 586 1386 c 0,16,17
 729 1386 729 1386 841.5 1236.5 c 128,-1,18
 954 1087 954 1087 954 932 c 0,19,20
 954 765 954 765 828.5 655 c 128,-1,21
 703 545 703 545 414 465 c 1,22,-1
 371 313 l 1,23,-1
 313 313 l 1,24,-1
 408 643 l 1,0,1
285 190 m 0,25,26
 331 190 331 190 363 158 c 128,-1,27
 395 126 395 126 395 80 c 0,28,29
 395 34 395 34 363 1.5 c 128,-1,30
 331 -31 331 -31 285 -31 c 0,31,32
 239 -31 239 -31 206.5 1.5 c 128,-1,33
 174 34 174 34 174 80 c 0,34,35
 174 126 174 126 206.5 158 c 128,-1,36
 239 190 239 190 285 190 c 0,25,26
EndSplineSet
EndChar
StartChar: at
Encoding: 64 64 35
Width: 1884
Flags: W
Fore
1669 -133 m 1,0,1
 1540 -280 1540 -280 1357 -359 c 128,-1,2
 1174 -438 1174 -438 977 -438 c 0,3,4
 599 -438 599 -438 349.5 -187.5 c 128,-1,5
 100 63 100 63 100 440 c 0,6,7
 100 841 100 841 370.5 1113.5 c 128,-1,8
 641 1386 641 1386 1044 1386 c 0,9,10
 1356 1386 1356 1386 1558.5 1193 c 128,-1,11
 1761 1000 1761 1000 1761 700 c 0,12,13
 1761 434 1761 434 1599.5 232.5 c 128,-1,14
 1438 31 1438 31 1192 31 c 0,15,16
 1125 31 1125 31 1082.5 63.5 c 128,-1,17
 1040 96 1040 96 1040 143 c 0,18,19
 1040 202 1040 202 1081 334 c 1,20,21
 881 31 881 31 702 31 c 0,22,23
 613 31 613 31 555.5 99.5 c 128,-1,24
 498 168 498 168 498 274 c 0,25,26
 498 430 498 430 583.5 594.5 c 128,-1,27
 669 759 669 759 805.5 860 c 128,-1,28
 942 961 942 961 1083 961 c 0,29,30
 1175 961 1175 961 1260 915 c 1,31,-1
 1354 961 l 1,32,-1
 1413 961 l 1,33,-1
 1271 474 l 2,34,35
 1213 276 1213 276 1207.5 243.5 c 128,-1,36
 1202 211 1202 211 1202 188 c 0,37,38
 1202 133 1202 133 1274 133 c 0,39,40
 1434 133 1434 133 1567 306 c 128,-1,41
 1700 479 1700 479 1700 700 c 0,42,43
 1700 978 1700 978 1517.5 1152.5 c 128,-1,44
 1335 1327 1335 1327 1049 1327 c 0,45,46
 674 1327 674 1327 434.5 1063.5 c 128,-1,47
 195 800 195 800 195 414 c 0,48,49
 195 70 195 70 413.5 -153.5 c 128,-1,50
 632 -377 632 -377 977 -377 c 0,51,52
 1372 -377 1372 -377 1626 -94 c 1,53,-1
 1669 -133 l 1,0,1
1202 745 m 2,54,55
 1207 761 1207 761 1185 805 c 0,56,57
 1172 830 1172 830 1152 847.5 c 128,-1,58
 1132 865 1132 865 1106.5 874 c 128,-1,59
 1081 883 1081 883 1051 883 c 0,60,61
 906 883 906 883 784 691 c 128,-1,62
 662 499 662 499 662 340 c 0,63,64
 662 247 662 247 691.5 205.5 c 128,-1,65
 721 164 721 164 786 164 c 0,66,67
 874 164 874 164 997.5 315 c 128,-1,68
 1121 466 1121 466 1126 485 c 2,69,-1
 1202 745 l 2,54,55
EndSplineSet
EndChar
StartChar: A
Encoding: 65 65 36
Width: 1251
Flags: W
Fore
1198 47 m 1,0,-1
 1186 0 l 1,1,-1
 647 0 l 1,2,-1
 659 47 l 1,3,4
 759 47 759 47 801.5 66.5 c 128,-1,5
 844 86 844 86 844 146 c 0,6,7
 844 164 844 164 809 436 c 1,8,-1
 334 436 l 1,9,10
 191 195 191 195 178.5 169 c 128,-1,11
 166 143 166 143 166 113 c 0,12,13
 166 47 166 47 285 47 c 1,14,-1
 272 0 l 1,15,-1
 -145 0 l 1,16,-1
 -133 47 l 1,17,18
 -71 47 -71 47 -19 73 c 128,-1,19
 33 99 33 99 98 207 c 2,20,-1
 809 1386 l 1,21,-1
 866 1386 l 1,22,-1
 1028 156 l 2,23,24
 1036 96 1036 96 1074.5 71.5 c 128,-1,25
 1113 47 1113 47 1198 47 c 1,0,-1
799 518 m 1,26,-1
 725 1094 l 1,27,-1
 383 518 l 1,28,-1
 799 518 l 1,26,-1
EndSplineSet
KernsSLIFO: 183 -76 0 0 92 -113 0 0 90 -113 0 0 89 -113 0 0 60 -113 0 0 58 -76 0 0 57 -102 0 0 55 -76 0 0 3 -37 0 0
EndChar
StartChar: B
Encoding: 66 66 37
Width: 1251
Flags: W
Fore
315 1356 m 1,0,-1
 788 1356 l 2,1,2
 992 1356 992 1356 1099 1275.5 c 128,-1,3
 1206 1195 1206 1195 1206 1069 c 0,4,5
 1206 939 1206 939 1110 844 c 128,-1,6
 1014 749 1014 749 856 719 c 1,7,-1
 852 715 l 1,8,9
 989 683 989 683 1064 607.5 c 128,-1,10
 1139 532 1139 532 1139 430 c 0,11,12
 1139 242 1139 242 974.5 121 c 128,-1,13
 810 0 810 0 522 0 c 2,14,-1
 -49 0 l 1,15,-1
 -37 47 l 1,16,17
 75 47 75 47 111 79 c 128,-1,18
 147 111 147 111 188 254 c 2,19,-1
 424 1063 l 2,20,21
 459 1180 459 1180 459 1239 c 0,22,23
 459 1274 459 1274 432.5 1291.5 c 128,-1,24
 406 1309 406 1309 303 1309 c 1,25,-1
 315 1356 l 1,0,-1
520 754 m 1,26,-1
 612 754 l 2,27,28
 803 754 803 754 903.5 849 c 128,-1,29
 1004 944 1004 944 1004 1071 c 0,30,31
 1004 1181 1004 1181 934 1232.5 c 128,-1,32
 864 1284 864 1284 756 1284 c 0,33,34
 720 1284 720 1284 672 1278 c 1,35,-1
 520 754 l 1,26,-1
328 88 m 1,36,37
 402 72 402 72 494 72 c 0,38,39
 691 72 691 72 806.5 167 c 128,-1,40
 922 262 922 262 922 424 c 0,41,42
 922 682 922 682 584 682 c 2,43,-1
 498 682 l 1,44,-1
 328 88 l 1,36,37
EndSplineSet
EndChar
StartChar: C
Encoding: 67 67 38
Width: 1366
Flags: W
Fore
688 -31 m 0,0,1
 441 -31 441 -31 289 118 c 128,-1,2
 137 267 137 267 137 512 c 0,3,4
 137 736 137 736 258.5 940.5 c 128,-1,5
 380 1145 380 1145 584 1265.5 c 128,-1,6
 788 1386 788 1386 1012 1386 c 0,7,8
 1114 1386 1114 1386 1223 1352 c 0,9,10
 1290 1331 1290 1331 1329 1331 c 0,11,12
 1371 1331 1371 1331 1395 1386 c 1,13,-1
 1442 1386 l 1,14,-1
 1346 975 l 1,15,-1
 1300 975 l 1,16,-1
 1300 1038 l 2,17,18
 1300 1315 1300 1315 1006 1315 c 0,19,20
 726 1315 726 1315 543 1069 c 128,-1,21
 360 823 360 823 360 510 c 0,22,23
 360 311 360 311 470 191.5 c 128,-1,24
 580 72 580 72 754 72 c 0,25,26
 1038 72 1038 72 1221 309 c 1,27,-1
 1253 289 l 1,28,29
 1054 -31 1054 -31 688 -31 c 0,0,1
EndSplineSet
EndChar
StartChar: D
Encoding: 68 68 39
Width: 1479
Flags: W
Fore
315 1356 m 1,0,-1
 799 1356 l 2,1,2
 1121 1356 1121 1356 1285.5 1204 c 128,-1,3
 1450 1052 1450 1052 1450 782 c 0,4,5
 1450 593 1450 593 1341.5 405 c 128,-1,6
 1233 217 1233 217 1024.5 108.5 c 128,-1,7
 816 0 816 0 524 0 c 2,8,-1
 -49 0 l 1,9,-1
 -37 47 l 1,10,11
 75 47 75 47 111 79 c 128,-1,12
 147 111 147 111 188 254 c 2,13,-1
 424 1063 l 2,14,15
 459 1180 459 1180 459 1239 c 0,16,17
 459 1274 459 1274 432.5 1291.5 c 128,-1,18
 406 1309 406 1309 303 1309 c 1,19,-1
 315 1356 l 1,0,-1
672 1280 m 1,20,-1
 387 289 l 2,21,22
 348 164 348 164 348 127 c 0,23,24
 348 97 348 97 373 81.5 c 128,-1,25
 398 66 398 66 500 66 c 0,26,27
 845 66 845 66 1036 269.5 c 128,-1,28
 1227 473 1227 473 1227 825 c 0,29,30
 1227 1045 1227 1045 1111 1164.5 c 128,-1,31
 995 1284 995 1284 776 1284 c 0,32,33
 730 1284 730 1284 672 1280 c 1,20,-1
EndSplineSet
EndChar
StartChar: E
Encoding: 69 69 40
Width: 1251
Flags: W
Fore
1292 1356 m 1,0,-1
 1204 1028 l 1,1,-1
 1157 1028 l 1,2,3
 1169 1112 1169 1112 1169 1141 c 0,4,5
 1169 1186 1169 1186 1156.5 1215.5 c 128,-1,6
 1144 1245 1144 1245 1096.5 1264.5 c 128,-1,7
 1049 1284 1049 1284 950 1284 c 2,8,-1
 672 1284 l 1,9,-1
 516 745 l 1,10,-1
 692 745 l 2,11,12
 793 745 793 745 837 754 c 128,-1,13
 881 763 881 763 915 802.5 c 128,-1,14
 949 842 949 842 991 940 c 1,15,-1
 1038 940 l 1,16,-1
 899 446 l 1,17,-1
 852 446 l 1,18,19
 868 520 868 520 868 563 c 0,20,21
 868 622 868 622 844.5 648 c 128,-1,22
 821 674 821 674 739 674 c 2,23,-1
 498 674 l 1,24,-1
 375 246 l 2,25,26
 350 159 350 159 350 135 c 0,27,28
 350 97 350 97 369.5 84.5 c 128,-1,29
 389 72 389 72 500 72 c 0,30,31
 720 72 720 72 817.5 89 c 128,-1,32
 915 106 915 106 971.5 167.5 c 128,-1,33
 1028 229 1028 229 1079 377 c 1,34,-1
 1126 377 l 1,35,-1
 1016 0 l 1,36,-1
 -49 0 l 1,37,-1
 -37 47 l 1,38,39
 75 47 75 47 111 79 c 128,-1,40
 147 111 147 111 188 254 c 2,41,-1
 424 1063 l 2,42,43
 459 1180 459 1180 459 1239 c 0,44,45
 459 1274 459 1274 432.5 1291.5 c 128,-1,46
 406 1309 406 1309 303 1309 c 1,47,-1
 315 1356 l 1,48,-1
 1292 1356 l 1,0,-1
EndSplineSet
EndChar
StartChar: F
Encoding: 70 70 41
Width: 1251
Flags: W
Fore
1366 1356 m 1,0,-1
 1278 1028 l 1,1,-1
 1231 1028 l 1,2,3
 1243 1112 1243 1112 1243 1141 c 0,4,5
 1243 1186 1243 1186 1230.5 1215.5 c 128,-1,6
 1218 1245 1218 1245 1170.5 1264.5 c 128,-1,7
 1123 1284 1123 1284 1024 1284 c 2,8,-1
 670 1284 l 1,9,-1
 514 745 l 1,10,-1
 766 745 l 2,11,12
 867 745 867 745 910.5 754 c 128,-1,13
 954 763 954 763 988.5 802.5 c 128,-1,14
 1023 842 1023 842 1065 940 c 1,15,-1
 1112 940 l 1,16,-1
 973 446 l 1,17,-1
 926 446 l 1,18,19
 942 520 942 520 942 563 c 0,20,21
 942 622 942 622 918 648 c 128,-1,22
 894 674 894 674 813 674 c 2,23,-1
 496 674 l 1,24,-1
 372 236 l 2,25,26
 348 154 348 154 348 125 c 0,27,28
 348 87 348 87 379 67 c 128,-1,29
 410 47 410 47 510 47 c 1,30,-1
 498 0 l 1,31,-1
 -49 0 l 1,32,-1
 -37 47 l 1,33,34
 75 47 75 47 111 79 c 128,-1,35
 147 111 147 111 188 254 c 2,36,-1
 424 1063 l 2,37,38
 459 1180 459 1180 459 1239 c 0,39,40
 459 1274 459 1274 432.5 1291.5 c 128,-1,41
 406 1309 406 1309 303 1309 c 1,42,-1
 315 1356 l 1,43,-1
 1366 1356 l 1,0,-1
EndSplineSet
KernsSLIFO: 36 -264 0 0 17 -264 0 0 15 -264 0 0
EndChar
StartChar: G
Encoding: 71 71 42
Width: 1479
Flags: W
Fore
1481 629 m 1,0,-1
 1468 582 l 1,1,-1
 1425 582 l 2,2,3
 1357 582 1357 582 1315 542 c 128,-1,4
 1273 502 1273 502 1249 413 c 2,5,-1
 1151 66 l 1,6,7
 934 -31 934 -31 752 -31 c 0,8,9
 457 -31 457 -31 301 129 c 128,-1,10
 145 289 145 289 145 528 c 0,11,12
 145 737 145 737 262.5 941 c 128,-1,13
 380 1145 380 1145 580.5 1265.5 c 128,-1,14
 781 1386 781 1386 1018 1386 c 0,15,16
 1130 1386 1130 1386 1245 1351 c 0,17,18
 1312 1331 1312 1331 1350 1331 c 0,19,20
 1391 1331 1391 1331 1415 1386 c 1,21,-1
 1462 1386 l 1,22,-1
 1366 975 l 1,23,-1
 1321 975 l 1,24,-1
 1321 1038 l 2,25,26
 1321 1315 1321 1315 1022 1315 c 0,27,28
 738 1315 738 1315 553.5 1069.5 c 128,-1,29
 369 824 369 824 369 506 c 0,30,31
 369 295 369 295 470 168 c 128,-1,32
 571 41 571 41 754 41 c 0,33,34
 863 41 863 41 973 94 c 1,35,36
 1057 386 1057 386 1067 423.5 c 128,-1,37
 1077 461 1077 461 1077 512 c 0,38,39
 1077 544 1077 544 1047.5 563 c 128,-1,40
 1018 582 1018 582 891 582 c 1,41,-1
 903 629 l 1,42,-1
 1481 629 l 1,0,-1
EndSplineSet
EndChar
StartChar: H
Encoding: 72 72 43
Width: 1479
Flags: W
Fore
1657 1356 m 1,0,-1
 1645 1309 l 1,1,-1
 1602 1309 l 2,2,3
 1540 1309 1540 1309 1497 1274.5 c 128,-1,4
 1454 1240 1454 1240 1425 1139 c 2,5,-1
 1182 289 l 2,6,7
 1143 149 1143 149 1143 125 c 0,8,9
 1143 87 1143 87 1174 67 c 128,-1,10
 1205 47 1205 47 1305 47 c 1,11,-1
 1292 0 l 1,12,-1
 745 0 l 1,13,-1
 758 47 l 1,14,15
 835 47 835 47 870.5 58 c 128,-1,16
 906 69 906 69 928.5 107 c 128,-1,17
 951 145 951 145 996 299 c 2,18,-1
 1104 670 l 1,19,-1
 496 670 l 1,20,-1
 372 235 l 2,21,22
 348 154 348 154 348 125 c 0,23,24
 348 87 348 87 379 67 c 128,-1,25
 410 47 410 47 510 47 c 1,26,-1
 498 0 l 1,27,-1
 -49 0 l 1,28,-1
 -37 47 l 1,29,30
 75 47 75 47 111 79 c 128,-1,31
 147 111 147 111 188 254 c 2,32,-1
 424 1063 l 2,33,34
 459 1180 459 1180 459 1239 c 0,35,36
 459 1274 459 1274 432.5 1291.5 c 128,-1,37
 406 1309 406 1309 303 1309 c 1,38,-1
 315 1356 l 1,39,-1
 862 1356 l 1,40,-1
 850 1309 l 1,41,-1
 807 1309 l 2,42,43
 744 1309 744 1309 702.5 1274.5 c 128,-1,44
 661 1240 661 1240 641 1171 c 2,45,-1
 518 752 l 1,46,-1
 1128 752 l 1,47,48
 1232 1109 1232 1109 1242.5 1148 c 128,-1,49
 1253 1187 1253 1187 1253 1239 c 0,50,51
 1253 1274 1253 1274 1227 1291.5 c 128,-1,52
 1201 1309 1201 1309 1098 1309 c 1,53,-1
 1110 1356 l 1,54,-1
 1657 1356 l 1,0,-1
EndSplineSet
EndChar
StartChar: I
Encoding: 73 73 44
Width: 682
Flags: W
Fore
858 1356 m 1,0,-1
 846 1309 l 1,1,-1
 803 1309 l 2,2,3
 742 1309 742 1309 699 1274.5 c 128,-1,4
 656 1240 656 1240 627 1139 c 2,5,-1
 383 289 l 2,6,7
 344 149 344 149 344 125 c 0,8,9
 344 87 344 87 375 67 c 128,-1,10
 406 47 406 47 506 47 c 1,11,-1
 494 0 l 1,12,-1
 -53 0 l 1,13,-1
 -41 47 l 1,14,15
 71 47 71 47 107 79 c 128,-1,16
 143 111 143 111 184 254 c 2,17,-1
 420 1063 l 2,18,19
 455 1180 455 1180 455 1239 c 0,20,21
 455 1274 455 1274 428.5 1291.5 c 128,-1,22
 402 1309 402 1309 299 1309 c 1,23,-1
 311 1356 l 1,24,-1
 858 1356 l 1,0,-1
EndSplineSet
EndChar
StartChar: J
Encoding: 74 74 45
Width: 909
Flags: W
Fore
1118 1356 m 1,0,-1
 1106 1309 l 1,1,-1
 1063 1309 l 2,2,3
 1002 1309 1002 1309 959 1274.5 c 128,-1,4
 916 1240 916 1240 887 1139 c 2,5,-1
 684 432 l 2,6,7
 623 218 623 218 488 93.5 c 128,-1,8
 353 -31 353 -31 168 -31 c 0,9,10
 62 -31 62 -31 -6 17.5 c 128,-1,11
 -74 66 -74 66 -74 154 c 0,12,13
 -74 211 -74 211 -37.5 251 c 128,-1,14
 -1 291 -1 291 55 291 c 0,15,16
 97 291 97 291 126.5 264.5 c 128,-1,17
 156 238 156 238 156 199 c 0,18,19
 156 165 156 165 120 126 c 0,20,21
 96 99 96 99 96 84 c 0,22,23
 96 60 96 60 118.5 45.5 c 128,-1,24
 141 31 141 31 168 31 c 0,25,26
 254 31 254 31 317.5 89 c 128,-1,27
 381 147 381 147 422 234 c 128,-1,28
 463 321 463 321 508 472 c 2,29,-1
 623 868 l 2,30,31
 694 1113 694 1113 704.5 1152 c 128,-1,32
 715 1191 715 1191 715 1239 c 0,33,34
 715 1287 715 1287 681.5 1298 c 128,-1,35
 648 1309 648 1309 559 1309 c 1,36,-1
 571 1356 l 1,37,-1
 1118 1356 l 1,0,-1
EndSplineSet
EndChar
StartChar: K
Encoding: 75 75 46
Width: 1366
Flags: W
Fore
1554 1356 m 1,0,-1
 1540 1309 l 1,1,2
 1435 1309 1435 1309 1254 1171 c 2,3,-1
 809 829 l 1,4,5
 958 353 958 353 1045.5 198 c 128,-1,6
 1133 43 1133 43 1225 43 c 0,7,8
 1240 43 1240 43 1288 47 c 1,9,-1
 1274 0 l 1,10,11
 1203 -20 1203 -20 1079 -20 c 0,12,13
 962 -20 962 -20 892.5 91 c 128,-1,14
 823 202 823 202 657 713 c 1,15,-1
 465 565 l 1,16,-1
 372 236 l 2,17,18
 348 154 348 154 348 125 c 0,19,20
 348 87 348 87 379 67 c 128,-1,21
 410 47 410 47 510 47 c 1,22,-1
 498 0 l 1,23,-1
 -49 0 l 1,24,-1
 -37 47 l 1,25,26
 75 47 75 47 111 79 c 128,-1,27
 147 111 147 111 188 254 c 2,28,-1
 424 1063 l 2,29,30
 459 1180 459 1180 459 1239 c 0,31,32
 459 1274 459 1274 432.5 1291.5 c 128,-1,33
 406 1309 406 1309 303 1309 c 1,34,-1
 315 1356 l 1,35,-1
 862 1356 l 1,36,-1
 850 1309 l 1,37,-1
 807 1309 l 2,38,39
 681 1309 681 1309 641 1171 c 2,40,-1
 496 672 l 1,41,42
 994 1064 994 1064 1086 1143 c 128,-1,43
 1178 1222 1178 1222 1178 1268 c 0,44,45
 1178 1290 1178 1290 1153.5 1299.5 c 128,-1,46
 1129 1309 1129 1309 1057 1309 c 1,47,-1
 1071 1356 l 1,48,-1
 1554 1356 l 1,0,-1
EndSplineSet
EndChar
StartChar: L
Encoding: 76 76 47
Width: 1139
Flags: W
Fore
1079 385 m 1,0,-1
 967 0 l 1,1,-1
 -49 0 l 1,2,-1
 -37 47 l 1,3,4
 75 47 75 47 111 79 c 128,-1,5
 147 111 147 111 188 254 c 2,6,-1
 424 1063 l 2,7,8
 459 1180 459 1180 459 1239 c 0,9,10
 459 1274 459 1274 432.5 1291.5 c 128,-1,11
 406 1309 406 1309 303 1309 c 1,12,-1
 315 1356 l 1,13,-1
 862 1356 l 1,14,-1
 850 1309 l 1,15,-1
 807 1309 l 2,16,17
 746 1309 746 1309 703 1274.5 c 128,-1,18
 660 1240 660 1240 631 1139 c 2,19,-1
 387 289 l 2,20,21
 352 163 352 163 352 141 c 0,22,23
 352 93 352 93 383.5 82.5 c 128,-1,24
 415 72 415 72 512 72 c 0,25,26
 693 72 693 72 782.5 91.5 c 128,-1,27
 872 111 872 111 928.5 175.5 c 128,-1,28
 985 240 985 240 1032 385 c 1,29,-1
 1079 385 l 1,0,-1
EndSplineSet
KernsSLIFO: 183 -76 0 0 92 -61 0 0 60 -41 0 0 58 -76 0 0 57 -76 0 0 55 -41 0 0 3 -37 0 0
EndChar
StartChar: M
Encoding: 77 77 48
Width: 1706
Flags: W
Fore
1888 1356 m 1,0,-1
 1876 1309 l 1,1,-1
 1833 1309 l 2,2,3
 1772 1309 1772 1309 1729 1274.5 c 128,-1,4
 1686 1240 1686 1240 1657 1139 c 2,5,-1
 1413 289 l 2,6,7
 1374 149 1374 149 1374 125 c 0,8,9
 1374 88 1374 88 1402 67.5 c 128,-1,10
 1430 47 1430 47 1536 47 c 1,11,-1
 1524 0 l 1,12,-1
 977 0 l 1,13,-1
 989 47 l 1,14,15
 1101 47 1101 47 1137 79 c 128,-1,16
 1173 111 1173 111 1214 254 c 2,17,-1
 1456 1094 l 1,18,-1
 1452 1096 l 1,19,-1
 674 0 l 1,20,-1
 637 0 l 1,21,-1
 510 1098 l 1,22,-1
 506 1098 l 1,23,-1
 274 289 l 2,24,25
 236 149 236 149 236 125 c 0,26,27
 236 88 236 88 263.5 67.5 c 128,-1,28
 291 47 291 47 397 47 c 1,29,-1
 385 0 l 1,30,-1
 -49 0 l 1,31,-1
 -37 47 l 1,32,33
 75 47 75 47 111 79 c 128,-1,34
 147 111 147 111 188 254 c 2,35,-1
 477 1245 l 1,36,37
 423 1309 423 1309 303 1309 c 1,38,-1
 315 1356 l 1,39,-1
 664 1356 l 1,40,-1
 788 281 l 1,41,-1
 1554 1356 l 1,42,-1
 1888 1356 l 1,0,-1
EndSplineSet
EndChar
StartChar: N
Encoding: 78 78 49
Width: 1366
Flags: W
Fore
1559 1356 m 1,0,-1
 1546 1309 l 1,1,-1
 1503 1309 l 2,2,3
 1442 1309 1442 1309 1399 1274.5 c 128,-1,4
 1356 1240 1356 1240 1327 1139 c 2,5,-1
 993 -31 l 1,6,-1
 956 -31 l 1,7,-1
 516 1092 l 1,8,-1
 512 1092 l 1,9,-1
 285 289 l 2,10,11
 246 149 246 149 246 125 c 0,12,13
 246 88 246 88 273.5 67.5 c 128,-1,14
 301 47 301 47 408 47 c 1,15,-1
 395 0 l 1,16,-1
 -49 0 l 1,17,-1
 -37 47 l 1,18,19
 43 47 43 47 78.5 59 c 128,-1,20
 114 71 114 71 137 113 c 128,-1,21
 160 155 160 155 188 254 c 2,22,-1
 459 1210 l 1,23,24
 422 1272 422 1272 371.5 1290.5 c 128,-1,25
 321 1309 321 1309 236 1309 c 1,26,-1
 248 1356 l 1,27,-1
 604 1356 l 1,28,-1
 1004 340 l 1,29,-1
 1008 340 l 1,30,-1
 1217 1063 l 2,31,32
 1251 1180 1251 1180 1251 1239 c 0,33,34
 1251 1287 1251 1287 1218 1298 c 128,-1,35
 1185 1309 1185 1309 1096 1309 c 1,36,-1
 1108 1356 l 1,37,-1
 1559 1356 l 1,0,-1
EndSplineSet
EndChar
StartChar: O
Encoding: 79 79 50
Width: 1479
Flags: W
Fore
997 1386 m 0,0,1
 1219 1386 1219 1386 1343.5 1248.5 c 128,-1,2
 1468 1111 1468 1111 1468 911 c 0,3,4
 1468 715 1468 715 1352 482 c 128,-1,5
 1236 249 1236 249 1034.5 109 c 128,-1,6
 833 -31 833 -31 582 -31 c 0,7,8
 355 -31 355 -31 236 115 c 128,-1,9
 117 261 117 261 117 449 c 0,10,11
 117 657 117 657 242.5 883 c 128,-1,12
 368 1109 368 1109 572 1247.5 c 128,-1,13
 776 1386 776 1386 997 1386 c 0,0,1
616 43 m 0,14,15
 778 43 778 43 922 185.5 c 128,-1,16
 1066 328 1066 328 1155.5 559 c 128,-1,17
 1245 790 1245 790 1245 973 c 0,18,19
 1245 1126 1245 1126 1174.5 1219.5 c 128,-1,20
 1104 1313 1104 1313 975 1313 c 0,21,22
 806 1313 806 1313 661 1174.5 c 128,-1,23
 516 1036 516 1036 428 809 c 128,-1,24
 340 582 340 582 340 399 c 0,25,26
 340 236 340 236 411.5 139.5 c 128,-1,27
 483 43 483 43 616 43 c 0,14,15
EndSplineSet
EndChar
StartChar: P
Encoding: 80 80 51
Width: 1251
Flags: W
Fore
315 1356 m 1,0,-1
 864 1356 l 2,1,2
 1059 1356 1059 1356 1162.5 1260.5 c 128,-1,3
 1266 1165 1266 1165 1266 1022 c 0,4,5
 1266 825 1266 825 1089.5 695 c 128,-1,6
 913 565 913 565 672 565 c 2,7,-1
 467 565 l 1,8,-1
 372 236 l 2,9,10
 348 154 348 154 348 125 c 0,11,12
 348 88 348 88 376 67.5 c 128,-1,13
 404 47 404 47 510 47 c 1,14,-1
 498 0 l 1,15,-1
 -49 0 l 1,16,-1
 -37 47 l 1,17,18
 75 47 75 47 111 79 c 128,-1,19
 147 111 147 111 188 254 c 2,20,-1
 424 1063 l 2,21,22
 459 1180 459 1180 459 1239 c 0,23,24
 459 1274 459 1274 432.5 1291.5 c 128,-1,25
 406 1309 406 1309 303 1309 c 1,26,-1
 315 1356 l 1,0,-1
487 637 m 1,27,-1
 641 637 l 2,28,29
 841 637 841 637 951 772.5 c 128,-1,30
 1061 908 1061 908 1061 1047 c 0,31,32
 1061 1284 1061 1284 815 1284 c 0,33,34
 756 1284 756 1284 668 1266 c 1,35,-1
 487 637 l 1,27,-1
EndSplineSet
KernsSLIFO: 36 -264 0 0 17 -264 0 0 15 -264 0 0 3 -37 0 0
EndChar
StartChar: Q
Encoding: 81 81 52
Width: 1479
Flags: W
Fore
563 -31 m 1,0,1
 339 -22 339 -22 228 124 c 128,-1,2
 117 270 117 270 117 449 c 0,3,4
 117 657 117 657 242.5 883 c 128,-1,5
 368 1109 368 1109 572 1247.5 c 128,-1,6
 776 1386 776 1386 997 1386 c 0,7,8
 1219 1386 1219 1386 1343.5 1248.5 c 128,-1,9
 1468 1111 1468 1111 1468 911 c 0,10,11
 1468 655 1468 655 1286.5 370.5 c 128,-1,12
 1105 86 1105 86 793 -4 c 1,13,14
 942 -197 942 -197 1034.5 -258 c 128,-1,15
 1127 -319 1127 -319 1233 -319 c 0,16,17
 1265 -319 1265 -319 1307 -311 c 1,18,-1
 1292 -365 l 1,19,20
 1177 -389 1177 -389 1081 -389 c 0,21,22
 970 -389 970 -389 894.5 -357.5 c 128,-1,23
 819 -326 819 -326 770.5 -278 c 128,-1,24
 722 -230 722 -230 656 -144 c 0,25,26
 596 -66 596 -66 563 -31 c 1,0,1
616 43 m 0,27,28
 778 43 778 43 922 185.5 c 128,-1,29
 1066 328 1066 328 1155.5 559 c 128,-1,30
 1245 790 1245 790 1245 973 c 0,31,32
 1245 1126 1245 1126 1174.5 1219.5 c 128,-1,33
 1104 1313 1104 1313 975 1313 c 0,34,35
 806 1313 806 1313 661 1174.5 c 128,-1,36
 516 1036 516 1036 428 809 c 128,-1,37
 340 582 340 582 340 399 c 0,38,39
 340 236 340 236 411.5 139.5 c 128,-1,40
 483 43 483 43 616 43 c 0,27,28
EndSplineSet
EndChar
StartChar: R
Encoding: 82 82 53
Width: 1251
Flags: W
Fore
1235 47 m 1,0,-1
 1221 0 l 1,1,2
 1154 -20 1154 -20 1030 -20 c 0,3,4
 894 -20 894 -20 815 137 c 128,-1,5
 736 294 736 294 645 602 c 1,6,-1
 475 602 l 1,7,-1
 372 237 l 2,8,9
 348 154 348 154 348 125 c 0,10,11
 348 88 348 88 376 67.5 c 128,-1,12
 404 47 404 47 510 47 c 1,13,-1
 498 0 l 1,14,-1
 -49 0 l 1,15,-1
 -37 47 l 1,16,17
 75 47 75 47 111 79 c 128,-1,18
 147 111 147 111 188 254 c 2,19,-1
 424 1063 l 2,20,21
 459 1180 459 1180 459 1239 c 0,22,23
 459 1274 459 1274 432.5 1291.5 c 128,-1,24
 406 1309 406 1309 303 1309 c 1,25,-1
 315 1356 l 1,26,-1
 770 1356 l 2,27,28
 962 1356 962 1356 1071 1267.5 c 128,-1,29
 1180 1179 1180 1179 1180 1034 c 0,30,31
 1180 876 1180 876 1089 768 c 128,-1,32
 998 660 998 660 827 616 c 1,33,34
 944 252 944 252 1023.5 147.5 c 128,-1,35
 1103 43 1103 43 1178 43 c 0,36,37
 1193 43 1193 43 1235 47 c 1,0,-1
494 668 m 1,38,-1
 602 668 l 2,39,40
 770 668 770 668 869.5 769.5 c 128,-1,41
 969 871 969 871 969 1032 c 0,42,43
 969 1149 969 1149 904.5 1216.5 c 128,-1,44
 840 1284 840 1284 735 1284 c 0,45,46
 703 1284 703 1284 670 1278 c 1,47,-1
 494 668 l 1,38,-1
EndSplineSet
KernsSLIFO: 92 -37 0 0 60 -37 0 0 58 -37 0 0 57 -37 0 0
EndChar
StartChar: S
Encoding: 83 83 54
Width: 1024
Flags: W
Fore
1108 1386 m 1,0,-1
 1014 983 l 1,1,-1
 967 983 l 1,2,3
 973 1027 973 1027 973 1065 c 0,4,5
 973 1193 973 1193 893 1254 c 128,-1,6
 813 1315 813 1315 678 1315 c 0,7,8
 589 1315 589 1315 524 1256 c 128,-1,9
 459 1197 459 1197 459 1108 c 0,10,11
 459 1050 459 1050 494.5 983 c 128,-1,12
 530 916 530 916 671 781 c 0,13,14
 833 626 833 626 876.5 539.5 c 128,-1,15
 920 453 920 453 920 375 c 0,16,17
 920 197 920 197 794 83 c 128,-1,18
 668 -31 668 -31 483 -31 c 0,19,20
 382 -31 382 -31 250 9 c 0,21,22
 177 31 177 31 145 31 c 0,23,24
 86 31 86 31 59 -31 c 1,25,-1
 12 -31 l 1,26,-1
 96 399 l 1,27,-1
 143 399 l 1,28,29
 137 364 137 364 137 324 c 0,30,31
 137 190 137 190 227 115.5 c 128,-1,32
 317 41 317 41 471 41 c 0,33,34
 583 41 583 41 654 116.5 c 128,-1,35
 725 192 725 192 725 305 c 0,36,37
 725 366 725 366 689 437 c 128,-1,38
 653 508 653 508 513 651 c 0,39,40
 360 807 360 807 319.5 890.5 c 128,-1,41
 279 974 279 974 279 1049 c 0,42,43
 279 1194 279 1194 391.5 1290 c 128,-1,44
 504 1386 504 1386 659 1386 c 0,45,46
 773 1386 773 1386 899 1350 c 0,47,48
 950 1335 950 1335 969 1335 c 0,49,50
 1033 1335 1033 1335 1061 1386 c 1,51,-1
 1108 1386 l 1,0,-1
EndSplineSet
EndChar
StartChar: T
Encoding: 84 84 55
Width: 1139
Flags: W
Fore
1333 1356 m 1,0,-1
 1225 997 l 1,1,-1
 1178 997 l 1,2,3
 1200 1110 1200 1110 1200 1159 c 0,4,5
 1200 1212 1200 1212 1164.5 1243 c 128,-1,6
 1129 1274 1129 1274 1063 1274 c 2,7,-1
 885 1274 l 1,8,-1
 584 227 l 2,9,10
 565 157 565 157 565 123 c 0,11,12
 565 85 565 85 589 68.5 c 128,-1,13
 613 52 613 52 643.5 49.5 c 128,-1,14
 674 47 674 47 756 47 c 1,15,-1
 743 0 l 1,16,-1
 143 0 l 1,17,-1
 156 47 l 1,18,19
 271 47 271 47 315 78 c 128,-1,20
 359 109 359 109 393 225 c 2,21,-1
 700 1274 l 1,22,-1
 537 1274 l 2,23,24
 330 1274 330 1274 256 997 c 1,25,-1
 209 997 l 1,26,-1
 305 1356 l 1,27,-1
 1333 1356 l 1,0,-1
EndSplineSet
KernsSLIFO: 92 -152 0 0 90 -152 0 0 88 -113 0 0 86 -188 0 0 85 -113 0 0 82 -188 0 0 76 -113 0 0 72 -188 0 0 70 -188 0 0 68 -188 0 0 50 -37 0 0 36 -152 0 0 30 -133 0 0 29 -113 0 0 17 -152 0 0 16 -152 0 0 15 -152 0 0 3 -37 0 0
EndChar
StartChar: U
Encoding: 85 85 56
Width: 1479
Flags: W
Fore
1669 1356 m 1,0,-1
 1657 1309 l 1,1,2
 1575 1309 1575 1309 1536.5 1291 c 128,-1,3
 1498 1273 1498 1273 1478 1231 c 128,-1,4
 1458 1189 1458 1189 1427 1083 c 2,5,-1
 1272 553 l 2,6,7
 1203 318 1203 318 1129 210 c 128,-1,8
 1055 102 1055 102 975 50.5 c 128,-1,9
 895 -1 895 -1 823 -16 c 128,-1,10
 751 -31 751 -31 676 -31 c 0,11,12
 465 -31 465 -31 343 86 c 128,-1,13
 221 203 221 203 221 354 c 0,14,15
 221 427 221 427 239.5 509 c 128,-1,16
 258 591 258 591 317 793 c 0,17,18
 389 1036 389 1036 410.5 1115 c 128,-1,19
 432 1194 432 1194 432 1231 c 0,20,21
 432 1284 432 1284 393 1296.5 c 128,-1,22
 354 1309 354 1309 258 1309 c 1,23,-1
 272 1356 l 1,24,-1
 854 1356 l 1,25,-1
 842 1309 l 1,26,27
 749 1309 749 1309 704 1287.5 c 128,-1,28
 659 1266 659 1266 639.5 1225.5 c 128,-1,29
 620 1185 620 1185 568 1009 c 2,30,-1
 460 642 l 2,31,32
 403 450 403 450 403 350 c 0,33,34
 403 217 403 217 493.5 138 c 128,-1,35
 584 59 584 59 727 59 c 0,36,37
 852 59 852 59 948 137 c 128,-1,38
 1044 215 1044 215 1109 355.5 c 128,-1,39
 1174 496 1174 496 1215.5 649 c 128,-1,40
 1257 802 1257 802 1313.5 991.5 c 128,-1,41
 1370 1181 1370 1181 1370 1233 c 0,42,43
 1370 1269 1370 1269 1339.5 1289 c 128,-1,44
 1309 1309 1309 1309 1217 1309 c 1,45,-1
 1229 1356 l 1,46,-1
 1669 1356 l 1,0,-1
EndSplineSet
EndChar
StartChar: V
Encoding: 86 86 57
Width: 1251
Flags: W
Fore
1513 1356 m 1,0,-1
 1501 1309 l 1,1,2
 1439 1309 1439 1309 1387 1283 c 128,-1,3
 1335 1257 1335 1257 1270 1149 c 2,4,-1
 559 -31 l 1,5,-1
 502 -31 l 1,6,-1
 340 1200 l 2,7,8
 332 1260 332 1260 293.5 1284.5 c 128,-1,9
 255 1309 255 1309 170 1309 c 1,10,-1
 182 1356 l 1,11,-1
 721 1356 l 1,12,-1
 709 1309 l 1,13,14
 609 1309 609 1309 566.5 1289.5 c 128,-1,15
 524 1270 524 1270 524 1210 c 0,16,17
 524 1192 524 1192 526 1171 c 2,18,-1
 643 262 l 1,19,-1
 1174 1155 l 2,20,21
 1202 1206 1202 1206 1202 1243 c 0,22,23
 1202 1309 1202 1309 1083 1309 c 1,24,-1
 1096 1356 l 1,25,-1
 1513 1356 l 1,0,-1
EndSplineSet
KernsSLIFO: 92 -188 0 0 88 -152 0 0 85 -152 0 0 82 -227 0 0 76 -152 0 0 72 -227 0 0 68 -227 0 0 50 -61 0 0 36 -152 0 0 30 -152 0 0 29 -133 0 0 17 -264 0 0 16 -113 0 0 15 -264 0 0 3 -37 0 0
EndChar
StartChar: W
Encoding: 87 87 58
Width: 1706
Flags: W
Fore
1999 1356 m 1,0,-1
 1987 1309 l 1,1,2
 1891 1309 1891 1309 1830 1245 c 128,-1,3
 1769 1181 1769 1181 1663 997 c 2,4,-1
 1069 -31 l 1,5,-1
 1032 -31 l 1,6,-1
 997 971 l 1,7,-1
 418 -31 l 1,8,-1
 381 -31 l 1,9,-1
 340 1188 l 2,10,11
 337 1250 337 1250 306 1279.5 c 128,-1,12
 275 1309 275 1309 195 1309 c 1,13,-1
 207 1356 l 1,14,-1
 717 1356 l 1,15,-1
 705 1309 l 1,16,17
 598 1309 598 1309 558 1286 c 128,-1,18
 518 1263 518 1263 518 1198 c 2,19,-1
 543 344 l 1,20,-1
 1128 1356 l 1,21,-1
 1165 1356 l 1,22,-1
 1194 344 l 1,23,-1
 1571 997 l 2,24,25
 1641 1120 1641 1120 1660 1166.5 c 128,-1,26
 1679 1213 1679 1213 1679 1249 c 0,27,28
 1679 1309 1679 1309 1581 1309 c 1,29,-1
 1593 1356 l 1,30,-1
 1999 1356 l 1,0,-1
EndSplineSet
KernsSLIFO: 92 -188 0 0 88 -113 0 0 85 -113 0 0 82 -188 0 0 76 -113 0 0 72 -188 0 0 68 -188 0 0 36 -143 0 0 30 -133 0 0 29 -133 0 0 17 -188 0 0 16 -76 0 0 15 -188 0 0
EndChar
StartChar: X
Encoding: 88 88 59
Width: 1251
Flags: W
Fore
1511 1356 m 1,0,-1
 1499 1309 l 1,1,2
 1349 1298 1349 1298 1205 1150 c 2,3,-1
 788 723 l 1,4,5
 909 286 909 286 930 219 c 128,-1,6
 951 152 951 152 1003 99.5 c 128,-1,7
 1055 47 1055 47 1159 47 c 1,8,-1
 1147 0 l 1,9,-1
 604 0 l 1,10,-1
 616 47 l 1,11,12
 762 47 762 47 762 121 c 0,13,14
 762 146 762 146 738 232 c 2,15,-1
 643 575 l 1,16,-1
 381 307 l 2,17,18
 272 195 272 195 245.5 162 c 128,-1,19
 219 129 219 129 219 102 c 0,20,21
 219 47 219 47 336 47 c 1,22,-1
 324 0 l 1,23,-1
 -141 0 l 1,24,-1
 -129 47 l 1,25,26
 -50 47 -50 47 32 95.5 c 128,-1,27
 114 144 114 144 217 250 c 2,28,-1
 616 659 l 1,29,30
 487 1121 487 1121 471.5 1173 c 128,-1,31
 456 1225 456 1225 417 1267 c 128,-1,32
 378 1309 378 1309 293 1309 c 1,33,-1
 305 1356 l 1,34,-1
 799 1356 l 1,35,-1
 786 1309 l 1,36,37
 649 1309 649 1309 649 1241 c 0,38,39
 649 1218 649 1218 764 807 c 1,40,-1
 1005 1059 l 2,41,42
 1079 1136 1079 1136 1114 1186 c 128,-1,43
 1149 1236 1149 1236 1149 1262 c 0,44,45
 1149 1309 1149 1309 1028 1309 c 1,46,-1
 1040 1356 l 1,47,-1
 1511 1356 l 1,0,-1
EndSplineSet
EndChar
StartChar: Y
Encoding: 89 89 60
Width: 1139
Flags: W
Fore
1376 1356 m 1,0,-1
 1364 1309 l 1,1,2
 1319 1309 1319 1309 1283 1296 c 0,3,4
 1245 1282 1245 1282 1209 1251 c 0,5,6
 1172 1219 1172 1219 1128 1163 c 2,7,-1
 861 794 l 2,8,9
 743 631 743 631 724 565 c 2,10,-1
 638 276 l 2,11,12
 606 169 606 169 606 123 c 0,13,14
 606 85 606 85 630 68.5 c 128,-1,15
 654 52 654 52 680.5 49.5 c 128,-1,16
 707 47 707 47 776 47 c 1,17,-1
 764 0 l 1,18,-1
 184 0 l 1,19,-1
 197 47 l 1,20,21
 304 47 304 47 339.5 65.5 c 128,-1,22
 375 84 375 84 393 120 c 128,-1,23
 411 156 411 156 431 222 c 2,24,-1
 565 659 l 1,25,-1
 406 1176 l 2,26,27
 384 1248 384 1248 347 1278.5 c 128,-1,28
 310 1309 310 1309 233 1309 c 1,29,-1
 246 1356 l 1,30,-1
 754 1356 l 1,31,-1
 741 1309 l 1,32,33
 654 1309 654 1309 620 1295 c 128,-1,34
 586 1281 586 1281 586 1229 c 0,35,36
 586 1185 586 1185 618 1078 c 2,37,-1
 725 733 l 1,38,-1
 978 1089 l 2,39,40
 1031 1163 1031 1163 1052 1202.5 c 128,-1,41
 1073 1242 1073 1242 1073 1262 c 0,42,43
 1073 1285 1073 1285 1044.5 1297 c 128,-1,44
 1016 1309 1016 1309 928 1309 c 1,45,-1
 940 1356 l 1,46,-1
 1376 1356 l 1,0,-1
EndSplineSet
KernsSLIFO: 89 -188 0 0 88 -188 0 0 84 -227 0 0 83 -188 0 0 82 -188 0 0 76 -152 0 0 72 -188 0 0 68 -188 0 0 36 -143 0 0 30 -133 0 0 29 -133 0 0 17 -188 0 0 16 -152 0 0 15 -188 0 0
EndChar
StartChar: Z
Encoding: 90 90 61
Width: 1139
Flags: W
Fore
1255 1319 m 1,0,-1
 262 72 l 1,1,-1
 639 72 l 2,2,3
 760 72 760 72 829 91.5 c 128,-1,4
 898 111 898 111 949.5 172 c 128,-1,5
 1001 233 1001 233 1047 358 c 1,6,-1
 1094 358 l 1,7,-1
 975 0 l 1,8,-1
 0 0 l 1,9,-1
 0 29 l 1,10,-1
 997 1284 l 1,11,-1
 598 1284 l 2,12,13
 437 1284 437 1284 376 1242 c 128,-1,14
 315 1200 315 1200 260 1047 c 1,15,-1
 213 1047 l 1,16,-1
 313 1356 l 1,17,-1
 1255 1356 l 1,18,-1
 1255 1319 l 1,0,-1
EndSplineSet
EndChar
StartChar: bracketleft
Encoding: 91 91 62
Width: 797
Flags: W
Fore
1044 1386 m 1,0,-1
 1020 1303 l 1,1,-1
 739 1303 l 1,2,-1
 260 -322 l 1,3,-1
 543 -322 l 1,4,-1
 518 -406 l 1,5,-1
 92 -406 l 1,6,-1
 618 1386 l 1,7,-1
 1044 1386 l 1,0,-1
EndSplineSet
EndChar
StartChar: backslash
Encoding: 92 92 63
Width: 569
Flags: W
Fore
471 -31 m 1,0,-1
 397 -31 l 1,1,-1
 215 1421 l 1,2,-1
 287 1421 l 1,3,-1
 471 -31 l 1,0,-1
EndSplineSet
EndChar
StartChar: bracketright
Encoding: 93 93 64
Width: 797
Flags: W
Fore
750 1386 m 1,0,-1
 223 -406 l 1,1,-1
 -203 -406 l 1,2,-1
 -178 -322 l 1,3,-1
 102 -322 l 1,4,-1
 582 1303 l 1,5,-1
 299 1303 l 1,6,-1
 324 1386 l 1,7,-1
 750 1386 l 1,0,-1
EndSplineSet
EndChar
StartChar: asciicircum
Encoding: 94 94 65
Width: 864
Flags: W
Fore
937 662 m 1,0,-1
 843 662 l 1,1,-1
 493 1251 l 1,2,-1
 143 662 l 1,3,-1
 49 662 l 1,4,-1
 475 1380 l 1,5,-1
 511 1380 l 1,6,-1
 937 662 l 1,0,-1
EndSplineSet
EndChar
StartChar: underscore
Encoding: 95 95 66
Width: 1024
Flags: W
Fore
1040 -442 m 1,0,-1
 -16 -442 l 1,1,-1
 -16 -358 l 1,2,-1
 1040 -358 l 1,3,-1
 1040 -442 l 1,0,-1
EndSplineSet
EndChar
StartChar: grave
Encoding: 96 96 67
Width: 682
Flags: W
Fore
590 1051 m 1,0,-1
 553 1051 l 1,1,-1
 299 1348 l 1,2,-1
 524 1348 l 1,3,-1
 590 1051 l 1,0,-1
EndSplineSet
EndChar
StartChar: a
Encoding: 97 97 68
Width: 1024
Flags: W
Fore
989 932 m 1,0,-1
 788 190 l 2,1,2
 772 129 772 129 772 106 c 0,3,4
 772 95 772 95 781.5 85.5 c 128,-1,5
 791 76 791 76 803 76 c 0,6,7
 833 76 833 76 875 106.5 c 128,-1,8
 917 137 917 137 946 178 c 1,9,-1
 979 154 l 1,10,11
 857 -25 857 -25 696 -25 c 0,12,13
 655 -25 655 -25 628.5 -2.5 c 128,-1,14
 602 20 602 20 602 57 c 0,15,16
 602 91 602 91 649 258 c 1,17,18
 581 134 581 134 480 54.5 c 128,-1,19
 379 -25 379 -25 283 -25 c 0,20,21
 188 -25 188 -25 129 49 c 128,-1,22
 70 123 70 123 70 244 c 0,23,24
 70 514 70 514 245 739.5 c 128,-1,25
 420 965 420 965 645 965 c 0,26,27
 767 965 767 965 807 846 c 1,28,-1
 829 932 l 1,29,-1
 989 932 l 1,0,-1
778 737 m 2,30,31
 781 749 781 749 768.5 788 c 128,-1,32
 756 827 756 827 739.5 851.5 c 128,-1,33
 723 876 723 876 700 890.5 c 128,-1,34
 677 905 677 905 647 905 c 0,35,36
 506 905 506 905 376 695 c 128,-1,37
 246 485 246 485 246 268 c 0,38,39
 246 94 246 94 354 94 c 0,40,41
 409 94 409 94 470.5 138.5 c 128,-1,42
 532 183 532 183 609.5 290.5 c 128,-1,43
 687 398 687 398 692 418 c 2,44,-1
 778 737 l 2,30,31
EndSplineSet
EndChar
StartChar: b
Encoding: 98 98 69
Width: 1024
Flags: W
Fore
424 735 m 1,0,1
 589 965 589 965 774 965 c 0,2,3
 869 965 869 965 928 891 c 128,-1,4
 987 817 987 817 987 696 c 0,5,6
 987 426 987 426 812 200.5 c 128,-1,7
 637 -25 637 -25 412 -25 c 0,8,9
 294 -25 294 -25 207 53 c 1,10,-1
 117 0 l 1,11,-1
 66 0 l 1,12,-1
 379 1163 l 2,13,14
 401 1249 401 1249 401 1280 c 0,15,16
 401 1292 401 1292 382 1303.5 c 128,-1,17
 363 1315 363 1315 262 1319 c 1,18,-1
 262 1362 l 1,19,-1
 567 1421 l 1,20,-1
 608 1421 l 1,21,-1
 424 735 l 1,0,1
258 123 m 1,22,23
 323 35 323 35 410 35 c 0,24,25
 551 35 551 35 681 245 c 128,-1,26
 811 455 811 455 811 672 c 0,27,28
 811 846 811 846 702 846 c 0,29,30
 652 846 652 846 599.5 817.5 c 128,-1,31
 547 789 547 789 492 733 c 0,32,33
 397 637 397 637 384 589 c 2,34,-1
 258 123 l 1,22,23
EndSplineSet
EndChar
StartChar: c
Encoding: 99 99 70
Width: 909
Flags: W
Fore
344 -25 m 0,0,1
 212 -25 212 -25 141 52.5 c 128,-1,2
 70 130 70 130 70 272 c 0,3,4
 70 424 70 424 160 590 c 128,-1,5
 250 756 250 756 390 860.5 c 128,-1,6
 530 965 530 965 666 965 c 0,7,8
 765 965 765 965 826 916.5 c 128,-1,9
 887 868 887 868 887 795 c 0,10,11
 887 700 887 700 819 700 c 0,12,13
 740 700 740 700 721 823 c 0,14,15
 707 905 707 905 651 905 c 0,16,17
 499 905 499 905 372.5 696.5 c 128,-1,18
 246 488 246 488 246 293 c 0,19,20
 246 191 246 191 293 135.5 c 128,-1,21
 340 80 340 80 424 80 c 0,22,23
 573 80 573 80 735 195 c 1,24,-1
 758 156 l 1,25,26
 585 -25 585 -25 344 -25 c 0,0,1
EndSplineSet
EndChar
StartChar: d
Encoding: 100 100 71
Width: 1024
Flags: W
Fore
1120 1421 m 1,0,-1
 788 190 l 2,1,2
 772 129 772 129 772 106 c 0,3,4
 772 95 772 95 781.5 85.5 c 128,-1,5
 791 76 791 76 803 76 c 0,6,7
 833 76 833 76 875 106.5 c 128,-1,8
 917 137 917 137 946 178 c 1,9,-1
 979 154 l 1,10,11
 857 -25 857 -25 696 -25 c 0,12,13
 655 -25 655 -25 628.5 -2.5 c 128,-1,14
 602 20 602 20 602 57 c 0,15,16
 602 91 602 91 649 258 c 1,17,18
 581 134 581 134 480 54.5 c 128,-1,19
 379 -25 379 -25 283 -25 c 0,20,21
 188 -25 188 -25 129 49 c 128,-1,22
 70 123 70 123 70 244 c 0,23,24
 70 514 70 514 245 739.5 c 128,-1,25
 420 965 420 965 645 965 c 0,26,27
 767 965 767 965 807 846 c 1,28,29
 895 1174 895 1174 904 1221 c 128,-1,30
 913 1268 913 1268 913 1280 c 0,31,32
 913 1292 913 1292 894 1303.5 c 128,-1,33
 875 1315 875 1315 774 1319 c 1,34,-1
 774 1362 l 1,35,-1
 1079 1421 l 1,36,-1
 1120 1421 l 1,0,-1
778 737 m 2,37,38
 781 749 781 749 768.5 788 c 128,-1,39
 756 827 756 827 739.5 851.5 c 128,-1,40
 723 876 723 876 700 890.5 c 128,-1,41
 677 905 677 905 647 905 c 0,42,43
 506 905 506 905 376 695 c 128,-1,44
 246 485 246 485 246 268 c 0,45,46
 246 94 246 94 354 94 c 0,47,48
 409 94 409 94 470.5 138.5 c 128,-1,49
 532 183 532 183 609.5 290.5 c 128,-1,50
 687 398 687 398 692 418 c 2,51,-1
 778 737 l 2,37,38
EndSplineSet
EndChar
StartChar: e
Encoding: 101 101 72
Width: 909
Flags: W
Fore
344 -25 m 0,0,1
 211 -25 211 -25 140.5 53 c 128,-1,2
 70 131 70 131 70 274 c 0,3,4
 70 425 70 425 160 591 c 128,-1,5
 250 757 250 757 391.5 861 c 128,-1,6
 533 965 533 965 674 965 c 0,7,8
 887 965 887 965 887 799 c 0,9,10
 887 648 887 648 717 537 c 128,-1,11
 547 426 547 426 256 403 c 1,12,13
 246 337 246 337 246 293 c 0,14,15
 246 194 246 194 293 137 c 128,-1,16
 340 80 340 80 424 80 c 0,17,18
 573 80 573 80 735 195 c 1,19,-1
 758 156 l 1,20,21
 585 -25 585 -25 344 -25 c 0,0,1
270 465 m 1,22,23
 497 485 497 485 609 583 c 128,-1,24
 721 681 721 681 721 795 c 0,25,26
 721 905 721 905 651 905 c 0,27,28
 536 905 536 905 424 768.5 c 128,-1,29
 312 632 312 632 270 465 c 1,22,23
EndSplineSet
EndChar
StartChar: f
Encoding: 102 102 73
Width: 569
Flags: W
Fore
326 932 m 1,0,1
 377 1104 377 1104 406.5 1163.5 c 128,-1,2
 436 1223 436 1223 491.5 1285.5 c 128,-1,3
 547 1348 547 1348 612 1384.5 c 128,-1,4
 677 1421 677 1421 741 1421 c 0,5,6
 828 1421 828 1421 878 1376.5 c 128,-1,7
 928 1332 928 1332 928 1262 c 0,8,9
 928 1225 928 1225 908.5 1203.5 c 128,-1,10
 889 1182 889 1182 860 1182 c 0,11,12
 790 1182 790 1182 776 1290 c 0,13,14
 765 1362 765 1362 715 1362 c 0,15,16
 672 1362 672 1362 635 1320.5 c 128,-1,17
 598 1279 598 1279 577.5 1224 c 128,-1,18
 557 1169 557 1169 492 932 c 1,19,-1
 668 932 l 1,20,-1
 651 866 l 1,21,-1
 475 866 l 1,22,-1
 282 194 l 2,23,24
 225 -6 225 -6 152 -144 c 128,-1,25
 79 -282 79 -282 -2 -352 c 128,-1,26
 -83 -422 -83 -422 -168 -422 c 0,27,28
 -249 -422 -249 -422 -301.5 -384.5 c 128,-1,29
 -354 -347 -354 -347 -354 -295 c 0,30,31
 -354 -265 -354 -265 -335.5 -244 c 128,-1,32
 -317 -223 -317 -223 -289 -223 c 0,33,34
 -264 -223 -264 -223 -242.5 -239 c 128,-1,35
 -221 -255 -221 -255 -193 -307 c 0,36,37
 -165 -362 -165 -362 -129 -362 c 0,38,39
 -30 -362 -30 -362 61 -33 c 2,40,-1
 311 866 l 1,41,-1
 154 866 l 1,42,-1
 170 932 l 1,43,-1
 326 932 l 1,0,1
EndSplineSet
KernsSLIFO: 183 188 0 0
EndChar
StartChar: g
Encoding: 103 103 74
Width: 1024
Flags: W
Fore
1049 901 m 1,0,-1
 1018 799 l 1,1,-1
 883 799 l 1,2,3
 901 744 901 744 901 702 c 0,4,5
 901 549 901 549 782 450.5 c 128,-1,6
 663 352 663 352 498 348 c 1,7,8
 291 250 291 250 291 213 c 0,9,10
 291 188 291 188 325 170 c 128,-1,11
 359 152 359 152 502 131 c 0,12,13
 748 95 748 95 821.5 38 c 128,-1,14
 895 -19 895 -19 895 -102 c 0,15,16
 895 -248 895 -248 735 -340 c 128,-1,17
 575 -432 575 -432 360 -432 c 0,18,19
 196 -432 196 -432 82.5 -374 c 128,-1,20
 -31 -316 -31 -316 -31 -215 c 0,21,22
 -31 -99 -31 -99 244 23 c 1,23,24
 150 79 150 79 150 152 c 0,25,26
 150 241 150 241 391 346 c 1,27,28
 291 369 291 369 228.5 435.5 c 128,-1,29
 166 502 166 502 166 596 c 0,30,31
 166 747 166 747 286 856 c 128,-1,32
 406 965 406 965 612 965 c 0,33,34
 729 965 729 965 819 901 c 1,35,-1
 1049 901 l 1,0,-1
492 403 m 0,36,37
 598 403 598 403 661.5 508 c 128,-1,38
 725 613 725 613 725 745 c 0,39,40
 725 909 725 909 582 909 c 0,41,42
 476 909 476 909 409 802 c 128,-1,43
 342 695 342 695 342 565 c 0,44,45
 342 497 342 497 383.5 450 c 128,-1,46
 425 403 425 403 492 403 c 0,36,37
721 -178 m 0,47,48
 721 -100 721 -100 642.5 -62 c 128,-1,49
 564 -24 564 -24 307 8 c 1,50,51
 224 -33 224 -33 175.5 -92 c 128,-1,52
 127 -151 127 -151 127 -209 c 0,53,54
 127 -275 127 -275 197 -315.5 c 128,-1,55
 267 -356 267 -356 373 -356 c 0,56,57
 521 -356 521 -356 621 -307 c 128,-1,58
 721 -258 721 -258 721 -178 c 0,47,48
EndSplineSet
EndChar
StartChar: h
Encoding: 104 104 75
Width: 1024
Flags: W
Fore
963 154 m 1,0,1
 841 -25 841 -25 680 -25 c 0,2,3
 639 -25 639 -25 612.5 -2.5 c 128,-1,4
 586 20 586 20 586 57 c 0,5,6
 586 88 586 88 612 184 c 2,7,-1
 743 653 l 2,8,9
 763 725 763 725 768.5 753 c 128,-1,10
 774 781 774 781 774 791 c 0,11,12
 774 842 774 842 727 842 c 0,13,14
 700 842 700 842 663.5 821 c 128,-1,15
 627 800 627 800 587.5 766 c 128,-1,16
 548 732 548 732 510.5 694.5 c 128,-1,17
 473 657 473 657 443 624 c 128,-1,18
 413 591 413 591 393 567 c 128,-1,19
 373 543 373 543 369 530 c 2,20,-1
 225 0 l 1,21,-1
 66 0 l 1,22,-1
 379 1163 l 2,23,24
 401 1249 401 1249 401 1280 c 0,25,26
 401 1292 401 1292 382 1303.5 c 128,-1,27
 363 1315 363 1315 262 1319 c 1,28,-1
 262 1362 l 1,29,-1
 567 1421 l 1,30,-1
 608 1421 l 1,31,-1
 399 645 l 1,32,33
 513 790 513 790 627 877.5 c 128,-1,34
 741 965 741 965 825 965 c 0,35,36
 875 965 875 965 907.5 930 c 128,-1,37
 940 895 940 895 940 844 c 0,38,39
 940 793 940 793 911 692 c 2,40,-1
 810 326 l 2,41,42
 767 171 767 171 761.5 145 c 128,-1,43
 756 119 756 119 756 106 c 0,44,45
 756 95 756 95 765.5 85.5 c 128,-1,46
 775 76 775 76 786 76 c 0,47,48
 817 76 817 76 859 106.5 c 128,-1,49
 901 137 901 137 930 178 c 1,50,-1
 963 154 l 1,0,1
EndSplineSet
EndChar
StartChar: i
Encoding: 105 105 76
Width: 569
Flags: W
Fore
481 1368 m 0,0,1
 523 1368 523 1368 552.5 1338.5 c 128,-1,2
 582 1309 582 1309 582 1268 c 0,3,4
 582 1226 582 1226 552.5 1196.5 c 128,-1,5
 523 1167 523 1167 481 1167 c 0,6,7
 440 1167 440 1167 410.5 1196.5 c 128,-1,8
 381 1226 381 1226 381 1268 c 0,9,10
 381 1309 381 1309 410.5 1338.5 c 128,-1,11
 440 1368 440 1368 481 1368 c 0,0,1
479 154 m 1,12,13
 356 -25 356 -25 193 -25 c 0,14,15
 152 -25 152 -25 127 -3 c 128,-1,16
 102 19 102 19 102 57 c 0,17,18
 102 88 102 88 129 184 c 2,19,-1
 242 594 l 2,20,21
 290 769 290 769 295.5 795 c 128,-1,22
 301 821 301 821 301 834 c 0,23,24
 301 864 301 864 276 864 c 0,25,26
 223 864 223 864 158 778 c 1,27,-1
 125 803 l 1,28,29
 237 965 237 965 383 965 c 0,30,31
 424 965 424 965 448.5 943 c 128,-1,32
 473 921 473 921 473 883 c 0,33,34
 473 846 473 846 446 756 c 2,35,-1
 333 350 l 2,36,37
 284 173 284 173 278 146 c 128,-1,38
 272 119 272 119 272 106 c 0,39,40
 272 95 272 95 281.5 85.5 c 128,-1,41
 291 76 291 76 303 76 c 0,42,43
 333 76 333 76 375 106.5 c 128,-1,44
 417 137 417 137 446 178 c 1,45,-1
 479 154 l 1,12,13
EndSplineSet
EndChar
StartChar: j
Encoding: 106 106 77
Width: 569
Flags: W
Fore
147 803 m 1,0,1
 259 965 259 965 406 965 c 0,2,3
 446 965 446 965 471 943 c 128,-1,4
 496 921 496 921 496 883 c 0,5,6
 496 851 496 851 435 633 c 2,7,-1
 313 197 l 2,8,9
 251 -22 251 -22 186 -151.5 c 128,-1,10
 121 -281 121 -281 44 -351.5 c 128,-1,11
 -33 -422 -33 -422 -119 -422 c 0,12,13
 -207 -422 -207 -422 -265.5 -384.5 c 128,-1,14
 -324 -347 -324 -347 -324 -295 c 0,15,16
 -324 -265 -324 -265 -305 -244 c 128,-1,17
 -286 -223 -286 -223 -258 -223 c 0,18,19
 -233 -223 -233 -223 -211.5 -239 c 128,-1,20
 -190 -255 -190 -255 -162 -307 c 0,21,22
 -134 -362 -134 -362 -88 -362 c 0,23,24
 -40 -362 -40 -362 0.5 -290.5 c 128,-1,25
 41 -219 41 -219 92 -33 c 2,26,-1
 307 750 l 2,27,28
 324 805 324 805 324 834 c 0,29,30
 324 864 324 864 299 864 c 0,31,32
 245 864 245 864 180 778 c 1,33,-1
 147 803 l 1,0,1
504 1368 m 0,34,35
 545 1368 545 1368 574.5 1338.5 c 128,-1,36
 604 1309 604 1309 604 1268 c 0,37,38
 604 1226 604 1226 574.5 1196.5 c 128,-1,39
 545 1167 545 1167 504 1167 c 0,40,41
 463 1167 463 1167 433 1196.5 c 128,-1,42
 403 1226 403 1226 403 1268 c 0,43,44
 403 1309 403 1309 433 1338.5 c 128,-1,45
 463 1368 463 1368 504 1368 c 0,34,35
EndSplineSet
EndChar
StartChar: k
Encoding: 107 107 78
Width: 909
Flags: W
Fore
367 530 m 1,0,-1
 644 819 l 2,1,2
 715 892 715 892 776.5 928.5 c 128,-1,3
 838 965 838 965 893 965 c 0,4,5
 947 965 947 965 977.5 943 c 128,-1,6
 1008 921 1008 921 1008 885 c 0,7,8
 1008 803 1008 803 928 803 c 0,9,10
 902 803 902 803 873 817 c 0,11,12
 846 831 846 831 821 831 c 0,13,14
 782 831 782 831 733 802 c 128,-1,15
 684 773 684 773 545 635 c 1,16,17
 639 558 639 558 653 446 c 0,18,19
 693 155 693 155 702.5 115.5 c 128,-1,20
 712 76 712 76 745 76 c 0,21,22
 788 76 788 76 844 160 c 1,23,-1
 879 135 l 1,24,25
 815 37 815 37 769.5 6 c 128,-1,26
 724 -25 724 -25 666 -25 c 0,27,28
 615 -25 615 -25 585.5 15.5 c 128,-1,29
 556 56 556 56 546 134 c 2,30,-1
 510 412 l 2,31,32
 501 489 501 489 446 539 c 1,33,-1
 342 436 l 1,34,-1
 225 0 l 1,35,-1
 66 0 l 1,36,-1
 377 1163 l 2,37,38
 399 1249 399 1249 399 1280 c 0,39,40
 399 1292 399 1292 379.5 1303.5 c 128,-1,41
 360 1315 360 1315 260 1319 c 1,42,-1
 260 1362 l 1,43,-1
 565 1421 l 1,44,-1
 606 1421 l 1,45,-1
 367 530 l 1,0,-1
EndSplineSet
EndChar
StartChar: l
Encoding: 108 108 79
Width: 569
Flags: W
Fore
602 1421 m 1,0,-1
 268 190 l 2,1,2
 252 129 252 129 252 106 c 0,3,4
 252 95 252 95 261.5 85.5 c 128,-1,5
 271 76 271 76 283 76 c 0,6,7
 313 76 313 76 355 106.5 c 128,-1,8
 397 137 397 137 426 178 c 1,9,-1
 459 154 l 1,10,11
 336 -25 336 -25 172 -25 c 0,12,13
 131 -25 131 -25 106.5 -3 c 128,-1,14
 82 19 82 19 82 57 c 0,15,16
 82 86 82 86 109 184 c 2,17,-1
 373 1163 l 2,18,19
 395 1240 395 1240 395 1280 c 0,20,21
 395 1292 395 1292 375.5 1303.5 c 128,-1,22
 356 1315 356 1315 256 1319 c 1,23,-1
 256 1362 l 1,24,-1
 561 1421 l 1,25,-1
 602 1421 l 1,0,-1
EndSplineSet
EndChar
StartChar: m
Encoding: 109 109 80
Width: 1479
Flags: W
Fore
1427 154 m 1,0,1
 1304 -25 1304 -25 1141 -25 c 0,2,3
 1100 -25 1100 -25 1075.5 -3 c 128,-1,4
 1051 19 1051 19 1051 57 c 0,5,6
 1051 86 1051 86 1075 177 c 2,7,-1
 1219 707 l 2,8,9
 1237 773 1237 773 1237 795 c 0,10,11
 1237 846 1237 846 1190 846 c 0,12,13
 1152 846 1152 846 1092 802 c 128,-1,14
 1032 758 1032 758 948.5 670 c 128,-1,15
 865 582 865 582 863 574 c 2,16,-1
 707 0 l 1,17,-1
 547 0 l 1,18,-1
 737 707 l 2,19,20
 756 773 756 773 756 795 c 0,21,22
 756 846 756 846 709 846 c 0,23,24
 662 846 662 846 593.5 787 c 128,-1,25
 525 728 525 728 468.5 661.5 c 128,-1,26
 412 595 412 595 377 548 c 0,27,28
 373 543 373 543 310 313 c 2,29,-1
 225 0 l 1,30,-1
 66 0 l 1,31,-1
 268 750 l 2,32,33
 285 811 285 811 285 834 c 0,34,35
 285 864 285 864 260 864 c 0,36,37
 206 864 206 864 141 778 c 1,38,-1
 109 803 l 1,39,40
 220 965 220 965 367 965 c 0,41,42
 407 965 407 965 432 943 c 128,-1,43
 457 921 457 921 457 883 c 0,44,45
 457 849 457 849 399 645 c 1,46,47
 504 790 504 790 612.5 877.5 c 128,-1,48
 721 965 721 965 805 965 c 0,49,50
 856 965 856 965 890 929.5 c 128,-1,51
 924 894 924 894 924 844 c 0,52,53
 924 806 924 806 893 684 c 1,54,55
 1133 965 1133 965 1286 965 c 0,56,57
 1337 965 1337 965 1371 929.5 c 128,-1,58
 1405 894 1405 894 1405 844 c 0,59,60
 1405 793 1405 793 1376 692 c 2,61,-1
 1275 326 l 2,62,63
 1232 171 1232 171 1226.5 145 c 128,-1,64
 1221 119 1221 119 1221 106 c 0,65,66
 1221 95 1221 95 1230 85.5 c 128,-1,67
 1239 76 1239 76 1251 76 c 0,68,69
 1282 76 1282 76 1324 106.5 c 128,-1,70
 1366 137 1366 137 1395 178 c 1,71,-1
 1427 154 l 1,0,1
EndSplineSet
EndChar
StartChar: n
Encoding: 110 110 81
Width: 1024
Flags: W
Fore
963 154 m 1,0,1
 841 -25 841 -25 680 -25 c 0,2,3
 639 -25 639 -25 612.5 -2.5 c 128,-1,4
 586 20 586 20 586 57 c 0,5,6
 586 88 586 88 612 184 c 2,7,-1
 743 653 l 2,8,9
 763 725 763 725 768.5 753 c 128,-1,10
 774 781 774 781 774 791 c 0,11,12
 774 842 774 842 727 842 c 0,13,14
 700 842 700 842 663.5 821 c 128,-1,15
 627 800 627 800 587.5 766 c 128,-1,16
 548 732 548 732 510.5 694.5 c 128,-1,17
 473 657 473 657 443 624 c 128,-1,18
 413 591 413 591 393 567 c 128,-1,19
 373 543 373 543 369 530 c 2,20,-1
 225 0 l 1,21,-1
 66 0 l 1,22,-1
 268 750 l 2,23,24
 285 811 285 811 285 834 c 0,25,26
 285 864 285 864 260 864 c 0,27,28
 206 864 206 864 141 778 c 1,29,-1
 109 803 l 1,30,31
 219 965 219 965 362 965 c 0,32,33
 404 965 404 965 430.5 942.5 c 128,-1,34
 457 920 457 920 457 883 c 0,35,36
 457 849 457 849 399 645 c 1,37,38
 513 790 513 790 627 877.5 c 128,-1,39
 741 965 741 965 825 965 c 0,40,41
 875 965 875 965 907.5 930 c 128,-1,42
 940 895 940 895 940 844 c 0,43,44
 940 793 940 793 911 692 c 2,45,-1
 810 326 l 2,46,47
 767 171 767 171 761.5 145 c 128,-1,48
 756 119 756 119 756 106 c 0,49,50
 756 95 756 95 765.5 85.5 c 128,-1,51
 775 76 775 76 786 76 c 0,52,53
 817 76 817 76 859 106.5 c 128,-1,54
 901 137 901 137 930 178 c 1,55,-1
 963 154 l 1,0,1
EndSplineSet
EndChar
StartChar: o
Encoding: 111 111 82
Width: 1024
Flags: W
Fore
639 965 m 0,0,1
 789 965 789 965 873.5 871 c 128,-1,2
 958 777 958 777 958 618 c 0,3,4
 958 375 958 375 795 175 c 128,-1,5
 632 -25 632 -25 401 -25 c 0,6,7
 235 -25 235 -25 152.5 60.5 c 128,-1,8
 70 146 70 146 70 317 c 0,9,10
 70 556 70 556 241 760.5 c 128,-1,11
 412 965 412 965 639 965 c 0,0,1
410 35 m 0,12,13
 557 35 557 35 669.5 243.5 c 128,-1,14
 782 452 782 452 782 688 c 0,15,16
 782 789 782 789 743 847 c 128,-1,17
 704 905 704 905 629 905 c 0,18,19
 480 905 480 905 363 684 c 128,-1,20
 246 463 246 463 246 260 c 0,21,22
 246 147 246 147 287 91 c 128,-1,23
 328 35 328 35 410 35 c 0,12,13
EndSplineSet
EndChar
StartChar: p
Encoding: 112 112 83
Width: 1024
Flags: W
Fore
424 735 m 1,0,1
 589 965 589 965 774 965 c 0,2,3
 869 965 869 965 928 891 c 128,-1,4
 987 817 987 817 987 696 c 0,5,6
 987 426 987 426 812 200.5 c 128,-1,7
 637 -25 637 -25 412 -25 c 0,8,9
 313 -25 313 -25 233 33 c 1,10,11
 156 -246 156 -246 148.5 -273.5 c 128,-1,12
 141 -301 141 -301 141 -334 c 0,13,14
 141 -391 141 -391 293 -391 c 1,15,-1
 283 -438 l 1,16,-1
 -199 -438 l 1,17,-1
 -188 -391 l 1,18,19
 -94 -391 -94 -391 -59 -359 c 128,-1,20
 -24 -327 -24 -327 0 -238 c 2,21,-1
 268 750 l 2,22,23
 285 811 285 811 285 834 c 0,24,25
 285 864 285 864 260 864 c 0,26,27
 206 864 206 864 141 778 c 1,28,-1
 109 803 l 1,29,30
 219 965 219 965 362 965 c 0,31,32
 404 965 404 965 430.5 942.5 c 128,-1,33
 457 920 457 920 457 883 c 0,34,35
 457 848 457 848 424 735 c 1,0,1
258 123 m 1,36,37
 323 35 323 35 410 35 c 0,38,39
 551 35 551 35 681 245 c 128,-1,40
 811 455 811 455 811 672 c 0,41,42
 811 846 811 846 702 846 c 0,43,44
 652 846 652 846 599.5 817.5 c 128,-1,45
 547 789 547 789 492 733 c 0,46,47
 397 637 397 637 384 589 c 2,48,-1
 258 123 l 1,36,37
EndSplineSet
EndChar
StartChar: q
Encoding: 113 113 84
Width: 1024
Flags: W
Fore
989 932 m 1,0,-1
 674 -231 l 2,1,2
 655 -298 655 -298 655 -334 c 0,3,4
 655 -364 655 -364 683.5 -377.5 c 128,-1,5
 712 -391 712 -391 793 -391 c 1,6,-1
 782 -438 l 1,7,-1
 301 -438 l 1,8,-1
 311 -391 l 1,9,10
 375 -391 375 -391 411.5 -380 c 128,-1,11
 448 -369 448 -369 471 -339 c 128,-1,12
 494 -309 494 -309 519 -217 c 2,13,-1
 649 258 l 1,14,15
 581 134 581 134 480 54.5 c 128,-1,16
 379 -25 379 -25 283 -25 c 0,17,18
 188 -25 188 -25 129 49 c 128,-1,19
 70 123 70 123 70 244 c 0,20,21
 70 514 70 514 245 739.5 c 128,-1,22
 420 965 420 965 645 965 c 0,23,24
 767 965 767 965 807 846 c 1,25,-1
 829 932 l 1,26,-1
 989 932 l 1,0,-1
778 737 m 2,27,28
 781 749 781 749 768.5 788 c 128,-1,29
 756 827 756 827 739.5 851.5 c 128,-1,30
 723 876 723 876 700 890.5 c 128,-1,31
 677 905 677 905 647 905 c 0,32,33
 506 905 506 905 376 695 c 128,-1,34
 246 485 246 485 246 268 c 0,35,36
 246 94 246 94 354 94 c 0,37,38
 409 94 409 94 470.5 138.5 c 128,-1,39
 532 183 532 183 609.5 290.5 c 128,-1,40
 687 398 687 398 692 418 c 2,41,-1
 778 737 l 2,27,28
EndSplineSet
EndChar
StartChar: r
Encoding: 114 114 85
Width: 797
Flags: W
Fore
375 551 m 1,0,1
 566 843 566 843 627.5 904 c 128,-1,2
 689 965 689 965 735 965 c 0,3,4
 781 965 781 965 812.5 933 c 128,-1,5
 844 901 844 901 844 852 c 0,6,7
 844 731 844 731 770 731 c 0,8,9
 741 731 741 731 713 771 c 0,10,11
 689 805 689 805 668 805 c 0,12,13
 655 805 655 805 636 792 c 0,14,15
 618 779 618 779 592 753 c 0,16,17
 567 727 567 727 536 688 c 0,18,19
 504 649 504 649 466 596 c 2,20,-1
 349 428 l 2,21,22
 334 406 334 406 290 243 c 2,23,-1
 225 0 l 1,24,-1
 66 0 l 1,25,-1
 268 750 l 2,26,27
 285 811 285 811 285 834 c 0,28,29
 285 864 285 864 260 864 c 0,30,31
 206 864 206 864 141 778 c 1,32,-1
 109 803 l 1,33,34
 220 965 220 965 367 965 c 0,35,36
 407 965 407 965 432 943 c 128,-1,37
 457 921 457 921 457 883 c 0,38,39
 457 853 457 853 434 771 c 2,40,-1
 375 551 l 1,0,1
EndSplineSet
KernsSLIFO: 183 76 0 0 84 -76 0 0 82 -76 0 0 75 -37 0 0 74 -76 0 0 72 -76 0 0 71 -76 0 0 70 -76 0 0 17 -227 0 0 16 -41 0 0 15 -227 0 0
EndChar
StartChar: s
Encoding: 115 115 86
Width: 797
Flags: W
Fore
336 -25 m 0,0,1
 203 -25 203 -25 108.5 27.5 c 128,-1,2
 14 80 14 80 14 152 c 0,3,4
 14 185 14 185 34.5 206 c 128,-1,5
 55 227 55 227 84 227 c 0,6,7
 115 227 115 227 139 206.5 c 128,-1,8
 163 186 163 186 195 121 c 0,9,10
 213 82 213 82 256.5 58.5 c 128,-1,11
 300 35 300 35 346 35 c 0,12,13
 514 35 514 35 514 213 c 0,14,15
 514 259 514 259 484.5 311 c 128,-1,16
 455 363 455 363 341 464 c 0,17,18
 226 565 226 565 196 617.5 c 128,-1,19
 166 670 166 670 166 717 c 0,20,21
 166 824 166 824 255 894.5 c 128,-1,22
 344 965 344 965 475 965 c 0,23,24
 594 965 594 965 680 914 c 128,-1,25
 766 863 766 863 766 795 c 0,26,27
 766 727 766 727 705 727 c 0,28,29
 630 727 630 727 600 821 c 0,30,31
 587 859 587 859 552.5 882 c 128,-1,32
 518 905 518 905 473 905 c 0,33,34
 405 905 405 905 361 864.5 c 128,-1,35
 317 824 317 824 317 764 c 0,36,37
 317 731 317 731 343 690 c 128,-1,38
 369 649 369 649 472 556 c 0,39,40
 602 439 602 439 638 376 c 128,-1,41
 674 313 674 313 674 258 c 0,42,43
 674 126 674 126 585 50.5 c 128,-1,44
 496 -25 496 -25 336 -25 c 0,0,1
EndSplineSet
EndChar
StartChar: t
Encoding: 116 116 87
Width: 569
Flags: W
Fore
625 932 m 1,0,-1
 606 866 l 1,1,-1
 457 866 l 1,2,-1
 270 190 l 2,3,4
 260 154 260 154 260 129 c 0,5,6
 260 114 260 114 275 101 c 128,-1,7
 290 88 290 88 311 88 c 0,8,9
 395 88 395 88 514 174 c 1,10,-1
 537 137 l 1,11,12
 463 65 463 65 365 20 c 128,-1,13
 267 -25 267 -25 184 -25 c 0,14,15
 141 -25 141 -25 112.5 0 c 128,-1,16
 84 25 84 25 84 63 c 0,17,18
 84 92 84 92 98 142 c 2,19,-1
 295 866 l 1,20,-1
 147 866 l 1,21,-1
 166 932 l 1,22,23
 370 942 370 942 489 1204 c 1,24,-1
 551 1204 l 1,25,-1
 473 932 l 1,26,-1
 625 932 l 1,0,-1
EndSplineSet
EndChar
StartChar: u
Encoding: 117 117 88
Width: 1024
Flags: W
Fore
647 295 m 1,0,1
 535 150 535 150 422.5 62.5 c 128,-1,2
 310 -25 310 -25 225 -25 c 0,3,4
 175 -25 175 -25 140.5 10.5 c 128,-1,5
 106 46 106 46 106 96 c 0,6,7
 106 147 106 147 135 248 c 2,8,-1
 237 614 l 2,9,10
 280 769 280 769 285.5 795 c 128,-1,11
 291 821 291 821 291 834 c 0,12,13
 291 864 291 864 266 864 c 0,14,15
 212 864 212 864 147 778 c 1,16,-1
 115 803 l 1,17,18
 227 965 227 965 373 965 c 0,19,20
 413 965 413 965 438 943 c 128,-1,21
 463 921 463 921 463 883 c 0,22,23
 463 853 463 853 415 680 c 2,24,-1
 293 233 l 2,25,26
 274 167 274 167 274 145 c 0,27,28
 274 94 274 94 322 94 c 0,29,30
 348 94 348 94 384.5 115.5 c 128,-1,31
 421 137 421 137 460.5 171 c 128,-1,32
 500 205 500 205 537.5 243 c 128,-1,33
 575 281 575 281 604.5 315 c 128,-1,34
 634 349 634 349 654 373 c 128,-1,35
 674 397 674 397 677 410 c 2,36,-1
 823 940 l 1,37,-1
 983 940 l 1,38,-1
 778 190 l 2,39,40
 762 129 762 129 762 106 c 0,41,42
 762 95 762 95 771.5 85.5 c 128,-1,43
 781 76 781 76 793 76 c 0,44,45
 823 76 823 76 865 106.5 c 128,-1,46
 907 137 907 137 936 178 c 1,47,-1
 969 154 l 1,48,49
 846 -25 846 -25 682 -25 c 0,50,51
 641 -25 641 -25 616.5 -3 c 128,-1,52
 592 19 592 19 592 57 c 0,53,54
 592 83 592 83 647 295 c 1,0,1
EndSplineSet
EndChar
StartChar: v
Encoding: 118 118 89
Width: 909
Flags: W
Fore
313 -25 m 1,0,-1
 205 766 l 2,1,2
 190 864 190 864 156 864 c 0,3,4
 115 864 115 864 51 778 c 1,5,-1
 16 801 l 1,6,7
 126 965 126 965 252 965 c 0,8,9
 333 965 333 965 351 839 c 2,10,-1
 440 164 l 1,11,12
 780 579 780 579 780 717 c 0,13,14
 780 742 780 742 750 782 c 0,15,16
 711 834 711 834 711 877 c 0,17,18
 711 912 711 912 738 938.5 c 128,-1,19
 765 965 765 965 799 965 c 0,20,21
 843 965 843 965 873 927 c 128,-1,22
 903 889 903 889 903 840 c 0,23,24
 903 710 903 710 743.5 467.5 c 128,-1,25
 584 225 584 225 362 -25 c 1,26,-1
 313 -25 l 1,0,-1
EndSplineSet
KernsSLIFO: 17 -152 0 0 15 -152 0 0
EndChar
StartChar: w
Encoding: 119 119 90
Width: 1366
Flags: W
Fore
938 164 m 1,0,1
 1069 336 1069 336 1153 491 c 128,-1,2
 1237 646 1237 646 1237 719 c 0,3,4
 1237 744 1237 744 1207 784 c 0,5,6
 1167 836 1167 836 1167 879 c 0,7,8
 1167 913 1167 913 1194 940 c 128,-1,9
 1221 967 1221 967 1255 967 c 0,10,11
 1300 967 1300 967 1330 929 c 128,-1,12
 1360 891 1360 891 1360 842 c 0,13,14
 1360 699 1360 699 1222 462.5 c 128,-1,15
 1084 226 1084 226 862 -25 c 1,16,-1
 813 -25 l 1,17,-1
 729 721 l 1,18,-1
 340 -25 l 1,19,-1
 291 -25 l 1,20,-1
 201 766 l 2,21,22
 190 864 190 864 156 864 c 0,23,24
 113 864 113 864 49 778 c 1,25,-1
 14 801 l 1,26,27
 77 894 77 894 129 929.5 c 128,-1,28
 181 965 181 965 242 965 c 0,29,30
 333 965 333 965 348 823 c 2,31,-1
 408 248 l 1,32,-1
 717 838 l 1,33,-1
 815 950 l 1,34,-1
 858 950 l 1,35,-1
 938 164 l 1,0,1
EndSplineSet
KernsSLIFO: 17 -152 0 0 15 -152 0 0
EndChar
StartChar: x
Encoding: 120 120 91
Width: 909
Flags: W
Fore
506 616 m 1,0,1
 722 965 722 965 852 965 c 0,2,3
 897 965 897 965 926.5 943.5 c 128,-1,4
 956 922 956 922 956 887 c 0,5,6
 956 849 956 849 936 826 c 128,-1,7
 916 803 916 803 883 803 c 0,8,9
 860 803 860 803 824 819 c 0,10,11
 796 831 796 831 780 831 c 0,12,13
 710 831 710 831 530 535 c 1,14,-1
 646 141 l 2,15,16
 655 108 655 108 670 89 c 128,-1,17
 685 70 685 70 702 70 c 0,18,19
 740 70 740 70 803 156 c 1,20,-1
 838 133 l 1,21,22
 774 39 774 39 724 4 c 128,-1,23
 674 -31 674 -31 614 -31 c 0,24,25
 574 -31 574 -31 545 5.5 c 128,-1,26
 516 42 516 42 494 116 c 2,27,-1
 422 356 l 1,28,29
 290 131 290 131 206.5 50 c 128,-1,30
 123 -31 123 -31 39 -31 c 0,31,32
 -6 -31 -6 -31 -38 -5 c 128,-1,33
 -70 21 -70 21 -70 59 c 0,34,35
 -70 95 -70 95 -45 120 c 128,-1,36
 -20 145 -20 145 14 145 c 0,37,38
 48 145 48 145 91 117 c 0,39,40
 117 100 117 100 129 100 c 0,41,42
 171 100 171 100 226.5 169.5 c 128,-1,43
 282 239 282 239 399 436 c 1,44,-1
 295 792 l 2,45,46
 284 827 284 827 269.5 845.5 c 128,-1,47
 255 864 255 864 238 864 c 0,48,49
 200 864 200 864 137 778 c 1,50,-1
 102 801 l 1,51,52
 166 895 166 895 216 930 c 128,-1,53
 266 965 266 965 326 965 c 0,54,55
 367 965 367 965 395.5 929 c 128,-1,56
 424 893 424 893 445 820 c 2,57,-1
 506 616 l 1,0,1
EndSplineSet
EndChar
StartChar: y
Encoding: 121 121 92
Width: 909
Flags: W
Fore
307 10 m 1,0,-1
 205 766 l 2,1,2
 193 864 193 864 156 864 c 0,3,4
 115 864 115 864 51 778 c 1,5,-1
 16 801 l 1,6,7
 126 965 126 965 252 965 c 0,8,9
 333 965 333 965 351 839 c 2,10,-1
 440 164 l 1,11,12
 780 579 780 579 780 717 c 0,13,14
 780 742 780 742 750 782 c 0,15,16
 711 834 711 834 711 877 c 0,17,18
 711 912 711 912 738 938.5 c 128,-1,19
 765 965 765 965 799 965 c 0,20,21
 843 965 843 965 873 927 c 128,-1,22
 903 889 903 889 903 840 c 0,23,24
 903 627 903 627 462 92.5 c 128,-1,25
 21 -442 21 -442 -141 -442 c 0,26,27
 -173 -442 -173 -442 -201 -416 c 128,-1,28
 -229 -390 -229 -390 -229 -358 c 0,29,30
 -229 -322 -229 -322 -203 -291 c 128,-1,31
 -177 -260 -177 -260 -141 -260 c 0,32,33
 -112 -260 -112 -260 -79 -293 c 0,34,35
 -56 -315 -56 -315 -43 -315 c 0,36,37
 -19 -315 -19 -315 84 -225 c 128,-1,38
 187 -135 187 -135 307 10 c 1,0,-1
EndSplineSet
KernsSLIFO: 17 -113 0 0 15 -113 0 0
EndChar
StartChar: z
Encoding: 122 122 93
Width: 797
Flags: W
Fore
848 891 m 1,0,-1
 139 141 l 1,1,2
 189 162 189 162 223 162 c 0,3,4
 264 162 264 162 358 151 c 0,5,6
 450 141 450 141 489 141 c 0,7,8
 567 141 567 141 602 162 c 128,-1,9
 637 183 637 183 674 270 c 1,10,-1
 721 270 l 1,11,12
 671 119 671 119 623.5 59.5 c 128,-1,13
 576 0 576 0 481 0 c 0,14,15
 423 0 423 0 306 11 c 0,16,17
 196 20 196 20 145 20 c 0,18,19
 59 20 59 20 -39 0 c 1,20,-1
 -39 41 l 1,21,-1
 670 791 l 1,22,23
 625 770 625 770 586 770 c 0,24,25
 546 770 546 770 445 780 c 0,26,27
 346 791 346 791 307 791 c 0,28,29
 247 791 247 791 215.5 772 c 128,-1,30
 184 753 184 753 152 682 c 1,31,-1
 104 682 l 1,32,33
 149 820 149 820 194 876 c 128,-1,34
 239 932 239 932 297 932 c 0,35,36
 347 932 347 932 458 922 c 0,37,38
 577 911 577 911 635 911 c 0,39,40
 762 911 762 911 848 932 c 1,41,-1
 848 891 l 1,0,-1
EndSplineSet
EndChar
StartChar: braceleft
Encoding: 123 123 94
Width: 819
Flags: W
Fore
1028 1421 m 1,0,-1
 1014 1374 l 1,1,2
 876 1360 876 1360 789 1255.5 c 128,-1,3
 702 1151 702 1151 702 987 c 0,4,5
 702 774 702 774 588 662.5 c 128,-1,6
 474 551 474 551 299 496 c 1,7,-1
 299 492 l 1,8,9
 391 454 391 454 443.5 384.5 c 128,-1,10
 496 315 496 315 496 231 c 0,11,12
 496 160 496 160 422 0 c 0,13,14
 346 -156 346 -156 346 -221 c 0,15,16
 346 -359 346 -359 506 -395 c 1,17,-1
 494 -442 l 1,18,19
 367 -428 367 -428 291 -345 c 128,-1,20
 215 -262 215 -262 215 -147 c 0,21,22
 215 -87 215 -87 236 -29 c 128,-1,23
 257 29 257 29 307 126 c 0,24,25
 371 252 371 252 371 299 c 0,26,27
 371 439 371 439 199 473 c 1,28,-1
 209 510 l 1,29,30
 510 579 510 579 510 819 c 0,31,32
 510 1078 510 1078 657 1236 c 128,-1,33
 804 1394 804 1394 1028 1421 c 1,0,-1
EndSplineSet
EndChar
StartChar: bar
Encoding: 124 124 95
Width: 563
Flags: W
Fore
326 -442 m 1,0,-1
 244 -442 l 1,1,-1
 244 1421 l 1,2,-1
 326 1421 l 1,3,-1
 326 -442 l 1,0,-1
EndSplineSet
EndChar
StartChar: braceright
Encoding: 125 125 96
Width: 819
Flags: W
Fore
625 506 m 1,0,-1
 614 469 l 1,1,2
 313 400 313 400 313 160 c 0,3,4
 313 -99 313 -99 166 -257 c 128,-1,5
 19 -415 19 -415 -205 -442 c 1,6,-1
 -190 -395 l 1,7,8
 -53 -381 -53 -381 34 -276.5 c 128,-1,9
 121 -172 121 -172 121 -8 c 0,10,11
 121 205 121 205 235 316 c 128,-1,12
 349 427 349 427 524 483 c 1,13,-1
 524 487 l 1,14,15
 432 525 432 525 380 594.5 c 128,-1,16
 328 664 328 664 328 748 c 0,17,18
 328 819 328 819 401 979 c 0,19,20
 477 1134 477 1134 477 1200 c 0,21,22
 477 1338 477 1338 317 1374 c 1,23,-1
 330 1421 l 1,24,25
 456 1407 456 1407 532 1324 c 128,-1,26
 608 1241 608 1241 608 1126 c 0,27,28
 608 1065 608 1065 587 1007.5 c 128,-1,29
 566 950 566 950 517 853 c 0,30,31
 453 727 453 727 453 680 c 0,32,33
 453 540 453 540 625 506 c 1,0,-1
EndSplineSet
EndChar
StartChar: asciitilde
Encoding: 126 126 97
Width: 1108
Flags: W
Fore
1104 842 m 1,0,1
 1100 702 1100 702 1019.5 610 c 128,-1,2
 939 518 939 518 821 518 c 0,3,4
 727 518 727 518 559 612 c 0,5,6
 449 674 449 674 401.5 690.5 c 128,-1,7
 354 707 354 707 319 707 c 0,8,9
 244 707 244 707 194.5 656 c 128,-1,10
 145 605 145 605 135 518 c 1,11,-1
 88 518 l 1,12,13
 92 658 92 658 172.5 750 c 128,-1,14
 253 842 253 842 371 842 c 0,15,16
 465 842 465 842 633 748 c 0,17,18
 743 686 743 686 790.5 669.5 c 128,-1,19
 838 653 838 653 872 653 c 0,20,21
 948 653 948 653 997.5 704 c 128,-1,22
 1047 755 1047 755 1057 842 c 1,23,-1
 1104 842 l 1,0,1
EndSplineSet
EndChar
StartChar: Aring
Encoding: 197 197 99
Width: 1251
Flags: W
Fore
1198 47 m 1,0,-1
 1186 0 l 1,1,-1
 647 0 l 1,2,-1
 659 47 l 1,3,4
 759 47 759 47 801.5 66.5 c 128,-1,5
 844 86 844 86 844 146 c 0,6,7
 844 164 844 164 809 436 c 1,8,-1
 334 436 l 1,9,10
 191 195 191 195 178.5 169 c 128,-1,11
 166 143 166 143 166 113 c 0,12,13
 166 47 166 47 285 47 c 1,14,-1
 272 0 l 1,15,-1
 -145 0 l 1,16,-1
 -133 47 l 1,17,18
 -71 47 -71 47 -19 73 c 128,-1,19
 33 99 33 99 98 207 c 2,20,-1
 774 1329 l 1,21,22
 715 1351 715 1351 681 1400.5 c 128,-1,23
 647 1450 647 1450 647 1509 c 0,24,25
 647 1589 647 1589 703.5 1645.5 c 128,-1,26
 760 1702 760 1702 840 1702 c 0,27,28
 919 1702 919 1702 975.5 1645.5 c 128,-1,29
 1032 1589 1032 1589 1032 1509 c 0,30,31
 1032 1442 1032 1442 988.5 1388.5 c 128,-1,32
 945 1335 945 1335 874 1321 c 1,33,-1
 1028 156 l 2,34,35
 1036 96 1036 96 1074.5 71.5 c 128,-1,36
 1113 47 1113 47 1198 47 c 1,0,-1
840 1386 m 0,37,38
 890 1386 890 1386 926.5 1422.5 c 128,-1,39
 963 1459 963 1459 963 1509 c 0,40,41
 963 1560 963 1560 926.5 1596 c 128,-1,42
 890 1632 890 1632 840 1632 c 0,43,44
 789 1632 789 1632 753 1596 c 128,-1,45
 717 1560 717 1560 717 1509 c 0,46,47
 717 1459 717 1459 753 1422.5 c 128,-1,48
 789 1386 789 1386 840 1386 c 0,37,38
799 518 m 1,49,-1
 725 1094 l 1,50,-1
 383 518 l 1,51,-1
 799 518 l 1,49,-1
EndSplineSet
EndChar
StartChar: Ccedilla
Encoding: 199 199 100
Width: 1366
Flags: W
Fore
649 -29 m 1,0,1
 411 -15 411 -15 274 133.5 c 128,-1,2
 137 282 137 282 137 512 c 0,3,4
 137 736 137 736 258.5 940.5 c 128,-1,5
 380 1145 380 1145 584 1265.5 c 128,-1,6
 788 1386 788 1386 1012 1386 c 0,7,8
 1114 1386 1114 1386 1223 1352 c 0,9,10
 1290 1331 1290 1331 1329 1331 c 0,11,12
 1371 1331 1371 1331 1395 1386 c 1,13,-1
 1442 1386 l 1,14,-1
 1346 975 l 1,15,-1
 1300 975 l 1,16,-1
 1300 1038 l 2,17,18
 1300 1315 1300 1315 1006 1315 c 0,19,20
 726 1315 726 1315 543 1069 c 128,-1,21
 360 823 360 823 360 510 c 0,22,23
 360 311 360 311 470 191.5 c 128,-1,24
 580 72 580 72 754 72 c 0,25,26
 1038 72 1038 72 1221 309 c 1,27,-1
 1253 289 l 1,28,29
 1056 -25 1056 -25 702 -31 c 1,30,-1
 666 -96 l 1,31,32
 705 -86 705 -86 727 -86 c 0,33,34
 782 -86 782 -86 818 -116 c 128,-1,35
 854 -146 854 -146 854 -193 c 0,36,37
 854 -284 854 -284 766 -330.5 c 128,-1,38
 678 -377 678 -377 553 -377 c 0,39,40
 494 -377 494 -377 432 -360 c 1,41,-1
 453 -322 l 1,42,43
 488 -334 488 -334 541 -334 c 0,44,45
 608 -334 608 -334 651 -297 c 128,-1,46
 694 -260 694 -260 694 -205 c 0,47,48
 694 -179 694 -179 675.5 -163 c 128,-1,49
 657 -147 657 -147 631 -147 c 0,50,51
 611 -147 611 -147 582 -154 c 1,52,-1
 649 -29 l 1,0,1
EndSplineSet
EndChar
StartChar: ccedilla
Encoding: 231 231 111
Width: 909
Flags: W
Fore
342 -25 m 1,0,1
 211 -25 211 -25 140.5 52.5 c 128,-1,2
 70 130 70 130 70 272 c 0,3,4
 70 424 70 424 160 590 c 128,-1,5
 250 756 250 756 390 860.5 c 128,-1,6
 530 965 530 965 666 965 c 0,7,8
 765 965 765 965 826 916.5 c 128,-1,9
 887 868 887 868 887 795 c 0,10,11
 887 700 887 700 819 700 c 0,12,13
 740 700 740 700 721 823 c 0,14,15
 707 905 707 905 651 905 c 0,16,17
 499 905 499 905 372.5 696.5 c 128,-1,18
 246 488 246 488 246 293 c 0,19,20
 246 191 246 191 293 135.5 c 128,-1,21
 340 80 340 80 424 80 c 0,22,23
 573 80 573 80 735 195 c 1,24,-1
 758 156 l 1,25,26
 610 0 610 0 397 -23 c 1,27,-1
 356 -96 l 1,28,29
 396 -86 396 -86 418 -86 c 0,30,31
 472 -86 472 -86 508.5 -116 c 128,-1,32
 545 -146 545 -146 545 -193 c 0,33,34
 545 -279 545 -279 460.5 -328 c 128,-1,35
 376 -377 376 -377 244 -377 c 0,36,37
 185 -377 185 -377 123 -360 c 1,38,-1
 143 -322 l 1,39,40
 179 -334 179 -334 231 -334 c 0,41,42
 299 -334 299 -334 342 -297 c 128,-1,43
 385 -260 385 -260 385 -205 c 0,44,45
 385 -179 385 -179 366.5 -163 c 128,-1,46
 348 -147 348 -147 322 -147 c 0,47,48
 301 -147 301 -147 272 -154 c 1,49,-1
 342 -25 l 1,0,1
EndSplineSet
EndChar
StartChar: dagger
Encoding: 8224 8224 130
Width: 1024
Flags: W
Fore
659 922 m 1,0,1
 721 922 721 922 819 961 c 0,2,3
 907 995 907 995 956 995 c 0,4,5
 996 995 996 995 1027.5 967 c 128,-1,6
 1059 939 1059 939 1059 899 c 0,7,8
 1059 859 1059 859 1026 829 c 128,-1,9
 993 799 993 799 954 799 c 0,10,11
 908 799 908 799 810 840 c 0,12,13
 703 885 703 885 649 885 c 1,14,15
 643 848 643 848 643 825 c 0,16,17
 643 800 643 800 665 750 c 0,18,19
 692 689 692 689 692 653 c 0,20,21
 692 632 692 632 654 553 c 0,22,23
 481 197 481 197 287 -403 c 1,24,-1
 238 -403 l 1,25,26
 432 198 432 198 432 637 c 0,27,28
 432 665 432 665 447.5 695.5 c 128,-1,29
 463 726 463 726 521 782 c 0,30,31
 590 848 590 848 600 885 c 1,32,33
 548 885 548 885 434 838 c 0,34,35
 341 799 341 799 305 799 c 0,36,37
 264 799 264 799 232.5 828.5 c 128,-1,38
 201 858 201 858 201 899 c 0,39,40
 201 940 201 940 234.5 967.5 c 128,-1,41
 268 995 268 995 309 995 c 0,42,43
 362 995 362 995 464 958 c 0,44,45
 562 922 562 922 610 922 c 1,46,47
 617 946 617 946 617 984 c 0,48,49
 617 1014 617 1014 611 1078 c 0,50,51
 606 1139 606 1139 606 1165 c 0,52,53
 606 1271 606 1271 646.5 1328.5 c 128,-1,54
 687 1386 687 1386 760 1386 c 0,55,56
 799 1386 799 1386 824.5 1358 c 128,-1,57
 850 1330 850 1330 850 1288 c 0,58,59
 850 1255 850 1255 833 1213.5 c 128,-1,60
 816 1172 816 1172 752 1085 c 0,61,62
 669 974 669 974 659 922 c 1,0,1
EndSplineSet
EndChar
StartChar: degree
Encoding: 176 176 131
Width: 819
Flags: W
Fore
504 1386 m 0,0,1
 630 1386 630 1386 722.5 1297 c 128,-1,2
 815 1208 815 1208 815 1083 c 0,3,4
 815 957 815 957 725.5 865.5 c 128,-1,5
 636 774 636 774 510 774 c 0,6,7
 378 774 378 774 286.5 865 c 128,-1,8
 195 956 195 956 195 1085 c 0,9,10
 195 1210 195 1210 286.5 1298 c 128,-1,11
 378 1386 378 1386 504 1386 c 0,0,1
508 856 m 0,12,13
 599 856 599 856 663 923.5 c 128,-1,14
 727 991 727 991 727 1083 c 0,15,16
 727 1175 727 1175 660.5 1240 c 128,-1,17
 594 1305 594 1305 502 1305 c 0,18,19
 413 1305 413 1305 348 1240 c 128,-1,20
 283 1175 283 1175 283 1085 c 0,21,22
 283 990 283 990 348.5 923 c 128,-1,23
 414 856 414 856 508 856 c 0,12,13
EndSplineSet
EndChar
StartChar: cent
Encoding: 162 162 132
Width: 1024
Flags: W
Fore
719 965 m 1,0,-1
 723 965 l 2,1,2
 822 965 822 965 883 916.5 c 128,-1,3
 944 868 944 868 944 795 c 0,4,5
 944 700 944 700 877 700 c 0,6,7
 797 700 797 700 778 823 c 0,8,9
 764 905 764 905 709 905 c 2,10,-1
 702 905 l 1,11,-1
 465 80 l 1,12,-1
 481 80 l 2,13,14
 631 80 631 80 793 195 c 1,15,-1
 815 156 l 1,16,17
 658 -9 658 -9 436 -23 c 1,18,19
 436 -25 436 -25 334 -379 c 1,20,-1
 270 -379 l 1,21,-1
 373 -23 l 1,22,23
 127 -4 127 -4 127 272 c 0,24,25
 127 479 127 479 284.5 694.5 c 128,-1,26
 442 910 442 910 653 958 c 1,27,-1
 760 1325 l 1,28,-1
 823 1325 l 1,29,-1
 719 965 l 1,0,-1
635 891 m 1,30,31
 496 835 496 835 399.5 644 c 128,-1,32
 303 453 303 453 303 293 c 0,33,34
 303 140 303 140 406 94 c 1,35,-1
 635 891 l 1,30,31
EndSplineSet
EndChar
StartChar: sterling
Encoding: 163 163 133
Width: 1024
Flags: W
Fore
1149 1386 m 1,0,-1
 1040 997 l 1,1,-1
 993 997 l 1,2,3
 1002 1046 1002 1046 1002 1090 c 0,4,5
 1002 1315 1002 1315 801 1315 c 0,6,7
 677 1315 677 1315 572 1197.5 c 128,-1,8
 467 1080 467 1080 467 901 c 0,9,10
 467 849 467 849 475 729 c 1,11,-1
 752 729 l 1,12,-1
 725 635 l 1,13,-1
 479 635 l 1,14,15
 479 327 479 327 215 145 c 1,16,17
 283 170 283 170 360 170 c 0,18,19
 407 170 407 170 528 152 c 0,20,21
 613 139 613 139 637 139 c 0,22,23
 810 139 810 139 889 279 c 1,24,-1
 924 262 l 1,25,26
 805 -31 805 -31 565 -31 c 0,27,28
 503 -31 503 -31 392 4 c 0,29,30
 275 41 275 41 205 41 c 0,31,32
 117 41 117 41 0 -31 c 1,33,-1
 -25 14 l 1,34,35
 150 144 150 144 230.5 259.5 c 128,-1,36
 311 375 311 375 311 496 c 0,37,38
 311 528 311 528 301 635 c 1,39,-1
 111 635 l 1,40,-1
 137 729 l 1,41,-1
 293 729 l 1,42,43
 287 778 287 778 287 840 c 0,44,45
 287 1071 287 1071 438 1228.5 c 128,-1,46
 589 1386 589 1386 809 1386 c 0,47,48
 888 1386 888 1386 981 1358 c 0,49,50
 1029 1343 1029 1343 1051 1343 c 0,51,52
 1088 1343 1088 1343 1102 1386 c 1,53,-1
 1149 1386 l 1,0,-1
EndSplineSet
EndChar
StartChar: section
Encoding: 167 167 134
Width: 1024
Flags: W
Fore
467 850 m 1,0,1
 369 957 369 957 369 1096 c 0,2,3
 369 1223 369 1223 468.5 1304.5 c 128,-1,4
 568 1386 568 1386 709 1386 c 0,5,6
 852 1386 852 1386 946 1327.5 c 128,-1,7
 1040 1269 1040 1269 1040 1186 c 0,8,9
 1040 1104 1040 1104 969 1104 c 0,10,11
 885 1104 885 1104 866 1204 c 0,12,13
 854 1266 854 1266 808 1300.5 c 128,-1,14
 762 1335 762 1335 700 1335 c 0,15,16
 616 1335 616 1335 559 1284 c 128,-1,17
 502 1233 502 1233 502 1155 c 0,18,19
 502 1083 502 1083 540 1020.5 c 128,-1,20
 578 958 578 958 711 842 c 0,21,22
 899 677 899 677 899 506 c 0,23,24
 899 374 899 374 810 279 c 128,-1,25
 721 184 721 184 553 145 c 1,26,27
 655 37 655 37 655 -92 c 0,28,29
 655 -224 655 -224 552 -307.5 c 128,-1,30
 449 -391 449 -391 303 -391 c 0,31,32
 161 -391 161 -391 72.5 -333 c 128,-1,33
 -16 -275 -16 -275 -16 -190 c 0,34,35
 -16 -109 -16 -109 59 -109 c 0,36,37
 129 -109 129 -109 158 -209 c 0,38,39
 196 -340 196 -340 313 -340 c 0,40,41
 409 -340 409 -340 465.5 -290.5 c 128,-1,42
 522 -241 522 -241 522 -164 c 0,43,44
 522 -99 522 -99 481.5 -33.5 c 128,-1,45
 441 32 441 32 319 137 c 0,46,47
 209 232 209 232 167 311 c 128,-1,48
 125 390 125 390 125 489 c 0,49,50
 125 612 125 612 215 713.5 c 128,-1,51
 305 815 305 815 467 850 c 1,0,1
504 193 m 1,52,53
 630 220 630 220 698 287 c 128,-1,54
 766 354 766 354 766 436 c 0,55,56
 766 523 766 523 706 606.5 c 128,-1,57
 646 690 646 690 514 803 c 1,58,59
 389 775 389 775 323.5 703 c 128,-1,60
 258 631 258 631 258 543 c 0,61,62
 258 458 258 458 309.5 385 c 128,-1,63
 361 312 361 312 504 193 c 1,52,53
EndSplineSet
EndChar
StartChar: bullet
Encoding: 8226 8226 135
Width: 717
Flags: W
Fore
408 905 m 0,0,1
 501 905 501 905 568 838 c 128,-1,2
 635 771 635 771 635 678 c 0,3,4
 635 585 635 585 568 518 c 128,-1,5
 501 451 501 451 408 451 c 0,6,7
 314 451 314 451 247 518 c 128,-1,8
 180 585 180 585 180 678 c 0,9,10
 180 771 180 771 247 838 c 128,-1,11
 314 905 314 905 408 905 c 0,0,1
EndSplineSet
EndChar
StartChar: paragraph
Encoding: 182 182 136
Width: 1071
Flags: W
Fore
1069 1300 m 1,0,-1
 938 1300 l 1,1,-1
 938 -360 l 1,2,-1
 864 -360 l 1,3,-1
 864 1300 l 1,4,-1
 698 1300 l 1,5,-1
 698 -360 l 1,6,-1
 625 -360 l 1,7,-1
 625 600 l 1,8,9
 421 600 421 600 298.5 704.5 c 128,-1,10
 176 809 176 809 176 985 c 0,11,12
 176 1165 176 1165 285 1260.5 c 128,-1,13
 394 1356 394 1356 600 1356 c 2,14,-1
 1069 1356 l 1,15,-1
 1069 1300 l 1,0,-1
EndSplineSet
EndChar
StartChar: germandbls
Encoding: 223 223 137
Width: 1024
Flags: W
Fore
352 1051 m 2,0,1
 407 1220 407 1220 501.5 1320.5 c 128,-1,2
 596 1421 596 1421 750 1421 c 0,3,4
 873 1421 873 1421 946.5 1348.5 c 128,-1,5
 1020 1276 1020 1276 1020 1151 c 0,6,7
 1020 1013 1020 1013 914 918.5 c 128,-1,8
 808 824 808 824 635 803 c 1,9,-1
 635 799 l 1,10,11
 766 771 766 771 837.5 688 c 128,-1,12
 909 605 909 605 909 483 c 0,13,14
 909 282 909 282 786 128.5 c 128,-1,15
 663 -25 663 -25 516 -25 c 0,16,17
 437 -25 437 -25 386.5 27 c 128,-1,18
 336 79 336 79 336 152 c 0,19,20
 336 198 336 198 359 230 c 128,-1,21
 382 262 382 262 422 262 c 0,22,23
 452 262 452 262 470.5 242 c 128,-1,24
 489 222 489 222 489 190 c 0,25,26
 489 165 489 165 468 127 c 0,27,28
 451 96 451 96 451 80 c 0,29,30
 451 60 451 60 469.5 47.5 c 128,-1,31
 488 35 488 35 512 35 c 0,32,33
 606 35 606 35 669.5 171 c 128,-1,34
 733 307 733 307 733 518 c 0,35,36
 733 624 733 624 674.5 697.5 c 128,-1,37
 616 771 616 771 512 778 c 1,38,-1
 526 836 l 1,39,40
 695 836 695 836 781.5 954.5 c 128,-1,41
 868 1073 868 1073 868 1202 c 0,42,43
 868 1362 868 1362 743 1362 c 0,44,45
 592 1362 592 1362 487 975 c 2,46,-1
 274 188 l 2,47,48
 196 -99 196 -99 77 -260.5 c 128,-1,49
 -42 -422 -42 -422 -174 -422 c 0,50,51
 -256 -422 -256 -422 -308 -384.5 c 128,-1,52
 -360 -347 -360 -347 -360 -295 c 0,53,54
 -360 -265 -360 -265 -341.5 -244 c 128,-1,55
 -323 -223 -323 -223 -295 -223 c 0,56,57
 -270 -223 -270 -223 -248.5 -239 c 128,-1,58
 -227 -255 -227 -255 -199 -307 c 0,59,60
 -171 -362 -171 -362 -135 -362 c 0,61,62
 -35 -362 -35 -362 55 -33 c 2,63,-1
 352 1051 l 2,0,1
EndSplineSet
EndChar
StartChar: registered
Encoding: 174 174 138
Width: 1556
Flags: W
Fore
831 1386 m 0,0,1
 1123 1386 1123 1386 1331.5 1178 c 128,-1,2
 1540 970 1540 970 1540 678 c 0,3,4
 1540 386 1540 386 1331.5 177.5 c 128,-1,5
 1123 -31 1123 -31 831 -31 c 0,6,7
 540 -31 540 -31 331.5 177.5 c 128,-1,8
 123 386 123 386 123 678 c 0,9,10
 123 970 123 970 331.5 1178 c 128,-1,11
 540 1386 540 1386 831 1386 c 0,0,1
831 29 m 0,12,13
 1099 29 1099 29 1290 219.5 c 128,-1,14
 1481 410 1481 410 1481 678 c 0,15,16
 1481 945 1481 945 1290 1136 c 128,-1,17
 1099 1327 1099 1327 831 1327 c 0,18,19
 564 1327 564 1327 373 1136 c 128,-1,20
 182 945 182 945 182 678 c 0,21,22
 182 409 182 409 372.5 219 c 128,-1,23
 563 29 563 29 831 29 c 0,12,13
1290 279 m 1,24,25
 1223 266 1223 266 1149 266 c 0,26,27
 1084 266 1084 266 1022.5 320.5 c 128,-1,28
 961 375 961 375 807 627 c 1,29,-1
 715 627 l 1,30,-1
 715 434 l 2,31,32
 715 353 715 353 737.5 336 c 128,-1,33
 760 319 760 319 844 319 c 1,34,-1
 844 279 l 1,35,-1
 457 279 l 1,36,-1
 457 319 l 1,37,38
 536 319 536 319 553.5 337.5 c 128,-1,39
 571 356 571 356 571 434 c 2,40,-1
 571 936 l 2,41,42
 571 1014 571 1014 554 1032.5 c 128,-1,43
 537 1051 537 1051 457 1051 c 1,44,-1
 457 1092 l 1,45,-1
 813 1092 l 2,46,47
 966 1092 966 1092 1051.5 1032 c 128,-1,48
 1137 972 1137 972 1137 866 c 0,49,50
 1137 786 1137 786 1087 730.5 c 128,-1,51
 1037 675 1037 675 950 655 c 1,52,53
 1109 430 1109 430 1157 373.5 c 128,-1,54
 1205 317 1205 317 1249 317 c 0,55,56
 1265 317 1265 317 1290 319 c 1,57,-1
 1290 279 l 1,24,25
715 686 m 1,58,-1
 752 686 l 2,59,60
 975 686 975 686 975 866 c 0,61,62
 975 946 975 946 920.5 991 c 128,-1,63
 866 1036 866 1036 782 1036 c 0,64,65
 738 1036 738 1036 715 1026 c 1,66,-1
 715 686 l 1,58,-1
EndSplineSet
EndChar
StartChar: copyright
Encoding: 169 169 139
Width: 1556
Flags: W
Fore
831 1386 m 0,0,1
 1123 1386 1123 1386 1331.5 1178 c 128,-1,2
 1540 970 1540 970 1540 678 c 0,3,4
 1540 386 1540 386 1331.5 177.5 c 128,-1,5
 1123 -31 1123 -31 831 -31 c 0,6,7
 540 -31 540 -31 331.5 177.5 c 128,-1,8
 123 386 123 386 123 678 c 0,9,10
 123 970 123 970 331.5 1178 c 128,-1,11
 540 1386 540 1386 831 1386 c 0,0,1
831 29 m 0,12,13
 1099 29 1099 29 1290 219.5 c 128,-1,14
 1481 410 1481 410 1481 678 c 0,15,16
 1481 945 1481 945 1290 1136 c 128,-1,17
 1099 1327 1099 1327 831 1327 c 0,18,19
 564 1327 564 1327 373 1136 c 128,-1,20
 182 945 182 945 182 678 c 0,21,22
 182 409 182 409 372.5 219 c 128,-1,23
 563 29 563 29 831 29 c 0,12,13
1178 432 m 1,24,25
 1032 266 1032 266 840 266 c 0,26,27
 660 266 660 266 543 387 c 128,-1,28
 426 508 426 508 426 692 c 0,29,30
 426 876 426 876 547 997 c 128,-1,31
 668 1118 668 1118 862 1118 c 0,32,33
 930 1118 930 1118 1032 1092 c 0,34,35
 1063 1083 1063 1083 1069 1083 c 0,36,37
 1096 1083 1096 1083 1100 1118 c 1,38,-1
 1141 1118 l 1,39,-1
 1141 870 l 1,40,-1
 1104 870 l 1,41,42
 1061 1061 1061 1061 866 1061 c 0,43,44
 737 1061 737 1061 662.5 966.5 c 128,-1,45
 588 872 588 872 588 694 c 0,46,47
 588 526 588 526 674 432 c 128,-1,48
 760 338 760 338 887 338 c 0,49,50
 1026 338 1026 338 1159 463 c 1,51,-1
 1178 432 l 1,24,25
EndSplineSet
EndChar
StartChar: trademark
Encoding: 8482 8482 140
Width: 2007
Flags: W
Fore
2075 543 m 1,0,-1
 1698 543 l 1,1,-1
 1698 584 l 1,2,3
 1783 584 1783 584 1799 601 c 128,-1,4
 1815 618 1815 618 1815 698 c 2,5,-1
 1815 1223 l 1,6,-1
 1501 543 l 1,7,-1
 1473 543 l 1,8,-1
 1182 1225 l 1,9,-1
 1182 698 l 2,10,11
 1182 618 1182 618 1198 601 c 128,-1,12
 1214 584 1214 584 1298 584 c 1,13,-1
 1298 543 l 1,14,-1
 1001 543 l 1,15,-1
 1001 584 l 1,16,17
 1086 584 1086 584 1102 601 c 128,-1,18
 1118 618 1118 618 1118 698 c 2,19,-1
 1118 1202 l 2,20,21
 1118 1289 1118 1289 1093.5 1303 c 128,-1,22
 1069 1317 1069 1317 1001 1317 c 1,23,-1
 1001 1356 l 1,24,-1
 1280 1356 l 1,25,-1
 1534 752 l 1,26,-1
 1810 1356 l 1,27,-1
 2075 1356 l 1,28,-1
 2075 1317 l 1,29,30
 1990 1317 1990 1317 1974 1299.5 c 128,-1,31
 1958 1282 1958 1282 1958 1200 c 2,32,-1
 1958 698 l 2,33,34
 1958 618 1958 618 1974 601 c 128,-1,35
 1990 584 1990 584 2075 584 c 1,36,-1
 2075 543 l 1,0,-1
934 1141 m 1,37,-1
 891 1141 l 1,38,39
 891 1292 891 1292 770 1292 c 2,40,-1
 641 1292 l 1,41,-1
 641 698 l 2,42,43
 641 620 641 620 658.5 602 c 128,-1,44
 676 584 676 584 758 584 c 1,45,-1
 758 543 l 1,46,-1
 381 543 l 1,47,-1
 381 584 l 1,48,49
 462 584 462 584 480 602 c 128,-1,50
 498 620 498 620 498 698 c 2,51,-1
 498 1292 l 1,52,-1
 369 1292 l 2,53,54
 248 1292 248 1292 248 1141 c 1,55,-1
 205 1141 l 1,56,-1
 205 1356 l 1,57,-1
 934 1356 l 1,58,-1
 934 1141 l 1,37,-1
EndSplineSet
Ligature: 0 3 'liga' T M
EndChar
StartChar: acute
Encoding: 180 180 141
Width: 682
Flags: W
Fore
766 1348 m 1,0,-1
 426 1051 l 1,1,-1
 391 1051 l 1,2,-1
 537 1348 l 1,3,-1
 766 1348 l 1,0,-1
EndSplineSet
EndChar
StartChar: dieresis
Encoding: 168 168 142
Width: 682
Flags: W
Fore
682 1319 m 0,0,1
 728 1319 728 1319 760.5 1286.5 c 128,-1,2
 793 1254 793 1254 793 1208 c 0,3,4
 793 1162 793 1162 760.5 1130 c 128,-1,5
 728 1098 728 1098 682 1098 c 0,6,7
 636 1098 636 1098 603.5 1130 c 128,-1,8
 571 1162 571 1162 571 1208 c 0,9,10
 571 1254 571 1254 603.5 1286.5 c 128,-1,11
 636 1319 636 1319 682 1319 c 0,0,1
332 1319 m 0,12,13
 378 1319 378 1319 410 1286.5 c 128,-1,14
 442 1254 442 1254 442 1208 c 0,15,16
 442 1162 442 1162 410 1130 c 128,-1,17
 378 1098 378 1098 332 1098 c 0,18,19
 286 1098 286 1098 253.5 1130 c 128,-1,20
 221 1162 221 1162 221 1208 c 0,21,22
 221 1254 221 1254 253.5 1286.5 c 128,-1,23
 286 1319 286 1319 332 1319 c 0,12,13
EndSplineSet
EndChar
StartChar: notequal
Encoding: 8800 8800 143
Width: 1124
Flags: W
Fore
766 885 m 1,0,-1
 1153 885 l 1,1,-1
 1153 803 l 1,2,-1
 723 803 l 1,3,-1
 596 557 l 1,4,-1
 1153 557 l 1,5,-1
 1153 475 l 1,6,-1
 553 475 l 1,7,-1
 377 139 l 1,8,-1
 287 139 l 1,9,-1
 463 475 l 1,10,-1
 76 475 l 1,11,-1
 76 557 l 1,12,-1
 506 557 l 1,13,-1
 633 803 l 1,14,-1
 76 803 l 1,15,-1
 76 885 l 1,16,-1
 676 885 l 1,17,-1
 852 1221 l 1,18,-1
 942 1221 l 1,19,-1
 766 885 l 1,0,-1
EndSplineSet
EndChar
StartChar: AE
Encoding: 198 198 144
Width: 1821
Flags: W
Fore
1864 1356 m 1,0,-1
 1776 1028 l 1,1,-1
 1729 1028 l 1,2,3
 1741 1112 1741 1112 1741 1141 c 0,4,5
 1741 1186 1741 1186 1728.5 1215.5 c 128,-1,6
 1716 1245 1716 1245 1668 1264.5 c 128,-1,7
 1620 1284 1620 1284 1522 1284 c 2,8,-1
 1274 1284 l 1,9,-1
 1118 745 l 1,10,-1
 1294 745 l 2,11,12
 1392 745 1392 745 1429 754 c 128,-1,13
 1466 763 1466 763 1492 799.5 c 128,-1,14
 1518 836 1518 836 1563 940 c 1,15,-1
 1610 940 l 1,16,-1
 1470 446 l 1,17,-1
 1423 446 l 1,18,19
 1440 520 1440 520 1440 563 c 0,20,21
 1440 630 1440 630 1411 652 c 128,-1,22
 1382 674 1382 674 1311 674 c 2,23,-1
 1100 674 l 1,24,-1
 977 246 l 2,25,26
 952 159 952 159 952 135 c 0,27,28
 952 97 952 97 971.5 84.5 c 128,-1,29
 991 72 991 72 1102 72 c 0,30,31
 1304 72 1304 72 1396 89 c 128,-1,32
 1488 106 1488 106 1544 168 c 128,-1,33
 1600 230 1600 230 1651 377 c 1,34,-1
 1698 377 l 1,35,-1
 1587 0 l 1,36,-1
 553 0 l 1,37,-1
 565 47 l 1,38,39
 659 47 659 47 695 66 c 128,-1,40
 731 85 731 85 752.5 140 c 128,-1,41
 774 195 774 195 846 444 c 1,42,-1
 416 444 l 1,43,44
 213 190 213 190 193.5 164 c 128,-1,45
 174 138 174 138 174 113 c 0,46,47
 174 47 174 47 293 47 c 1,48,-1
 281 0 l 1,49,-1
 -150 0 l 1,50,-1
 -137 47 l 1,51,52
 -13 47 -13 47 117 207 c 2,53,-1
 903 1176 l 2,54,55
 950 1236 950 1236 950 1262 c 0,56,57
 950 1309 950 1309 834 1309 c 1,58,-1
 846 1356 l 1,59,-1
 1864 1356 l 1,0,-1
1090 1284 m 1,60,-1
 483 528 l 1,61,-1
 870 528 l 1,62,-1
 1090 1284 l 1,60,-1
EndSplineSet
EndChar
StartChar: Oslash
Encoding: 216 216 145
Width: 1479
Flags: W
Fore
1505 1364 m 1,0,-1
 1368 1221 l 1,1,2
 1468 1089 1468 1089 1468 911 c 0,3,4
 1468 715 1468 715 1352 482 c 128,-1,5
 1236 249 1236 249 1034.5 109 c 128,-1,6
 833 -31 833 -31 582 -31 c 0,7,8
 389 -31 389 -31 268 80 c 1,9,-1
 123 -72 l 1,10,-1
 68 -25 l 1,11,-1
 219 133 l 1,12,13
 117 269 117 269 117 449 c 0,14,15
 117 657 117 657 242.5 883 c 128,-1,16
 368 1109 368 1109 572 1247.5 c 128,-1,17
 776 1386 776 1386 997 1386 c 0,18,19
 1192 1386 1192 1386 1319 1274 c 1,20,-1
 1450 1411 l 1,21,-1
 1505 1364 l 1,0,-1
1208 1161 m 1,22,23
 1140 1313 1140 1313 975 1313 c 0,24,25
 806 1313 806 1313 661 1174.5 c 128,-1,26
 516 1036 516 1036 428 809 c 128,-1,27
 340 582 340 582 340 399 c 0,28,29
 340 334 340 334 352 272 c 1,30,-1
 1208 1161 l 1,22,23
379 195 m 1,31,32
 450 43 450 43 616 43 c 0,33,34
 778 43 778 43 922 185.5 c 128,-1,35
 1066 328 1066 328 1155.5 559 c 128,-1,36
 1245 790 1245 790 1245 973 c 0,37,38
 1245 1023 1245 1023 1235 1081 c 1,39,-1
 379 195 l 1,31,32
EndSplineSet
EndChar
StartChar: infinity
Encoding: 8734 8734 146
Width: 1460
Flags: W
Fore
1407 526 m 0,0,1
 1407 340 1407 340 1292 219 c 0,2,3
 1242 166 1242 166 1180.5 136 c 128,-1,4
 1119 106 1119 106 1057 106 c 0,5,6
 997 106 997 106 945 131 c 128,-1,7
 893 156 893 156 843.5 211 c 128,-1,8
 794 266 794 266 745 350 c 2,9,-1
 721 393 l 1,10,11
 677 310 677 310 630.5 258.5 c 128,-1,12
 584 207 584 207 527.5 183.5 c 128,-1,13
 471 160 471 160 397 160 c 0,14,15
 297 160 297 160 219.5 207 c 128,-1,16
 142 254 142 254 97.5 339 c 128,-1,17
 53 424 53 424 53 528 c 0,18,19
 53 630 53 630 93.5 714.5 c 128,-1,20
 134 799 134 799 204 847 c 128,-1,21
 274 895 274 895 360 895 c 0,22,23
 472 895 472 895 543 827 c 0,24,25
 597 773 597 773 653 668 c 1,26,27
 701 776 701 776 748 834 c 0,28,29
 843 944 843 944 1024 944 c 0,30,31
 1096 944 1096 944 1152 924.5 c 128,-1,32
 1208 905 1208 905 1262 860 c 0,33,34
 1407 736 1407 736 1407 526 c 0,0,1
1350 526 m 0,35,36
 1350 616 1350 616 1312 695.5 c 128,-1,37
 1274 775 1274 775 1208 820.5 c 128,-1,38
 1142 866 1142 866 1067 866 c 0,39,40
 963 866 963 866 895 782 c 0,41,42
 866 746 866 746 840.5 690 c 128,-1,43
 815 634 815 634 762 494 c 2,44,-1
 750 465 l 1,45,46
 799 364 799 364 843 308.5 c 128,-1,47
 887 253 887 253 940.5 227 c 128,-1,48
 994 201 994 201 1061 201 c 0,49,50
 1144 201 1144 201 1210 242.5 c 128,-1,51
 1276 284 1276 284 1313 358 c 128,-1,52
 1350 432 1350 432 1350 526 c 0,35,36
625 590 m 1,53,54
 587 670 587 670 550 715 c 128,-1,55
 513 760 513 760 465.5 782.5 c 128,-1,56
 418 805 418 805 358 805 c 0,57,58
 284 805 284 805 228 770 c 128,-1,59
 172 735 172 735 140.5 673 c 128,-1,60
 109 611 109 611 109 530 c 0,61,62
 109 451 109 451 139.5 383 c 128,-1,63
 170 315 170 315 222.5 276.5 c 128,-1,64
 275 238 275 238 338 238 c 0,65,66
 398 238 398 238 453 274.5 c 128,-1,67
 508 311 508 311 537 367 c 0,68,69
 576 444 576 444 614 557 c 2,70,-1
 625 590 l 1,53,54
EndSplineSet
EndChar
StartChar: plusminus
Encoding: 177 177 147
Width: 1124
Flags: W
Fore
1153 141 m 1,0,-1
 75 141 l 1,1,-1
 75 223 l 1,2,-1
 573 223 l 1,3,-1
 573 639 l 1,4,-1
 75 639 l 1,5,-1
 75 721 l 1,6,-1
 573 721 l 1,7,-1
 573 1219 l 1,8,-1
 655 1219 l 1,9,-1
 655 721 l 1,10,-1
 1153 721 l 1,11,-1
 1153 639 l 1,12,-1
 655 639 l 1,13,-1
 655 223 l 1,14,-1
 1153 223 l 1,15,-1
 1153 141 l 1,0,-1
EndSplineSet
EndChar
StartChar: lessequal
Encoding: 8804 8804 148
Width: 1124
Flags: W
Fore
1065 221 m 1,0,-1
 59 719 l 1,1,-1
 59 770 l 1,2,-1
 1065 1272 l 1,3,-1
 1065 1161 l 1,4,-1
 223 745 l 1,5,-1
 1065 328 l 1,6,-1
 1065 221 l 1,0,-1
1065 0 m 1,7,-1
 59 0 l 1,8,-1
 59 96 l 1,9,-1
 1065 96 l 1,10,-1
 1065 0 l 1,7,-1
EndSplineSet
EndChar
StartChar: greaterequal
Encoding: 8805 8805 149
Width: 1124
Flags: W
Fore
1065 723 m 1,0,-1
 59 221 l 1,1,-1
 59 332 l 1,2,-1
 901 748 l 1,3,-1
 59 1165 l 1,4,-1
 59 1272 l 1,5,-1
 1065 774 l 1,6,-1
 1065 723 l 1,0,-1
1065 0 m 1,7,-1
 59 0 l 1,8,-1
 59 96 l 1,9,-1
 1065 96 l 1,10,-1
 1065 0 l 1,7,-1
EndSplineSet
EndChar
StartChar: yen
Encoding: 165 165 150
Width: 1024
Flags: W
Fore
1264 1356 m 1,0,-1
 1249 1309 l 1,1,2
 1153 1309 1153 1309 1080 1216 c 2,3,-1
 647 653 l 1,4,-1
 1018 653 l 1,5,-1
 997 580 l 1,6,-1
 612 580 l 1,7,-1
 561 397 l 1,8,-1
 946 397 l 1,9,-1
 924 324 l 1,10,-1
 539 324 l 1,11,12
 490 158 490 158 490 121 c 0,13,14
 490 77 490 77 526 62 c 128,-1,15
 562 47 562 47 653 47 c 1,16,-1
 639 0 l 1,17,-1
 88 0 l 1,18,-1
 102 47 l 1,19,20
 205 47 205 47 249 67 c 128,-1,21
 293 87 293 87 310.5 128 c 128,-1,22
 328 169 328 169 373 324 c 1,23,-1
 -12 324 l 1,24,-1
 10 397 l 1,25,-1
 395 397 l 1,26,-1
 446 580 l 1,27,-1
 61 580 l 1,28,-1
 82 653 l 1,29,-1
 451 653 l 1,30,-1
 379 1041 l 2,31,32
 347 1210 347 1210 338 1240.5 c 128,-1,33
 329 1271 329 1271 304.5 1290 c 128,-1,34
 280 1309 280 1309 229 1309 c 1,35,-1
 244 1356 l 1,36,-1
 680 1356 l 1,37,-1
 666 1309 l 1,38,39
 522 1309 522 1309 522 1251 c 0,40,41
 522 1230 522 1230 614 719 c 1,42,43
 949 1169 949 1169 976.5 1206.5 c 128,-1,44
 1004 1244 1004 1244 1004 1266 c 0,45,46
 1004 1287 1004 1287 983.5 1298 c 128,-1,47
 963 1309 963 1309 903 1309 c 1,48,-1
 918 1356 l 1,49,-1
 1264 1356 l 1,0,-1
EndSplineSet
EndChar
StartChar: uni00B5
Encoding: 181 181 151
Width: 1180
Flags: W
Fore
139 -395.5 m 128,-1,1
 112 -440 112 -440 62 -440 c 0,2,3
 30 -440 30 -440 10 -418 c 128,-1,4
 -10 -396 -10 -396 -10 -362 c 0,5,6
 -10 -323 -10 -323 59 -184 c 0,7,8
 147 -6 147 -6 163 62 c 2,9,-1
 274 460 l 2,10,11
 369 791 369 791 369 834 c 0,12,13
 369 864 369 864 344 864 c 0,14,15
 290 864 290 864 225 778 c 1,16,-1
 193 803 l 1,17,18
 305 965 305 965 451 965 c 0,19,20
 491 965 491 965 516 943 c 128,-1,21
 541 921 541 921 541 883 c 0,22,23
 541 853 541 853 493 680 c 2,24,-1
 371 233 l 2,25,26
 352 167 352 167 352 145 c 0,27,28
 352 94 352 94 400 94 c 0,29,30
 426 94 426 94 462.5 115.5 c 128,-1,31
 499 137 499 137 538.5 171 c 128,-1,32
 578 205 578 205 615.5 243 c 128,-1,33
 653 281 653 281 682.5 315 c 128,-1,34
 712 349 712 349 732 373 c 128,-1,35
 752 397 752 397 755 410 c 2,36,-1
 901 940 l 1,37,-1
 1061 940 l 1,38,-1
 856 190 l 2,39,40
 840 129 840 129 840 106 c 0,41,42
 840 95 840 95 849.5 85.5 c 128,-1,43
 859 76 859 76 871 76 c 0,44,45
 901 76 901 76 943 106.5 c 128,-1,46
 985 137 985 137 1014 178 c 1,47,-1
 1047 154 l 1,48,49
 924 -25 924 -25 760 -25 c 0,50,51
 719 -25 719 -25 694.5 -3 c 128,-1,52
 670 19 670 19 670 57 c 0,53,54
 670 83 670 83 725 295 c 1,55,56
 613 150 613 150 500.5 62.5 c 128,-1,57
 388 -25 388 -25 303 -25 c 0,58,59
 252 -25 252 -25 213 14 c 1,60,61
 191 -75 191 -75 178 -217 c 0,62,0
 166 -351 166 -351 139 -395.5 c 128,-1,1
EndSplineSet
EndChar
StartChar: partialdiff
Encoding: 8706 8706 152
Width: 1012
Flags: W
Fore
995 920 m 0,0,1
 995 780 995 780 967 639 c 128,-1,2
 939 498 939 498 885.5 375.5 c 128,-1,3
 832 253 832 253 758 156 c 0,4,5
 615 -31 615 -31 403 -31 c 0,6,7
 249 -31 249 -31 157.5 60.5 c 128,-1,8
 66 152 66 152 66 305 c 0,9,10
 66 462 66 462 142.5 601.5 c 128,-1,11
 219 741 219 741 346 824 c 128,-1,12
 473 907 473 907 616 907 c 0,13,14
 722 907 722 907 805 856 c 0,15,16
 849 829 849 829 877 798 c 128,-1,17
 905 767 905 767 928 717 c 1,18,-1
 932 717 l 1,19,20
 942 864 942 864 942 903 c 0,21,22
 942 1020 942 1020 900.5 1105 c 128,-1,23
 859 1190 859 1190 780.5 1235 c 128,-1,24
 702 1280 702 1280 596 1280 c 0,25,26
 496 1280 496 1280 424.5 1242.5 c 128,-1,27
 353 1205 353 1205 295 1120 c 1,28,-1
 250 1120 l 1,29,30
 285 1194 285 1194 311.5 1236 c 128,-1,31
 338 1278 338 1278 375 1315 c 0,32,33
 424 1366 424 1366 492 1394.5 c 128,-1,34
 560 1423 560 1423 629 1423 c 0,35,36
 676 1423 676 1423 723 1409.5 c 128,-1,37
 770 1396 770 1396 811 1370 c 128,-1,38
 852 1344 852 1344 881 1311 c 0,39,40
 995 1181 995 1181 995 920 c 0,0,1
911 629 m 1,41,42
 875 734 875 734 800 794 c 128,-1,43
 725 854 725 854 627 854 c 0,44,45
 546 854 546 854 469.5 805 c 128,-1,46
 393 756 393 756 348 678 c 0,47,48
 315 621 315 621 288 546 c 128,-1,49
 261 471 261 471 247 399.5 c 128,-1,50
 233 328 233 328 233 264 c 0,51,52
 233 156 233 156 286.5 91.5 c 128,-1,53
 340 27 340 27 430 27 c 0,54,55
 502 27 502 27 582 76.5 c 128,-1,56
 662 126 662 126 729 213 c 0,57,58
 799 306 799 306 841 401.5 c 128,-1,59
 883 497 883 497 911 629 c 1,41,42
EndSplineSet
EndChar
StartChar: summation
Encoding: 8721 8721 153
Width: 1460
Flags: W
Fore
1419 212 m 1,0,-1
 1356 -204 l 1,1,-1
 43 -204 l 1,2,-1
 43 -167 l 1,3,-1
 713 664 l 1,4,-1
 43 1478 l 1,5,-1
 43 1517 l 1,6,-1
 1321 1517 l 1,7,-1
 1348 1179 l 1,8,-1
 1309 1179 l 1,9,10
 1293 1312 1293 1312 1233 1373.5 c 128,-1,11
 1173 1435 1173 1435 1059 1435 c 2,12,-1
 319 1435 l 1,13,-1
 881 750 l 1,14,-1
 252 -28 l 1,15,-1
 1071 -28 l 2,16,17
 1125 -28 1125 -28 1185.5 -11 c 128,-1,18
 1246 6 1246 6 1276 28 c 0,19,20
 1312 53 1312 53 1336.5 99 c 128,-1,21
 1361 145 1361 145 1380 220 c 1,22,-1
 1419 212 l 1,0,-1
EndSplineSet
EndChar
StartChar: product
Encoding: 8719 8719 154
Width: 1686
Flags: W
Fore
1640 -204 m 1,0,-1
 1042 -204 l 1,1,-1
 1042 -167 l 1,2,-1
 1077 -167 l 2,3,4
 1164 -167 1164 -167 1202.5 -129.5 c 128,-1,5
 1241 -92 1241 -92 1241 -11 c 2,6,-1
 1241 1439 l 1,7,-1
 444 1439 l 1,8,-1
 444 -11 l 2,9,10
 444 -90 444 -90 483.5 -128.5 c 128,-1,11
 523 -167 523 -167 606 -167 c 2,12,-1
 643 -167 l 1,13,-1
 643 -204 l 1,14,-1
 45 -204 l 1,15,-1
 45 -167 l 1,16,-1
 80 -167 l 2,17,18
 167 -167 167 -167 205.5 -129.5 c 128,-1,19
 244 -92 244 -92 244 -11 c 2,20,-1
 244 1324 l 2,21,22
 244 1407 244 1407 205.5 1443.5 c 128,-1,23
 167 1480 167 1480 80 1480 c 2,24,-1
 45 1480 l 1,25,-1
 45 1517 l 1,26,-1
 1640 1517 l 1,27,-1
 1640 1480 l 1,28,-1
 1606 1480 l 2,29,30
 1521 1480 1521 1480 1481.5 1443.5 c 128,-1,31
 1442 1407 1442 1407 1442 1324 c 2,32,-1
 1442 -11 l 2,33,34
 1442 -92 1442 -92 1481.5 -129.5 c 128,-1,35
 1521 -167 1521 -167 1606 -167 c 2,36,-1
 1640 -167 l 1,37,-1
 1640 -204 l 1,0,-1
EndSplineSet
EndChar
StartChar: glyph155
Encoding: 65539 -1 155
Width: 1124
Flags: W
Fore
1049 258 m 1,0,1
 1042 197 1042 197 1030.5 153.5 c 128,-1,2
 1019 110 1019 110 999 74 c 0,3,4
 975 26 975 26 932.5 -2.5 c 128,-1,5
 890 -31 890 -31 842 -31 c 0,6,7
 807 -31 807 -31 772.5 -14.5 c 128,-1,8
 738 2 738 2 719 29 c 0,9,10
 687 73 687 73 673 136.5 c 128,-1,11
 659 200 659 200 659 305 c 0,12,13
 659 367 659 367 666 463 c 0,14,15
 669 490 669 490 671 515.5 c 128,-1,16
 673 541 673 541 680 614 c 0,17,18
 682 632 682 632 685.5 662 c 128,-1,19
 689 692 689 692 692 717 c 2,20,-1
 698 770 l 1,21,-1
 438 770 l 1,22,-1
 434 709 l 2,23,24
 417 415 417 415 394.5 259 c 128,-1,25
 372 103 372 103 336 36 c 128,-1,26
 300 -31 300 -31 242 -31 c 0,27,28
 208 -31 208 -31 183 -6 c 128,-1,29
 158 19 158 19 158 53 c 0,30,31
 158 80 158 80 170 105 c 128,-1,32
 182 130 182 130 213 172 c 0,33,34
 259 231 259 231 281.5 285 c 128,-1,35
 304 339 304 339 319 428 c 0,36,37
 334 513 334 513 341.5 588.5 c 128,-1,38
 349 664 349 664 354 770 c 1,39,-1
 309 770 l 2,40,41
 259 770 259 770 235 763.5 c 128,-1,42
 211 757 211 757 184 737 c 0,43,44
 138 701 138 701 94 627 c 1,45,-1
 55 627 l 1,46,47
 107 787 107 787 171.5 851 c 128,-1,48
 236 915 236 915 346 915 c 2,49,-1
 1049 915 l 1,50,-1
 1049 770 l 1,51,-1
 807 770 l 1,52,53
 790 661 790 661 781 547.5 c 128,-1,54
 772 434 772 434 772 332 c 0,55,56
 772 239 772 239 805 190 c 128,-1,57
 838 141 838 141 897 141 c 0,58,59
 994 141 994 141 1014 258 c 1,60,-1
 1049 258 l 1,0,1
EndSplineSet
EndChar
StartChar: integral
Encoding: 8747 8747 156
Width: 561
Flags: W
Fore
561 1755 m 0,0,1
 561 1726 561 1726 548.5 1702 c 128,-1,2
 536 1678 536 1678 514.5 1665.5 c 128,-1,3
 493 1653 493 1653 467 1653 c 0,4,5
 431 1653 431 1653 391 1688 c 0,6,7
 371 1708 371 1708 352 1708 c 0,8,9
 311 1708 311 1708 311 1645 c 0,10,11
 311 1599 311 1599 322 1499 c 0,12,13
 340 1295 340 1295 349 1128 c 128,-1,14
 358 961 358 961 358 834 c 2,15,-1
 356 713 l 1,16,-1
 342 242 l 2,17,18
 336 52 336 52 293 -78 c 0,19,20
 271 -145 271 -145 225 -182 c 128,-1,21
 179 -219 179 -219 119 -219 c 0,22,23
 65 -219 65 -219 32.5 -185.5 c 128,-1,24
 0 -152 0 -152 0 -98 c 0,25,26
 0 -54 0 -54 25 -27 c 128,-1,27
 50 0 50 0 90 0 c 0,28,29
 132 0 132 0 160 -33 c 0,30,31
 173 -47 173 -47 184 -55 c 128,-1,32
 195 -63 195 -63 209 -63 c 0,33,34
 248 -63 248 -63 248 -2 c 0,35,36
 248 35 248 35 238 117 c 0,37,38
 218 287 218 287 209 512 c 0,39,40
 206 616 206 616 203 741 c 0,41,42
 201 811 201 811 201 895 c 2,43,-1
 217 1448 l 2,44,45
 223 1639 223 1639 283 1765 c 0,46,47
 302 1805 302 1805 346.5 1834.5 c 128,-1,48
 391 1864 391 1864 434 1864 c 0,49,50
 465 1864 465 1864 495.5 1849 c 128,-1,51
 526 1834 526 1834 543.5 1808 c 128,-1,52
 561 1782 561 1782 561 1755 c 0,0,1
EndSplineSet
EndChar
StartChar: ordfeminine
Encoding: 170 170 157
Width: 565
Flags: W
Fore
750 1366 m 1,0,-1
 655 1021 l 2,1,2
 618 888 618 888 618 874 c 0,3,4
 618 868 618 868 624.5 862 c 128,-1,5
 631 856 631 856 637 856 c 0,6,7
 678 856 678 856 719 913 c 1,8,-1
 745 889 l 1,9,10
 671 786 671 786 551 786 c 0,11,12
 523 786 523 786 499 800 c 128,-1,13
 475 814 475 814 475 836 c 0,14,15
 475 858 475 858 504 956 c 1,16,17
 464 884 464 884 401 835 c 128,-1,18
 338 786 338 786 279 786 c 0,19,20
 210 786 210 786 169.5 830 c 128,-1,21
 129 874 129 874 129 948 c 0,22,23
 129 1110 129 1110 244.5 1248 c 128,-1,24
 360 1386 360 1386 500 1386 c 0,25,26
 576 1386 576 1386 602 1315 c 1,27,-1
 616 1366 l 1,28,-1
 750 1366 l 1,0,-1
582 1237 m 2,29,30
 585 1250 585 1250 572.5 1280 c 128,-1,31
 560 1310 560 1310 542 1324.5 c 128,-1,32
 524 1339 524 1339 500 1339 c 0,33,34
 414 1339 414 1339 341 1217 c 128,-1,35
 268 1095 268 1095 268 963 c 0,36,37
 268 868 268 868 336 868 c 0,38,39
 399 868 399 868 462.5 952.5 c 128,-1,40
 526 1037 526 1037 530 1055 c 2,41,-1
 582 1237 l 2,29,30
EndSplineSet
EndChar
StartChar: ordmasculine
Encoding: 186 186 158
Width: 635
Flags: W
Fore
559 1386 m 0,0,1
 653 1386 653 1386 707.5 1328.5 c 128,-1,2
 762 1271 762 1271 762 1176 c 0,3,4
 762 1029 762 1029 659.5 907.5 c 128,-1,5
 557 786 557 786 416 786 c 0,6,7
 207 786 207 786 207 993 c 0,8,9
 207 1137 207 1137 314 1261.5 c 128,-1,10
 421 1386 421 1386 559 1386 c 0,0,1
420 827 m 0,11,12
 505 827 505 827 564 948.5 c 128,-1,13
 623 1070 623 1070 623 1219 c 0,14,15
 623 1346 623 1346 553 1346 c 0,16,17
 468 1346 468 1346 407 1216.5 c 128,-1,18
 346 1087 346 1087 346 958 c 0,19,20
 346 887 346 887 364 857 c 128,-1,21
 382 827 382 827 420 827 c 0,11,12
EndSplineSet
EndChar
StartChar: uni2126
Encoding: 8486 8486 159
Width: 1573
Flags: W
Fore
1518 0 m 1,0,-1
 950 0 l 1,1,-1
 973 279 l 1,2,3
 1070 318 1070 318 1131 381 c 128,-1,4
 1192 444 1192 444 1220.5 535.5 c 128,-1,5
 1249 627 1249 627 1249 754 c 0,6,7
 1249 1013 1249 1013 1126 1159 c 0,8,9
 1062 1235 1062 1235 974 1276 c 128,-1,10
 886 1317 886 1317 782 1317 c 0,11,12
 680 1317 680 1317 595 1277.5 c 128,-1,13
 510 1238 510 1238 448 1165 c 128,-1,14
 386 1092 386 1092 352.5 990 c 128,-1,15
 319 888 319 888 319 768 c 0,16,17
 319 635 319 635 357 525.5 c 128,-1,18
 395 416 395 416 463 354 c 0,19,20
 494 326 494 326 520 311.5 c 128,-1,21
 546 297 546 297 596 279 c 1,22,-1
 618 0 l 1,23,-1
 55 0 l 1,24,-1
 55 279 l 1,25,-1
 90 279 l 1,26,27
 93 218 93 218 121 197 c 0,28,29
 147 177 147 177 176.5 169.5 c 128,-1,30
 206 162 206 162 260 162 c 2,31,-1
 530 162 l 1,32,-1
 530 231 l 1,33,34
 393 271 393 271 293.5 349.5 c 128,-1,35
 194 428 194 428 143 539.5 c 128,-1,36
 92 651 92 651 92 788 c 0,37,38
 92 918 92 918 142.5 1029 c 128,-1,39
 193 1140 193 1140 285 1220 c 128,-1,40
 377 1300 377 1300 503.5 1343 c 128,-1,41
 630 1386 630 1386 782 1386 c 0,42,43
 936 1386 936 1386 1065.5 1342.5 c 128,-1,44
 1195 1299 1195 1299 1286.5 1221 c 128,-1,45
 1378 1143 1378 1143 1429.5 1031.5 c 128,-1,46
 1481 920 1481 920 1481 788 c 0,47,48
 1481 651 1481 651 1426.5 535 c 128,-1,49
 1372 419 1372 419 1272 339.5 c 128,-1,50
 1172 260 1172 260 1042 231 c 1,51,-1
 1034 162 l 1,52,-1
 1309 162 l 2,53,54
 1397 162 1397 162 1434 186.5 c 128,-1,55
 1471 211 1471 211 1479 279 c 1,56,-1
 1518 279 l 1,57,-1
 1518 0 l 1,0,-1
EndSplineSet
EndChar
StartChar: ae
Encoding: 230 230 160
Width: 1366
Flags: W
Fore
911 838 m 1,0,1
 1011 965 1011 965 1145 965 c 0,2,3
 1354 965 1354 965 1354 799 c 0,4,5
 1354 637 1354 637 1209 530 c 128,-1,6
 1064 423 1064 423 795 403 c 1,7,8
 784 337 784 337 784 293 c 0,9,10
 784 80 784 80 952 80 c 0,11,12
 1013 80 1013 80 1064.5 102.5 c 128,-1,13
 1116 125 1116 125 1202 195 c 1,14,-1
 1225 156 l 1,15,16
 1128 51 1128 51 1051 13 c 128,-1,17
 974 -25 974 -25 872 -25 c 0,18,19
 619 -25 619 -25 616 258 c 1,20,21
 551 130 551 130 459 52.5 c 128,-1,22
 367 -25 367 -25 274 -25 c 0,23,24
 181 -25 181 -25 125.5 48 c 128,-1,25
 70 121 70 121 70 244 c 0,26,27
 70 522 70 522 217 743.5 c 128,-1,28
 364 965 364 965 569 965 c 0,29,30
 630 965 630 965 679.5 931.5 c 128,-1,31
 729 898 729 898 745 846 c 1,32,-1
 768 932 l 1,33,-1
 938 932 l 1,34,-1
 911 838 l 1,0,1
809 465 m 1,35,36
 1001 481 1001 481 1094.5 569.5 c 128,-1,37
 1188 658 1188 658 1188 795 c 0,38,39
 1188 905 1188 905 1118 905 c 0,40,41
 1042 905 1042 905 956 799 c 128,-1,42
 870 693 870 693 809 465 c 1,35,36
717 737 m 2,43,44
 720 750 720 750 705 788.5 c 128,-1,45
 690 827 690 827 671 851.5 c 128,-1,46
 652 876 652 876 626.5 890.5 c 128,-1,47
 601 905 601 905 571 905 c 0,48,49
 450 905 450 905 348 698.5 c 128,-1,50
 246 492 246 492 246 268 c 0,51,52
 246 94 246 94 346 94 c 0,53,54
 429 94 429 94 525 237.5 c 128,-1,55
 621 381 621 381 631 418 c 2,56,-1
 717 737 l 2,43,44
EndSplineSet
EndChar
StartChar: oslash
Encoding: 248 248 161
Width: 1024
Flags: W
Fore
1008 971 m 1,0,-1
 893 848 l 1,1,2
 958 753 958 753 958 618 c 0,3,4
 958 375 958 375 795 175 c 128,-1,5
 632 -25 632 -25 401 -25 c 0,6,7
 249 -25 249 -25 164 51 c 1,8,-1
 51 -74 l 1,9,-1
 10 -31 l 1,10,-1
 125 94 l 1,11,12
 70 180 70 180 70 317 c 0,13,14
 70 556 70 556 241 760.5 c 128,-1,15
 412 965 412 965 639 965 c 0,16,17
 774 965 774 965 854 891 c 1,18,-1
 967 1014 l 1,19,-1
 1008 971 l 1,0,-1
768 795 m 1,20,21
 731 905 731 905 629 905 c 0,22,23
 480 905 480 905 363 684 c 128,-1,24
 246 463 246 463 246 260 c 2,25,-1
 246 227 l 1,26,-1
 768 795 l 1,20,21
258 154 m 1,27,28
 294 35 294 35 410 35 c 0,29,30
 557 35 557 35 669.5 243.5 c 128,-1,31
 782 452 782 452 782 688 c 0,32,33
 782 714 782 714 780 723 c 1,34,-1
 258 154 l 1,27,28
EndSplineSet
EndChar
StartChar: questiondown
Encoding: 191 191 162
Width: 1024
Flags: W
Fore
739 973 m 0,0,1
 785 973 785 973 817.5 940.5 c 128,-1,2
 850 908 850 908 850 862 c 0,3,4
 850 816 850 816 817.5 784 c 128,-1,5
 785 752 785 752 739 752 c 0,6,7
 693 752 693 752 661 784 c 128,-1,8
 629 816 629 816 629 862 c 0,9,10
 629 908 629 908 661 940.5 c 128,-1,11
 693 973 693 973 739 973 c 0,0,1
711 631 m 1,12,-1
 616 301 l 1,13,14
 370 233 370 233 271 146 c 128,-1,15
 172 59 172 59 172 -72 c 0,16,17
 172 -161 172 -161 232 -224 c 128,-1,18
 292 -287 292 -287 379 -287 c 0,19,20
 411 -287 411 -287 454 -263 c 0,21,22
 505 -233 505 -233 553 -233 c 0,23,24
 584 -233 584 -233 604.5 -255.5 c 128,-1,25
 625 -278 625 -278 625 -311 c 0,26,27
 625 -364 625 -364 572 -403 c 128,-1,28
 519 -442 519 -442 438 -442 c 0,29,30
 295 -442 295 -442 182.5 -292.5 c 128,-1,31
 70 -143 70 -143 70 12 c 0,32,33
 70 179 70 179 195.5 289 c 128,-1,34
 321 399 321 399 610 479 c 1,35,-1
 653 631 l 1,36,-1
 711 631 l 1,12,-1
EndSplineSet
EndChar
StartChar: exclamdown
Encoding: 161 161 163
Width: 797
Flags: W
Fore
530 973 m 0,0,1
 576 973 576 973 608.5 940.5 c 128,-1,2
 641 908 641 908 641 862 c 0,3,4
 641 816 641 816 608.5 784 c 128,-1,5
 576 752 576 752 530 752 c 0,6,7
 485 752 485 752 452.5 784 c 128,-1,8
 420 816 420 816 420 862 c 0,9,10
 420 908 420 908 452 940.5 c 128,-1,11
 484 973 484 973 530 973 c 0,0,1
506 614 m 1,12,13
 384 19 384 19 351.5 -211.5 c 128,-1,14
 319 -442 319 -442 203 -442 c 0,15,16
 166 -442 166 -442 144.5 -417.5 c 128,-1,17
 123 -393 123 -393 123 -358 c 0,18,19
 123 -279 123 -279 230 10 c 2,20,-1
 455 614 l 1,21,-1
 506 614 l 1,12,13
EndSplineSet
EndChar
StartChar: logicalnot
Encoding: 172 172 164
Width: 1382
Flags: W
Fore
1282 477 m 1,0,-1
 1200 477 l 1,1,-1
 1200 801 l 1,2,-1
 207 801 l 1,3,-1
 207 883 l 1,4,-1
 1282 883 l 1,5,-1
 1282 477 l 1,0,-1
EndSplineSet
EndChar
StartChar: radical
Encoding: 8730 8730 165
Width: 1124
Flags: W
Fore
1124 1870 m 1,0,-1
 813 -78 l 1,1,-1
 317 944 l 1,2,-1
 119 852 l 1,3,-1
 84 915 l 1,4,-1
 385 1067 l 1,5,-1
 788 244 l 1,6,-1
 793 244 l 1,7,-1
 1051 1870 l 1,8,-1
 1124 1870 l 1,0,-1
EndSplineSet
EndChar
StartChar: florin
Encoding: 402 402 166
Width: 1024
Flags: W
Fore
543 932 m 1,0,1
 584 1105 584 1105 609.5 1164.5 c 128,-1,2
 635 1224 635 1224 687 1286.5 c 128,-1,3
 739 1349 739 1349 802.5 1385 c 128,-1,4
 866 1421 866 1421 930 1421 c 0,5,6
 1017 1421 1017 1421 1066.5 1376.5 c 128,-1,7
 1116 1332 1116 1332 1116 1262 c 0,8,9
 1116 1225 1116 1225 1097 1203.5 c 128,-1,10
 1078 1182 1078 1182 1049 1182 c 0,11,12
 978 1182 978 1182 965 1290 c 0,13,14
 954 1362 954 1362 903 1362 c 0,15,16
 855 1362 855 1362 816.5 1302 c 128,-1,17
 778 1242 778 1242 709 932 c 1,18,-1
 883 932 l 1,19,-1
 866 866 l 1,20,-1
 692 866 l 1,21,-1
 532 195 l 2,22,23
 485 -3 485 -3 416.5 -141.5 c 128,-1,24
 348 -280 348 -280 267.5 -351 c 128,-1,25
 187 -422 187 -422 102 -422 c 0,26,27
 21 -422 21 -422 -31.5 -384.5 c 128,-1,28
 -84 -347 -84 -347 -84 -295 c 0,29,30
 -84 -265 -84 -265 -65.5 -244 c 128,-1,31
 -47 -223 -47 -223 -18 -223 c 0,32,33
 6 -223 6 -223 27.5 -239 c 128,-1,34
 49 -255 49 -255 78 -307 c 0,35,36
 105 -362 105 -362 141 -362 c 0,37,38
 190 -362 190 -362 228.5 -290 c 128,-1,39
 267 -218 267 -218 311 -33 c 2,40,-1
 526 866 l 1,41,-1
 369 866 l 1,42,-1
 385 932 l 1,43,-1
 543 932 l 1,0,1
EndSplineSet
EndChar
StartChar: approxequal
Encoding: 8776 8776 167
Width: 1124
Flags: W
Fore
1073 874 m 1,0,1
 1053 722 1053 722 979.5 637.5 c 128,-1,2
 906 553 906 553 791 553 c 0,3,4
 735 553 735 553 667.5 579.5 c 128,-1,5
 600 606 600 606 487 670 c 0,6,7
 347 748 347 748 276 748 c 0,8,9
 204 748 204 748 157.5 698.5 c 128,-1,10
 111 649 111 649 98 561 c 1,11,-1
 51 561 l 1,12,13
 71 712 71 712 144 797.5 c 128,-1,14
 217 883 217 883 326 883 c 0,15,16
 374 883 374 883 449 858 c 0,17,18
 505 837 505 837 657 756 c 0,19,20
 775 694 775 694 850 694 c 0,21,22
 891 694 891 694 918.5 707.5 c 128,-1,23
 946 721 946 721 973 754 c 0,24,25
 1012 801 1012 801 1022 874 c 1,26,-1
 1073 874 l 1,0,1
1073 487 m 1,27,28
 1053 335 1053 335 979.5 250.5 c 128,-1,29
 906 166 906 166 791 166 c 0,30,31
 735 166 735 166 670 191 c 128,-1,32
 605 216 605 216 487 281 c 0,33,34
 416 323 416 323 366 341.5 c 128,-1,35
 316 360 316 360 276 360 c 0,36,37
 204 360 204 360 157.5 311 c 128,-1,38
 111 262 111 262 98 174 c 1,39,-1
 51 174 l 1,40,41
 63 272 63 272 100 344.5 c 128,-1,42
 137 417 137 417 195 455.5 c 128,-1,43
 253 494 253 494 326 494 c 0,44,45
 374 494 374 494 449 469 c 0,46,47
 501 453 501 453 657 369 c 0,48,49
 775 307 775 307 850 307 c 0,50,51
 891 307 891 307 918.5 320.5 c 128,-1,52
 946 334 946 334 973 367 c 0,53,54
 1012 414 1012 414 1022 487 c 1,55,-1
 1073 487 l 1,27,28
EndSplineSet
EndChar
StartChar: uni2206
Encoding: 8710 8710 168
Width: 1253
Flags: W
Fore
1227 0 m 1,0,-1
 27 0 l 1,1,-1
 655 1386 l 1,2,-1
 1227 0 l 1,0,-1
991 82 m 1,3,-1
 592 1049 l 1,4,-1
 152 82 l 1,5,-1
 991 82 l 1,3,-1
EndSplineSet
EndChar
StartChar: guillemotleft
Encoding: 171 171 169
Width: 1024
Flags: W
Fore
1022 938 m 1,0,-1
 700 469 l 1,1,-1
 813 0 l 1,2,-1
 752 0 l 1,3,-1
 500 469 l 1,4,-1
 961 938 l 1,5,-1
 1022 938 l 1,0,-1
598 938 m 1,6,-1
 276 469 l 1,7,-1
 389 0 l 1,8,-1
 328 0 l 1,9,-1
 76 469 l 1,10,-1
 537 938 l 1,11,-1
 598 938 l 1,6,-1
EndSplineSet
EndChar
StartChar: guillemotright
Encoding: 187 187 170
Width: 1024
Flags: W
Fore
948 469 m 1,0,-1
 487 0 l 1,1,-1
 426 0 l 1,2,-1
 748 469 l 1,3,-1
 635 938 l 1,4,-1
 696 938 l 1,5,-1
 948 469 l 1,0,-1
524 469 m 1,6,-1
 63 0 l 1,7,-1
 2 0 l 1,8,-1
 324 469 l 1,9,-1
 211 938 l 1,10,-1
 272 938 l 1,11,-1
 524 469 l 1,6,-1
EndSplineSet
EndChar
StartChar: ellipsis
Encoding: 8230 8230 171
Width: 1821
Flags: W
Fore
1419 190 m 0,0,1
 1465 190 1465 190 1497.5 158 c 128,-1,2
 1530 126 1530 126 1530 80 c 0,3,4
 1530 34 1530 34 1497.5 1.5 c 128,-1,5
 1465 -31 1465 -31 1419 -31 c 0,6,7
 1373 -31 1373 -31 1341 1.5 c 128,-1,8
 1309 34 1309 34 1309 80 c 0,9,10
 1309 126 1309 126 1341 158 c 128,-1,11
 1373 190 1373 190 1419 190 c 0,0,1
813 190 m 0,12,13
 859 190 859 190 891.5 158 c 128,-1,14
 924 126 924 126 924 80 c 0,15,16
 924 34 924 34 891.5 1.5 c 128,-1,17
 859 -31 859 -31 813 -31 c 0,18,19
 767 -31 767 -31 734.5 1.5 c 128,-1,20
 702 34 702 34 702 80 c 0,21,22
 702 126 702 126 734.5 158 c 128,-1,23
 767 190 767 190 813 190 c 0,12,13
207 190 m 0,24,25
 253 190 253 190 285 158 c 128,-1,26
 317 126 317 126 317 80 c 0,27,28
 317 34 317 34 285 1.5 c 128,-1,29
 253 -31 253 -31 207 -31 c 0,30,31
 161 -31 161 -31 128.5 1.5 c 128,-1,32
 96 34 96 34 96 80 c 0,33,34
 96 126 96 126 128.5 158 c 128,-1,35
 161 190 161 190 207 190 c 0,24,25
EndSplineSet
Ligature: 0 3 'liga' period period period
EndChar
StartChar: OE
Encoding: 338 338 176
Width: 1933
Flags: W
Fore
1974 1356 m 1,0,-1
 1886 1028 l 1,1,-1
 1839 1028 l 1,2,3
 1851 1112 1851 1112 1851 1141 c 0,4,5
 1851 1186 1851 1186 1838.5 1215.5 c 128,-1,6
 1826 1245 1826 1245 1778.5 1264.5 c 128,-1,7
 1731 1284 1731 1284 1632 1284 c 2,8,-1
 1384 1284 l 1,9,-1
 1229 745 l 1,10,-1
 1405 745 l 2,11,12
 1503 745 1503 745 1540 754 c 128,-1,13
 1577 763 1577 763 1602.5 799.5 c 128,-1,14
 1628 836 1628 836 1673 940 c 1,15,-1
 1720 940 l 1,16,-1
 1581 446 l 1,17,-1
 1534 446 l 1,18,19
 1550 520 1550 520 1550 563 c 0,20,21
 1550 622 1550 622 1526.5 648 c 128,-1,22
 1503 674 1503 674 1421 674 c 2,23,-1
 1210 674 l 1,24,-1
 1088 246 l 2,25,26
 1063 159 1063 159 1063 135 c 0,27,28
 1063 97 1063 97 1082.5 84.5 c 128,-1,29
 1102 72 1102 72 1212 72 c 0,30,31
 1415 72 1415 72 1506.5 89 c 128,-1,32
 1598 106 1598 106 1654 168 c 128,-1,33
 1710 230 1710 230 1761 377 c 1,34,-1
 1808 377 l 1,35,-1
 1698 0 l 1,36,-1
 913 0 l 2,37,38
 862 0 862 0 758 -15 c 0,39,40
 644 -31 644 -31 582 -31 c 0,41,42
 355 -31 355 -31 236 115 c 128,-1,43
 117 261 117 261 117 449 c 0,44,45
 117 657 117 657 242.5 883 c 128,-1,46
 368 1109 368 1109 572 1247.5 c 128,-1,47
 776 1386 776 1386 997 1386 c 0,48,49
 1049 1386 1049 1386 1125 1371 c 0,50,51
 1195 1356 1195 1356 1239 1356 c 2,52,-1
 1974 1356 l 1,0,-1
1137 1063 m 2,53,54
 1159 1142 1159 1142 1159 1204 c 0,55,56
 1159 1254 1159 1254 1110.5 1283.5 c 128,-1,57
 1062 1313 1062 1313 975 1313 c 0,58,59
 806 1313 806 1313 661 1174.5 c 128,-1,60
 516 1036 516 1036 428 809 c 128,-1,61
 340 582 340 582 340 399 c 0,62,63
 340 236 340 236 411.5 139.5 c 128,-1,64
 483 43 483 43 616 43 c 0,65,66
 719 43 719 43 793 89 c 128,-1,67
 867 135 867 135 901 254 c 2,68,-1
 1137 1063 l 2,53,54
EndSplineSet
EndChar
StartChar: oe
Encoding: 339 339 177
Width: 1366
Flags: W
Fore
815 768 m 1,0,1
 950 965 950 965 1145 965 c 0,2,3
 1238 965 1238 965 1296 920 c 128,-1,4
 1354 875 1354 875 1354 799 c 0,5,6
 1354 639 1354 639 1213 530.5 c 128,-1,7
 1072 422 1072 422 815 403 c 1,8,9
 805 337 805 337 805 293 c 0,10,11
 805 191 805 191 843 135.5 c 128,-1,12
 881 80 881 80 952 80 c 0,13,14
 1013 80 1013 80 1064.5 102.5 c 128,-1,15
 1116 125 1116 125 1202 195 c 1,16,-1
 1225 156 l 1,17,18
 1127 50 1127 50 1052.5 12.5 c 128,-1,19
 978 -25 978 -25 883 -25 c 0,20,21
 810 -25 810 -25 749.5 19 c 128,-1,22
 689 63 689 63 662 129 c 1,23,24
 534 -25 534 -25 375 -25 c 0,25,26
 229 -25 229 -25 149.5 64 c 128,-1,27
 70 153 70 153 70 317 c 0,28,29
 70 567 70 567 208.5 766 c 128,-1,30
 347 965 347 965 551 965 c 0,31,32
 755 965 755 965 815 768 c 1,0,1
829 465 m 1,33,34
 1011 481 1011 481 1099.5 573.5 c 128,-1,35
 1188 666 1188 666 1188 795 c 0,36,37
 1188 905 1188 905 1118 905 c 0,38,39
 1019 905 1019 905 944.5 790.5 c 128,-1,40
 870 676 870 676 829 465 c 1,33,34
379 35 m 0,41,42
 501 35 501 35 588.5 239.5 c 128,-1,43
 676 444 676 444 676 688 c 0,44,45
 676 792 676 792 642 848.5 c 128,-1,46
 608 905 608 905 545 905 c 0,47,48
 421 905 421 905 333.5 690 c 128,-1,49
 246 475 246 475 246 260 c 0,50,51
 246 35 246 35 379 35 c 0,41,42
EndSplineSet
EndChar
StartChar: endash
Encoding: 8211 8211 178
Width: 1024
Flags: W
Fore
1042 453 m 1,0,-1
 -18 453 l 1,1,-1
 -18 526 l 1,2,-1
 1042 526 l 1,3,-1
 1042 453 l 1,0,-1
EndSplineSet
EndChar
StartChar: emdash
Encoding: 8212 8212 179
Width: 1821
Flags: W
Fore
1839 453 m 1,0,-1
 -18 453 l 1,1,-1
 -18 526 l 1,2,-1
 1839 526 l 1,3,-1
 1839 453 l 1,0,-1
EndSplineSet
EndChar
StartChar: quotedblleft
Encoding: 8220 8220 180
Width: 1139
Flags: W
Fore
1214 1346 m 1,0,1
 1113 1313 1113 1313 1058.5 1267 c 128,-1,2
 1004 1221 1004 1221 1004 1174 c 0,3,4
 1004 1143 1004 1143 1043 1111 c 0,5,6
 1092 1071 1092 1071 1092 1024 c 0,7,8
 1092 981 1092 981 1057 948 c 128,-1,9
 1022 915 1022 915 975 915 c 0,10,11
 925 915 925 915 892.5 949 c 128,-1,12
 860 983 860 983 860 1034 c 0,13,14
 860 1151 860 1151 946.5 1242 c 128,-1,15
 1033 1333 1033 1333 1192 1386 c 1,16,-1
 1214 1346 l 1,0,1
758 1346 m 1,17,18
 656 1313 656 1313 601.5 1267 c 128,-1,19
 547 1221 547 1221 547 1174 c 0,20,21
 547 1143 547 1143 586 1111 c 0,22,23
 635 1071 635 1071 635 1024 c 0,24,25
 635 981 635 981 600 948 c 128,-1,26
 565 915 565 915 518 915 c 0,27,28
 468 915 468 915 435.5 949 c 128,-1,29
 403 983 403 983 403 1034 c 0,30,31
 403 1151 403 1151 489.5 1242 c 128,-1,32
 576 1333 576 1333 735 1386 c 1,33,-1
 758 1346 l 1,17,18
EndSplineSet
EndChar
StartChar: quotedblright
Encoding: 8221 8221 181
Width: 1139
Flags: W
Fore
797 956 m 1,0,1
 899 989 899 989 953.5 1035 c 128,-1,2
 1008 1081 1008 1081 1008 1128 c 0,3,4
 1008 1159 1008 1159 968 1191 c 0,5,6
 920 1231 920 1231 920 1278 c 0,7,8
 920 1321 920 1321 954.5 1353.5 c 128,-1,9
 989 1386 989 1386 1036 1386 c 0,10,11
 1086 1386 1086 1386 1118.5 1352.5 c 128,-1,12
 1151 1319 1151 1319 1151 1268 c 0,13,14
 1151 1151 1151 1151 1064.5 1060 c 128,-1,15
 978 969 978 969 819 915 c 1,16,-1
 797 956 l 1,0,1
340 956 m 1,17,18
 442 989 442 989 496.5 1035 c 128,-1,19
 551 1081 551 1081 551 1128 c 0,20,21
 551 1159 551 1159 512 1191 c 0,22,23
 463 1231 463 1231 463 1278 c 0,24,25
 463 1321 463 1321 498 1353.5 c 128,-1,26
 533 1386 533 1386 580 1386 c 0,27,28
 629 1386 629 1386 661.5 1352.5 c 128,-1,29
 694 1319 694 1319 694 1268 c 0,30,31
 694 1151 694 1151 607.5 1060 c 128,-1,32
 521 969 521 969 362 915 c 1,33,-1
 340 956 l 1,17,18
EndSplineSet
EndChar
StartChar: quoteleft
Encoding: 8216 8216 182
Width: 682
Flags: W
Fore
758 1346 m 1,0,1
 656 1313 656 1313 601.5 1267 c 128,-1,2
 547 1221 547 1221 547 1174 c 0,3,4
 547 1143 547 1143 586 1111 c 0,5,6
 635 1071 635 1071 635 1024 c 0,7,8
 635 981 635 981 600 948 c 128,-1,9
 565 915 565 915 518 915 c 0,10,11
 468 915 468 915 435.5 949 c 128,-1,12
 403 983 403 983 403 1034 c 0,13,14
 403 1151 403 1151 489.5 1242 c 128,-1,15
 576 1333 576 1333 735 1386 c 1,16,-1
 758 1346 l 1,0,1
EndSplineSet
KernsSLIFO: 182 -227 0 0
EndChar
StartChar: quoteright
Encoding: 8217 8217 183
Width: 682
Flags: W
Fore
340 956 m 1,0,1
 442 989 442 989 496.5 1035 c 128,-1,2
 551 1081 551 1081 551 1128 c 0,3,4
 551 1159 551 1159 512 1191 c 0,5,6
 463 1231 463 1231 463 1278 c 0,7,8
 463 1321 463 1321 498 1353.5 c 128,-1,9
 533 1386 533 1386 580 1386 c 0,10,11
 629 1386 629 1386 661.5 1352.5 c 128,-1,12
 694 1319 694 1319 694 1268 c 0,13,14
 694 1151 694 1151 607.5 1060 c 128,-1,15
 521 969 521 969 362 915 c 1,16,-1
 340 956 l 1,0,1
EndSplineSet
KernsSLIFO: 183 -227 0 0 87 -227 0 0 86 -264 0 0 3 -227 0 0
EndChar
StartChar: divide
Encoding: 247 247 184
Width: 1124
Flags: W
Fore
614 1075 m 0,0,1
 651 1075 651 1075 676.5 1049.5 c 128,-1,2
 702 1024 702 1024 702 987 c 0,3,4
 702 950 702 950 676.5 924.5 c 128,-1,5
 651 899 651 899 614 899 c 0,6,7
 578 899 578 899 552 924.5 c 128,-1,8
 526 950 526 950 526 987 c 0,9,10
 526 1024 526 1024 552 1049.5 c 128,-1,11
 578 1075 578 1075 614 1075 c 0,0,1
1153 639 m 1,12,-1
 78 639 l 1,13,-1
 78 721 l 1,14,-1
 1153 721 l 1,15,-1
 1153 639 l 1,12,-1
614 461 m 0,16,17
 651 461 651 461 676.5 435 c 128,-1,18
 702 409 702 409 702 373 c 0,19,20
 702 336 702 336 676.5 310.5 c 128,-1,21
 651 285 651 285 614 285 c 0,22,23
 578 285 578 285 552 310.5 c 128,-1,24
 526 336 526 336 526 373 c 0,25,26
 526 409 526 409 552 435 c 128,-1,27
 578 461 578 461 614 461 c 0,16,17
EndSplineSet
EndChar
StartChar: lozenge
Encoding: 9674 9674 185
Width: 1012
Flags: W
Fore
967 709 m 1,0,-1
 549 0 l 1,1,-1
 438 0 l 1,2,-1
 47 709 l 1,3,-1
 438 1423 l 1,4,-1
 549 1423 l 1,5,-1
 967 709 l 1,0,-1
854 709 m 1,6,-1
 496 1325 l 1,7,-1
 156 709 l 1,8,-1
 496 94 l 1,9,-1
 854 709 l 1,6,-1
EndSplineSet
EndChar
StartChar: fraction
Encoding: 8725 8725 188
Width: 342
Flags: W
Fore
684 1386 m 1,0,-1
 -250 -31 l 1,1,-1
 -340 -31 l 1,2,-1
 594 1386 l 1,3,-1
 684 1386 l 1,0,-1
EndSplineSet
EndChar
StartChar: Euro
Encoding: 8364 8364 189
Width: 1024
Flags: W
Fore
371 741 m 1,0,-1
 342 649 l 1,1,-1
 852 649 l 1,2,-1
 809 575 l 1,3,-1
 324 575 l 1,4,5
 283 411 283 411 283 309 c 0,6,7
 283 187 283 187 335.5 120 c 128,-1,8
 388 53 388 53 485 53 c 0,9,10
 682 53 682 53 879 272 c 1,11,-1
 903 252 l 1,12,13
 675 -31 675 -31 412 -31 c 0,14,15
 268 -31 268 -31 183 71 c 128,-1,16
 98 173 98 173 98 342 c 0,17,18
 98 445 98 445 127 575 c 1,19,-1
 14 575 l 1,20,-1
 57 649 l 1,21,-1
 145 649 l 1,22,23
 166 717 166 717 174 741 c 1,24,-1
 51 741 l 1,25,-1
 94 815 l 1,26,-1
 201 815 l 1,27,28
 312 1088 312 1088 492 1237 c 128,-1,29
 672 1386 672 1386 885 1386 c 0,30,31
 1037 1386 1037 1386 1180 1296 c 1,32,-1
 1094 997 l 1,33,-1
 1053 997 l 1,34,35
 1065 1065 1065 1065 1065 1116 c 0,36,37
 1065 1315 1065 1315 864 1315 c 0,38,39
 578 1315 578 1315 395 815 c 1,40,-1
 946 815 l 1,41,-1
 903 741 l 1,42,-1
 371 741 l 1,0,-1
EndSplineSet
EndChar
StartChar: guilsinglleft
Encoding: 8249 8249 190
Width: 682
Flags: W
Fore
639 938 m 1,0,-1
 317 469 l 1,1,-1
 430 0 l 1,2,-1
 369 0 l 1,3,-1
 117 469 l 1,4,-1
 578 938 l 1,5,-1
 639 938 l 1,0,-1
EndSplineSet
EndChar
StartChar: guilsinglright
Encoding: 8250 8250 191
Width: 682
Flags: W
Fore
565 469 m 1,0,-1
 104 0 l 1,1,-1
 43 0 l 1,2,-1
 365 469 l 1,3,-1
 252 938 l 1,4,-1
 313 938 l 1,5,-1
 565 469 l 1,0,-1
EndSplineSet
EndChar
StartChar: fi
Encoding: 64257 64257 192
Width: 1024
Flags: W
Fore
752 106 m 0,1,2
 752 95 752 95 761 85.5 c 128,-1,3
 770 76 770 76 782 76 c 0,4,5
 813 76 813 76 855 106.5 c 128,-1,6
 897 137 897 137 926 178 c 1,7,-1
 958 154 l 1,8,9
 835 -25 835 -25 672 -25 c 0,10,11
 631 -25 631 -25 606.5 -3 c 128,-1,12
 582 19 582 19 582 57 c 0,13,14
 582 88 582 88 608 184 c 2,15,-1
 720 590 l 2,16,17
 769 767 769 767 772.5 788 c 128,-1,18
 776 809 776 809 776 823 c 0,19,20
 776 866 776 866 737 866 c 2,21,-1
 459 866 l 1,22,-1
 266 194 l 2,23,24
 208 -6 208 -6 135.5 -144 c 128,-1,25
 63 -282 63 -282 -18.5 -352 c 128,-1,26
 -100 -422 -100 -422 -184 -422 c 0,27,28
 -266 -422 -266 -422 -318.5 -384.5 c 128,-1,29
 -371 -347 -371 -347 -371 -295 c 0,30,31
 -371 -265 -371 -265 -352 -244 c 128,-1,32
 -333 -223 -333 -223 -305 -223 c 0,33,34
 -281 -223 -281 -223 -259.5 -239 c 128,-1,35
 -238 -255 -238 -255 -209 -307 c 0,36,37
 -181 -362 -181 -362 -145 -362 c 0,38,39
 -47 -362 -47 -362 45 -33 c 2,40,-1
 295 866 l 1,41,-1
 137 866 l 1,42,-1
 154 932 l 1,43,-1
 309 932 l 1,44,45
 356 1086 356 1086 375 1130 c 128,-1,46
 394 1174 394 1174 437.5 1230 c 128,-1,47
 481 1286 481 1286 535 1329.5 c 128,-1,48
 589 1373 589 1373 648 1397 c 128,-1,49
 707 1421 707 1421 764 1421 c 0,50,51
 856 1421 856 1421 917.5 1373.5 c 128,-1,52
 979 1326 979 1326 979 1262 c 0,53,54
 979 1224 979 1224 959.5 1203 c 128,-1,55
 940 1182 940 1182 911 1182 c 0,56,57
 841 1182 841 1182 827 1290 c 0,58,59
 823 1322 823 1322 798.5 1342 c 128,-1,60
 774 1362 774 1362 737 1362 c 0,61,62
 695 1362 695 1362 654.5 1334.5 c 128,-1,63
 614 1307 614 1307 581.5 1253.5 c 128,-1,64
 549 1200 549 1200 528 1124 c 2,65,-1
 475 932 l 1,66,-1
 854 932 l 2,67,68
 944 932 944 932 944 860 c 0,69,70
 944 818 944 818 926 756 c 2,71,-1
 812 350 l 2,72,73
 763 173 763 173 757.5 146 c 128,-1,0
 752 119 752 119 752 106 c 0,1,2
EndSplineSet
Ligature: 0 0 'liga' f i
EndChar
StartChar: fl
Encoding: 64258 64258 193
Width: 1024
Flags: W
Fore
672 -25 m 0,1,2
 631 -25 631 -25 606.5 -3 c 128,-1,3
 582 19 582 19 582 57 c 0,4,5
 582 86 582 86 608 184 c 2,6,-1
 872 1163 l 2,7,8
 888 1219 888 1219 893 1268 c 1,9,10
 879 1281 879 1281 862 1309 c 0,11,12
 848 1332 848 1332 815.5 1347 c 128,-1,13
 783 1362 783 1362 750 1362 c 0,14,15
 705 1362 705 1362 661.5 1334 c 128,-1,16
 618 1306 618 1306 583.5 1253 c 128,-1,17
 549 1200 549 1200 528 1124 c 2,18,-1
 475 932 l 1,19,-1
 651 932 l 1,20,-1
 635 866 l 1,21,-1
 459 866 l 1,22,-1
 266 194 l 2,23,24
 208 -6 208 -6 135.5 -144 c 128,-1,25
 63 -282 63 -282 -18.5 -352 c 128,-1,26
 -100 -422 -100 -422 -184 -422 c 0,27,28
 -266 -422 -266 -422 -318.5 -384.5 c 128,-1,29
 -371 -347 -371 -347 -371 -295 c 0,30,31
 -371 -265 -371 -265 -352 -244 c 128,-1,32
 -333 -223 -333 -223 -305 -223 c 0,33,34
 -281 -223 -281 -223 -259.5 -239 c 128,-1,35
 -238 -255 -238 -255 -209 -307 c 0,36,37
 -181 -362 -181 -362 -145 -362 c 0,38,39
 -47 -362 -47 -362 45 -33 c 2,40,-1
 295 866 l 1,41,-1
 137 866 l 1,42,-1
 154 932 l 1,43,-1
 309 932 l 1,44,45
 355 1085 355 1085 374 1128.5 c 128,-1,46
 393 1172 393 1172 435.5 1229 c 128,-1,47
 478 1286 478 1286 530 1329 c 128,-1,48
 582 1372 582 1372 637.5 1396.5 c 128,-1,49
 693 1421 693 1421 745 1421 c 0,50,51
 848 1421 848 1421 915 1393 c 1,52,-1
 1061 1421 l 1,53,-1
 1102 1421 l 1,54,-1
 768 190 l 2,55,56
 752 129 752 129 752 106 c 0,57,58
 752 95 752 95 761 85.5 c 128,-1,59
 770 76 770 76 782 76 c 0,60,61
 813 76 813 76 855 106.5 c 128,-1,62
 897 137 897 137 926 178 c 1,63,-1
 958 154 l 1,64,0
 835 -25 835 -25 672 -25 c 0,1,2
EndSplineSet
Ligature: 0 0 'liga' f l
EndChar
StartChar: daggerdbl
Encoding: 8225 8225 194
Width: 1024
Flags: W
Fore
676 956 m 1,0,1
 727 956 727 956 831 998 c 0,2,3
 928 1036 928 1036 973 1036 c 0,4,5
 1061 1036 1061 1036 1061 958 c 0,6,7
 1061 910 1061 910 1022 875 c 128,-1,8
 983 840 983 840 922 840 c 0,9,10
 877 840 877 840 799 878 c 0,11,12
 717 920 717 920 666 920 c 1,13,14
 660 896 660 896 660 871 c 0,15,16
 660 841 660 841 671 786 c 0,17,18
 680 742 680 742 680 723 c 0,19,20
 680 681 680 681 626 623 c 0,21,22
 559 551 559 551 540 484 c 128,-1,23
 521 417 521 417 521 378 c 0,24,25
 521 347 521 347 531 298 c 0,26,27
 539 262 539 262 539 246 c 0,28,29
 539 200 539 200 482 137 c 0,30,31
 424 73 424 73 410 25 c 1,32,33
 461 25 461 25 564 66 c 0,34,35
 661 104 661 104 707 104 c 0,36,37
 743 104 743 104 770 82 c 128,-1,38
 797 60 797 60 797 27 c 0,39,40
 797 -20 797 -20 755.5 -56 c 128,-1,41
 714 -92 714 -92 655 -92 c 0,42,43
 610 -92 610 -92 533 -53 c 0,44,45
 451 -12 451 -12 399 -12 c 1,46,47
 389 -48 389 -48 389 -83 c 0,48,49
 389 -112 389 -112 399 -164 c 0,50,51
 410 -218 410 -218 410 -248 c 0,52,53
 410 -322 410 -322 364 -382 c 128,-1,54
 318 -442 318 -442 252 -442 c 0,55,56
 214 -442 214 -442 191 -417 c 128,-1,57
 168 -392 168 -392 168 -354 c 0,58,59
 168 -320 168 -320 183 -280.5 c 128,-1,60
 198 -241 198 -241 259 -165 c 0,61,62
 335 -68 335 -68 350 -12 c 1,63,64
 299 -12 299 -12 195 -53 c 0,65,66
 98 -92 98 -92 53 -92 c 0,67,68
 -35 -92 -35 -92 -35 -14 c 0,69,70
 -35 34 -35 34 4 69 c 128,-1,71
 43 104 43 104 104 104 c 0,72,73
 150 104 150 104 227 66 c 0,74,75
 309 25 309 25 360 25 c 1,76,77
 366 48 366 48 366 73 c 0,78,79
 366 103 366 103 355 158 c 0,80,81
 346 202 346 202 346 221 c 0,82,83
 346 263 346 263 399 320 c 0,84,85
 504 433 504 433 504 563 c 0,86,87
 504 594 504 594 494 645 c 0,88,89
 487 682 487 682 487 698 c 0,90,91
 487 744 487 744 544 807 c 0,92,93
 602 871 602 871 616 920 c 1,94,95
 565 920 565 920 462 878 c 0,96,97
 365 840 365 840 319 840 c 0,98,99
 283 840 283 840 256 862 c 128,-1,100
 229 884 229 884 229 918 c 0,101,102
 229 964 229 964 270 1000 c 128,-1,103
 311 1036 311 1036 371 1036 c 0,104,105
 416 1036 416 1036 493 998 c 0,106,107
 575 956 575 956 627 956 c 1,108,109
 637 992 637 992 637 1027 c 0,110,111
 637 1056 637 1056 627 1108 c 0,112,113
 616 1162 616 1162 616 1192 c 0,114,115
 616 1266 616 1266 662 1326 c 128,-1,116
 708 1386 708 1386 774 1386 c 0,117,118
 812 1386 812 1386 835 1361 c 128,-1,119
 858 1336 858 1336 858 1298 c 0,120,121
 858 1264 858 1264 843 1225 c 128,-1,122
 828 1186 828 1186 767 1109 c 0,123,124
 691 1012 691 1012 676 956 c 1,0,1
EndSplineSet
EndChar
StartChar: periodcentered
Encoding: 8729 8729 195
Width: 512
Flags: W
Fore
317 788 m 0,0,1
 363 788 363 788 395.5 756 c 128,-1,2
 428 724 428 724 428 678 c 0,3,4
 428 632 428 632 395.5 599.5 c 128,-1,5
 363 567 363 567 317 567 c 0,6,7
 272 567 272 567 239.5 599.5 c 128,-1,8
 207 632 207 632 207 678 c 0,9,10
 207 724 207 724 239.5 756 c 128,-1,11
 272 788 272 788 317 788 c 0,0,1
EndSplineSet
EndChar
StartChar: quotesinglbase
Encoding: 8218 8218 196
Width: 682
Flags: W
Fore
-4 -240 m 1,0,1
 98 -207 98 -207 152.5 -161 c 128,-1,2
 207 -115 207 -115 207 -68 c 0,3,4
 207 -37 207 -37 168 -5 c 0,5,6
 119 35 119 35 119 82 c 0,7,8
 119 125 119 125 153.5 157.5 c 128,-1,9
 188 190 188 190 236 190 c 0,10,11
 285 190 285 190 317.5 156.5 c 128,-1,12
 350 123 350 123 350 72 c 0,13,14
 350 -45 350 -45 263.5 -136 c 128,-1,15
 177 -227 177 -227 18 -281 c 1,16,-1
 -4 -240 l 1,0,1
EndSplineSet
KernsSLIFO: 338 -180 0 0 335 -360 0 0 330 -231 0 0 308 -231 0 0 299 -231 0 0
EndChar
StartChar: quotedblbase
Encoding: 8222 8222 197
Width: 1139
Flags: W
Fore
453 -240 m 1,0,1
 554 -207 554 -207 609 -161 c 128,-1,2
 664 -115 664 -115 664 -68 c 0,3,4
 664 -37 664 -37 624 -5 c 0,5,6
 575 35 575 35 575 82 c 0,7,8
 575 125 575 125 610 157.5 c 128,-1,9
 645 190 645 190 692 190 c 0,10,11
 742 190 742 190 774.5 156.5 c 128,-1,12
 807 123 807 123 807 72 c 0,13,14
 807 -45 807 -45 720.5 -136 c 128,-1,15
 634 -227 634 -227 475 -281 c 1,16,-1
 453 -240 l 1,0,1
-4 -240 m 1,17,18
 98 -207 98 -207 152.5 -161 c 128,-1,19
 207 -115 207 -115 207 -68 c 0,20,21
 207 -37 207 -37 168 -5 c 0,22,23
 119 35 119 35 119 82 c 0,24,25
 119 125 119 125 153.5 157.5 c 128,-1,26
 188 190 188 190 236 190 c 0,27,28
 285 190 285 190 317.5 156.5 c 128,-1,29
 350 123 350 123 350 72 c 0,30,31
 350 -45 350 -45 263.5 -136 c 128,-1,32
 177 -227 177 -227 18 -281 c 1,33,-1
 -4 -240 l 1,17,18
EndSplineSet
KernsSLIFO: 338 -102 0 0 335 -256 0 0 330 -231 0 0 308 -231 0 0 299 -231 0 0
EndChar
StartChar: perthousand
Encoding: 8240 8240 198
Width: 2048
Flags: W
Fore
1331 1386 m 1,0,-1
 215 -31 l 1,1,-1
 125 -31 l 1,2,-1
 1241 1386 l 1,3,-1
 1331 1386 l 1,0,-1
520 1386 m 0,4,5
 610 1386 610 1386 681 1309 c 128,-1,6
 752 1232 752 1232 752 1108 c 0,7,8
 752 930 752 930 630 792.5 c 128,-1,9
 508 655 508 655 375 655 c 0,10,11
 268 655 268 655 199.5 731 c 128,-1,12
 131 807 131 807 131 920 c 0,13,14
 131 1087 131 1087 248 1236.5 c 128,-1,15
 365 1386 365 1386 520 1386 c 0,4,5
358 711 m 0,16,17
 458 711 458 711 531 892 c 128,-1,18
 604 1073 604 1073 604 1210 c 0,19,20
 604 1331 604 1331 520 1331 c 0,21,22
 422 1331 422 1331 350.5 1149.5 c 128,-1,23
 279 968 279 968 279 819 c 0,24,25
 279 711 279 711 358 711 c 0,16,17
1792 700 m 0,26,27
 1882 700 1882 700 1952.5 623 c 128,-1,28
 2023 546 2023 546 2023 422 c 0,29,30
 2023 246 2023 246 1901.5 107.5 c 128,-1,31
 1780 -31 1780 -31 1647 -31 c 0,32,33
 1539 -31 1539 -31 1471 45 c 128,-1,34
 1403 121 1403 121 1403 233 c 0,35,36
 1403 401 1403 401 1520 550.5 c 128,-1,37
 1637 700 1637 700 1792 700 c 0,26,27
1630 25 m 0,38,39
 1730 25 1730 25 1803 206 c 128,-1,40
 1876 387 1876 387 1876 524 c 0,41,42
 1876 645 1876 645 1792 645 c 0,43,44
 1694 645 1694 645 1622 463.5 c 128,-1,45
 1550 282 1550 282 1550 133 c 0,46,47
 1550 25 1550 25 1630 25 c 0,38,39
1075 700 m 0,48,49
 1165 700 1165 700 1236 623 c 128,-1,50
 1307 546 1307 546 1307 422 c 0,51,52
 1307 246 1307 246 1185 107.5 c 128,-1,53
 1063 -31 1063 -31 930 -31 c 0,54,55
 823 -31 823 -31 754.5 45 c 128,-1,56
 686 121 686 121 686 233 c 0,57,58
 686 401 686 401 803 550.5 c 128,-1,59
 920 700 920 700 1075 700 c 0,48,49
913 25 m 0,60,61
 1013 25 1013 25 1086 206 c 128,-1,62
 1159 387 1159 387 1159 524 c 0,63,64
 1159 645 1159 645 1075 645 c 0,65,66
 977 645 977 645 905.5 463.5 c 128,-1,67
 834 282 834 282 834 133 c 0,68,69
 834 25 834 25 913 25 c 0,60,61
EndSplineSet
EndChar
StartChar: glyph210
Encoding: 65540 -1 210
Width: 717
Flags: W
Fore
408 905 m 0,0,1
 501 905 501 905 568 838 c 128,-1,2
 635 771 635 771 635 678 c 0,3,4
 635 585 635 585 568 518 c 128,-1,5
 501 451 501 451 408 451 c 0,6,7
 314 451 314 451 247 518 c 128,-1,8
 180 585 180 585 180 678 c 0,9,10
 180 771 180 771 247 838 c 128,-1,11
 314 905 314 905 408 905 c 0,0,1
EndSplineSet
EndChar
StartChar: dotlessi
Encoding: 305 305 215
Width: 569
Flags: W
Fore
479 154 m 1,0,1
 356 -25 356 -25 193 -25 c 0,2,3
 152 -25 152 -25 127 -3 c 128,-1,4
 102 19 102 19 102 57 c 0,5,6
 102 88 102 88 129 184 c 2,7,-1
 242 594 l 2,8,9
 290 769 290 769 295.5 795 c 128,-1,10
 301 821 301 821 301 834 c 0,11,12
 301 864 301 864 276 864 c 0,13,14
 223 864 223 864 158 778 c 1,15,-1
 125 803 l 1,16,17
 237 965 237 965 383 965 c 0,18,19
 424 965 424 965 448.5 943 c 128,-1,20
 473 921 473 921 473 883 c 0,21,22
 473 846 473 846 446 756 c 2,23,-1
 333 350 l 2,24,25
 284 173 284 173 278 146 c 128,-1,26
 272 119 272 119 272 106 c 0,27,28
 272 95 272 95 281.5 85.5 c 128,-1,29
 291 76 291 76 303 76 c 0,30,31
 333 76 333 76 375 106.5 c 128,-1,32
 417 137 417 137 446 178 c 1,33,-1
 479 154 l 1,0,1
EndSplineSet
EndChar
StartChar: circumflex
Encoding: 710 710 216
Width: 682
Flags: W
Fore
748 1051 m 1,0,-1
 717 1051 l 1,1,-1
 541 1229 l 1,2,-1
 246 1051 l 1,3,-1
 213 1051 l 1,4,-1
 477 1348 l 1,5,-1
 662 1348 l 1,6,-1
 748 1051 l 1,0,-1
EndSplineSet
EndChar
StartChar: tilde
Encoding: 732 732 217
Width: 682
Flags: W
Fore
836 1339 m 1,0,1
 836 1219 836 1219 786.5 1148 c 128,-1,2
 737 1077 737 1077 645 1077 c 0,3,4
 573 1077 573 1077 447 1161 c 0,5,6
 365 1217 365 1217 328 1217 c 0,7,8
 251 1217 251 1217 231 1077 c 1,9,-1
 197 1077 l 1,10,11
 197 1197 197 1197 246 1268 c 128,-1,12
 295 1339 295 1339 387 1339 c 0,13,14
 459 1339 459 1339 585 1255 c 0,15,16
 668 1200 668 1200 705 1200 c 0,17,18
 781 1200 781 1200 801 1339 c 1,19,-1
 836 1339 l 1,0,1
EndSplineSet
EndChar
StartChar: macron
Encoding: 713 713 218
Width: 682
Flags: W
Fore
838 1274 m 1,0,-1
 803 1145 l 1,1,-1
 203 1145 l 1,2,-1
 238 1274 l 1,3,-1
 838 1274 l 1,0,-1
EndSplineSet
EndChar
StartChar: breve
Encoding: 728 728 219
Width: 682
Flags: W
Fore
862 1348 m 1,0,1
 808 1212 808 1212 716.5 1139.5 c 128,-1,2
 625 1067 625 1067 512 1067 c 0,3,4
 406 1067 406 1067 347.5 1145.5 c 128,-1,5
 289 1224 289 1224 289 1348 c 1,6,-1
 326 1348 l 1,7,8
 351 1219 351 1219 522 1219 c 0,9,10
 719 1219 719 1219 825 1348 c 1,11,-1
 862 1348 l 1,0,1
EndSplineSet
EndChar
StartChar: dotaccent
Encoding: 729 729 220
Width: 682
Flags: W
Fore
508 1319 m 0,0,1
 554 1319 554 1319 586 1286.5 c 128,-1,2
 618 1254 618 1254 618 1208 c 0,3,4
 618 1162 618 1162 586 1130 c 128,-1,5
 554 1098 554 1098 508 1098 c 0,6,7
 462 1098 462 1098 429.5 1130 c 128,-1,8
 397 1162 397 1162 397 1208 c 0,9,10
 397 1254 397 1254 429.5 1286.5 c 128,-1,11
 462 1319 462 1319 508 1319 c 0,0,1
EndSplineSet
EndChar
StartChar: ring
Encoding: 730 730 221
Width: 682
Flags: W
Fore
520 1419 m 0,0,1
 600 1419 600 1419 656.5 1362.5 c 128,-1,2
 713 1306 713 1306 713 1227 c 0,3,4
 713 1147 713 1147 656.5 1090.5 c 128,-1,5
 600 1034 600 1034 520 1034 c 0,6,7
 441 1034 441 1034 384.5 1090.5 c 128,-1,8
 328 1147 328 1147 328 1227 c 0,9,10
 328 1307 328 1307 384 1363 c 128,-1,11
 440 1419 440 1419 520 1419 c 0,0,1
520 1104 m 0,12,13
 571 1104 571 1104 607 1140 c 128,-1,14
 643 1176 643 1176 643 1227 c 0,15,16
 643 1277 643 1277 607 1313.5 c 128,-1,17
 571 1350 571 1350 520 1350 c 0,18,19
 470 1350 470 1350 433.5 1313.5 c 128,-1,20
 397 1277 397 1277 397 1227 c 0,21,22
 397 1176 397 1176 433.5 1140 c 128,-1,23
 470 1104 470 1104 520 1104 c 0,12,13
EndSplineSet
EndChar
StartChar: cedilla
Encoding: 184 184 222
Width: 682
Flags: W
Fore
338 -96 m 1,0,1
 377 -86 377 -86 399 -86 c 0,2,3
 454 -86 454 -86 490 -116 c 128,-1,4
 526 -146 526 -146 526 -193 c 0,5,6
 526 -279 526 -279 442 -328 c 128,-1,7
 358 -377 358 -377 225 -377 c 0,8,9
 166 -377 166 -377 104 -360 c 1,10,-1
 125 -322 l 1,11,12
 161 -334 161 -334 213 -334 c 0,13,14
 280 -334 280 -334 323.5 -297 c 128,-1,15
 367 -260 367 -260 367 -205 c 0,16,17
 367 -179 367 -179 348.5 -163 c 128,-1,18
 330 -147 330 -147 303 -147 c 0,19,20
 283 -147 283 -147 254 -154 c 1,21,-1
 338 0 l 1,22,-1
 391 0 l 1,23,-1
 338 -96 l 1,0,1
EndSplineSet
EndChar
StartChar: hungarumlaut
Encoding: 733 733 223
Width: 682
Flags: W
Fore
856 1348 m 1,0,-1
 635 1051 l 1,1,-1
 602 1051 l 1,2,-1
 668 1348 l 1,3,-1
 856 1348 l 1,0,-1
543 1348 m 1,4,-1
 322 1051 l 1,5,-1
 289 1051 l 1,6,-1
 354 1348 l 1,7,-1
 543 1348 l 1,4,-1
EndSplineSet
EndChar
StartChar: ogonek
Encoding: 731 731 224
Width: 682
Flags: W
Fore
588 -256 m 1,0,1
 489 -362 489 -362 344 -362 c 0,2,3
 256 -362 256 -362 201.5 -320.5 c 128,-1,4
 147 -279 147 -279 147 -207 c 0,5,6
 147 -128 147 -128 233 -56 c 128,-1,7
 319 16 319 16 338 16 c 2,8,-1
 416 16 l 1,9,10
 293 -95 293 -95 293 -197 c 0,11,12
 293 -287 293 -287 391 -287 c 0,13,14
 486 -287 486 -287 563 -223 c 1,15,-1
 588 -256 l 1,0,1
EndSplineSet
EndChar
StartChar: caron
Encoding: 711 711 225
Width: 682
Flags: W
Fore
846 1395 m 1,0,-1
 582 1098 l 1,1,-1
 397 1098 l 1,2,-1
 311 1395 l 1,3,-1
 342 1395 l 1,4,-1
 518 1217 l 1,5,-1
 813 1395 l 1,6,-1
 846 1395 l 1,0,-1
EndSplineSet
EndChar
StartChar: Lslash
Encoding: 321 321 226
Width: 1139
Flags: W
Fore
1079 385 m 1,0,-1
 967 0 l 1,1,-1
 -49 0 l 1,2,-1
 -37 47 l 1,3,4
 75 47 75 47 111 79 c 128,-1,5
 147 111 147 111 188 254 c 2,6,-1
 270 539 l 1,7,-1
 61 393 l 1,8,-1
 20 453 l 1,9,-1
 303 649 l 1,10,-1
 424 1063 l 2,11,12
 459 1180 459 1180 459 1239 c 0,13,14
 459 1274 459 1274 432.5 1291.5 c 128,-1,15
 406 1309 406 1309 303 1309 c 1,16,-1
 315 1356 l 1,17,-1
 862 1356 l 1,18,-1
 850 1309 l 1,19,-1
 807 1309 l 2,20,21
 746 1309 746 1309 703 1274.5 c 128,-1,22
 660 1240 660 1240 631 1139 c 2,23,-1
 537 813 l 1,24,-1
 795 993 l 1,25,-1
 836 934 l 1,26,-1
 506 705 l 1,27,-1
 387 289 l 2,28,29
 352 163 352 163 352 141 c 0,30,31
 352 93 352 93 383.5 82.5 c 128,-1,32
 415 72 415 72 512 72 c 0,33,34
 693 72 693 72 782.5 91.5 c 128,-1,35
 872 111 872 111 928.5 175.5 c 128,-1,36
 985 240 985 240 1032 385 c 1,37,-1
 1079 385 l 1,0,-1
EndSplineSet
EndChar
StartChar: lslash
Encoding: 322 322 227
Width: 569
Flags: W
Fore
410 711 m 1,0,-1
 268 190 l 2,1,2
 252 129 252 129 252 106 c 0,3,4
 252 95 252 95 261.5 85.5 c 128,-1,5
 271 76 271 76 283 76 c 0,6,7
 313 76 313 76 355 106.5 c 128,-1,8
 397 137 397 137 426 178 c 1,9,-1
 459 154 l 1,10,11
 336 -25 336 -25 172 -25 c 0,12,13
 131 -25 131 -25 106.5 -3 c 128,-1,14
 82 19 82 19 82 57 c 0,15,16
 82 86 82 86 109 184 c 2,17,-1
 219 592 l 1,18,-1
 49 485 l 1,19,-1
 20 541 l 1,20,-1
 242 680 l 1,21,-1
 373 1163 l 2,22,23
 395 1240 395 1240 395 1280 c 0,24,25
 395 1292 395 1292 375.5 1303.5 c 128,-1,26
 356 1315 356 1315 256 1319 c 1,27,-1
 256 1362 l 1,28,-1
 561 1421 l 1,29,-1
 602 1421 l 1,30,-1
 432 799 l 1,31,-1
 590 897 l 1,32,-1
 618 842 l 1,33,-1
 410 711 l 1,0,-1
EndSplineSet
EndChar
StartChar: brokenbar
Encoding: 166 166 232
Width: 563
Flags: W
Fore
326 739 m 1,0,-1
 244 739 l 1,1,-1
 244 1421 l 1,2,-1
 326 1421 l 1,3,-1
 326 739 l 1,0,-1
326 -442 m 1,4,-1
 244 -442 l 1,5,-1
 244 240 l 1,6,-1
 326 240 l 1,7,-1
 326 -442 l 1,4,-1
EndSplineSet
EndChar
StartChar: Eth
Encoding: 208 208 233
Width: 1479
Flags: W
Fore
315 1356 m 1,0,-1
 799 1356 l 2,1,2
 1121 1356 1121 1356 1285.5 1204 c 128,-1,3
 1450 1052 1450 1052 1450 782 c 0,4,5
 1450 593 1450 593 1341.5 405 c 128,-1,6
 1233 217 1233 217 1024.5 108.5 c 128,-1,7
 816 0 816 0 524 0 c 2,8,-1
 -49 0 l 1,9,-1
 -37 47 l 1,10,11
 75 47 75 47 111 79 c 128,-1,12
 147 111 147 111 188 254 c 2,13,-1
 305 655 l 1,14,-1
 121 655 l 1,15,-1
 143 729 l 1,16,-1
 326 729 l 1,17,-1
 424 1063 l 2,18,19
 459 1180 459 1180 459 1239 c 0,20,21
 459 1274 459 1274 432.5 1291.5 c 128,-1,22
 406 1309 406 1309 303 1309 c 1,23,-1
 315 1356 l 1,0,-1
492 655 m 1,24,-1
 387 289 l 2,25,26
 348 164 348 164 348 127 c 0,27,28
 348 97 348 97 373 81.5 c 128,-1,29
 398 66 398 66 500 66 c 0,30,31
 845 66 845 66 1036 269.5 c 128,-1,32
 1227 473 1227 473 1227 825 c 0,33,34
 1227 1045 1227 1045 1111 1164.5 c 128,-1,35
 995 1284 995 1284 776 1284 c 0,36,37
 730 1284 730 1284 672 1280 c 1,38,-1
 514 729 l 1,39,-1
 868 729 l 1,40,-1
 846 655 l 1,41,-1
 492 655 l 1,24,-1
EndSplineSet
EndChar
StartChar: eth
Encoding: 240 240 234
Width: 1024
Flags: W
Fore
989 1335 m 1,0,-1
 776 1221 l 1,1,2
 958 926 958 926 958 618 c 0,3,4
 958 375 958 375 795 175 c 128,-1,5
 632 -25 632 -25 401 -25 c 0,6,7
 70 -25 70 -25 70 317 c 0,8,9
 70 556 70 556 241 760.5 c 128,-1,10
 412 965 412 965 639 965 c 0,11,12
 710 965 710 965 768 942 c 1,13,14
 750 1059 750 1059 698 1180 c 1,15,-1
 479 1061 l 1,16,-1
 446 1114 l 1,17,-1
 670 1235 l 1,18,19
 639 1307 639 1307 567 1399 c 1,20,-1
 602 1421 l 1,21,22
 680 1355 680 1355 737 1270 c 1,23,-1
 956 1391 l 1,24,-1
 989 1335 l 1,0,-1
410 35 m 0,25,26
 557 35 557 35 669.5 243.5 c 128,-1,27
 782 452 782 452 782 688 c 0,28,29
 782 789 782 789 743 847 c 128,-1,30
 704 905 704 905 629 905 c 0,31,32
 480 905 480 905 363 684 c 128,-1,33
 246 463 246 463 246 260 c 0,34,35
 246 35 246 35 410 35 c 0,25,26
EndSplineSet
EndChar
StartChar: Thorn
Encoding: 222 222 237
Width: 1251
Flags: W
Fore
625 1116 m 1,0,-1
 795 1116 l 2,1,2
 989 1116 989 1116 1092.5 1020.5 c 128,-1,3
 1196 925 1196 925 1196 782 c 0,4,5
 1196 586 1196 586 1019.5 456 c 128,-1,6
 843 326 843 326 602 326 c 2,7,-1
 397 326 l 1,8,9
 348 152 348 152 348 125 c 0,10,11
 348 88 348 88 376 67.5 c 128,-1,12
 404 47 404 47 510 47 c 1,13,-1
 498 0 l 1,14,-1
 -49 0 l 1,15,-1
 -37 47 l 1,16,17
 75 47 75 47 111 79 c 128,-1,18
 147 111 147 111 188 254 c 2,19,-1
 424 1063 l 2,20,21
 459 1180 459 1180 459 1239 c 0,22,23
 459 1274 459 1274 432.5 1291.5 c 128,-1,24
 406 1309 406 1309 303 1309 c 1,25,-1
 315 1356 l 1,26,-1
 862 1356 l 1,27,-1
 850 1309 l 1,28,-1
 807 1309 l 2,29,30
 746 1309 746 1309 700.5 1273 c 128,-1,31
 655 1237 655 1237 625 1116 c 1,0,-1
418 397 m 1,32,-1
 571 397 l 2,33,34
 771 397 771 397 881 533 c 128,-1,35
 991 669 991 669 991 807 c 0,36,37
 991 1044 991 1044 745 1044 c 0,38,39
 687 1044 687 1044 598 1026 c 1,40,-1
 418 397 l 1,32,-1
EndSplineSet
EndChar
StartChar: thorn
Encoding: 254 254 238
Width: 1024
Flags: W
Fore
424 735 m 1,0,1
 589 965 589 965 774 965 c 0,2,3
 869 965 869 965 928 891 c 128,-1,4
 987 817 987 817 987 696 c 0,5,6
 987 426 987 426 812 200.5 c 128,-1,7
 637 -25 637 -25 412 -25 c 0,8,9
 313 -25 313 -25 233 33 c 1,10,11
 156 -246 156 -246 148.5 -273.5 c 128,-1,12
 141 -301 141 -301 141 -334 c 0,13,14
 141 -391 141 -391 293 -391 c 1,15,-1
 283 -438 l 1,16,-1
 -199 -438 l 1,17,-1
 -188 -391 l 1,18,19
 -93 -391 -93 -391 -58.5 -358.5 c 128,-1,20
 -24 -326 -24 -326 0 -238 c 2,21,-1
 379 1163 l 2,22,23
 401 1249 401 1249 401 1280 c 0,24,25
 401 1292 401 1292 382 1303.5 c 128,-1,26
 363 1315 363 1315 262 1319 c 1,27,-1
 262 1362 l 1,28,-1
 567 1421 l 1,29,-1
 608 1421 l 1,30,-1
 424 735 l 1,0,1
258 123 m 1,31,32
 323 35 323 35 410 35 c 0,33,34
 551 35 551 35 681 245 c 128,-1,35
 811 455 811 455 811 672 c 0,36,37
 811 846 811 846 702 846 c 0,38,39
 652 846 652 846 599.5 817.5 c 128,-1,40
 547 789 547 789 492 733 c 0,41,42
 397 637 397 637 384 589 c 2,43,-1
 258 123 l 1,31,32
EndSplineSet
EndChar
StartChar: minus
Encoding: 8722 8722 239
Width: 1382
Flags: W
Fore
1282 639 m 1,0,-1
 205 639 l 1,1,-1
 205 721 l 1,2,-1
 1282 721 l 1,3,-1
 1282 639 l 1,0,-1
EndSplineSet
EndChar
StartChar: multiply
Encoding: 215 215 240
Width: 1382
Flags: W
Fore
1151 326 m 1,0,-1
 1094 268 l 1,1,-1
 739 623 l 1,2,-1
 385 268 l 1,3,-1
 328 326 l 1,4,-1
 682 680 l 1,5,-1
 328 1034 l 1,6,-1
 385 1092 l 1,7,-1
 739 737 l 1,8,-1
 1094 1092 l 1,9,-1
 1151 1034 l 1,10,-1
 797 680 l 1,11,-1
 1151 326 l 1,0,-1
EndSplineSet
EndChar
StartChar: onesuperior
Encoding: 185 185 241
Width: 614
Flags: W
Fore
594 1386 m 1,0,-1
 417 763 l 2,1,2
 413 749 413 749 413 736 c 0,3,4
 413 714 413 714 433.5 707 c 128,-1,5
 454 700 454 700 506 700 c 1,6,-1
 496 664 l 1,7,-1
 137 664 l 1,8,-1
 147 700 l 1,9,10
 210 700 210 700 238 708 c 128,-1,11
 266 716 266 716 277 733 c 128,-1,12
 288 750 288 750 320 860 c 2,13,-1
 392 1112 l 2,14,15
 432 1252 432 1252 432 1262 c 0,16,17
 432 1288 432 1288 375 1288 c 2,18,-1
 319 1288 l 1,19,-1
 330 1325 l 1,20,21
 461 1325 461 1325 557 1386 c 1,22,-1
 594 1386 l 1,0,-1
EndSplineSet
EndChar
StartChar: twosuperior
Encoding: 178 178 242
Width: 614
Flags: W
Fore
211 1200 m 1,0,1
 336 1386 336 1386 516 1386 c 0,2,3
 595 1386 595 1386 644.5 1342.5 c 128,-1,4
 694 1299 694 1299 694 1229 c 0,5,6
 694 1137 694 1137 616 1047 c 128,-1,7
 538 957 538 957 209 758 c 1,8,-1
 440 758 l 2,9,10
 500 758 500 758 523 772.5 c 128,-1,11
 546 787 546 787 561 840 c 1,12,-1
 598 840 l 1,13,-1
 549 664 l 1,14,-1
 45 664 l 1,15,-1
 55 700 l 1,16,17
 323 884 323 884 444 1001 c 128,-1,18
 565 1118 565 1118 565 1202 c 0,19,20
 565 1290 565 1290 459 1290 c 0,21,22
 338 1290 338 1290 238 1182 c 1,23,-1
 211 1200 l 1,0,1
EndSplineSet
EndChar
StartChar: threesuperior
Encoding: 179 179 243
Width: 614
Flags: W
Fore
229 1239 m 1,0,1
 359 1386 359 1386 508 1386 c 0,2,3
 576 1386 576 1386 617.5 1350 c 128,-1,4
 659 1314 659 1314 659 1262 c 0,5,6
 659 1207 659 1207 609.5 1157 c 128,-1,7
 560 1107 560 1107 477 1083 c 1,8,-1
 477 1081 l 1,9,10
 538 1074 538 1074 571 1036 c 128,-1,11
 604 998 604 998 604 942 c 0,12,13
 604 821 604 821 494 735 c 128,-1,14
 384 649 384 649 231 649 c 0,15,16
 128 649 128 649 57 692 c 1,17,-1
 86 725 l 1,18,19
 145 698 145 698 231 698 c 0,20,21
 344 698 344 698 409.5 766.5 c 128,-1,22
 475 835 475 835 475 924 c 0,23,24
 475 971 475 971 447.5 999.5 c 128,-1,25
 420 1028 420 1028 375 1028 c 0,26,27
 346 1028 346 1028 301 1022 c 1,28,-1
 313 1065 l 1,29,30
 420 1088 420 1088 477.5 1135.5 c 128,-1,31
 535 1183 535 1183 535 1239 c 0,32,33
 535 1269 535 1269 512.5 1289 c 128,-1,34
 490 1309 490 1309 453 1309 c 0,35,36
 363 1309 363 1309 260 1223 c 1,37,-1
 229 1239 l 1,0,1
EndSplineSet
EndChar
StartChar: uni00AF
Encoding: 175 175 248
Width: 1024
Flags: W
Fore
1040 1507 m 1,0,-1
 -16 1507 l 1,1,-1
 -16 1610 l 1,2,-1
 1040 1610 l 1,3,-1
 1040 1507 l 1,0,-1
EndSplineSet
EndChar
StartChar: foursuperior
Encoding: 8308 8308 249
Width: 614
Flags: W
Fore
594 1389 m 1,0,-1
 465 934 l 1,1,-1
 588 934 l 1,2,-1
 561 844 l 1,3,-1
 438 844 l 1,4,5
 411 753 411 753 411 740 c 0,6,7
 411 718 411 718 433 710 c 128,-1,8
 455 702 455 702 512 702 c 1,9,-1
 502 666 l 1,10,-1
 119 666 l 1,11,-1
 129 702 l 1,12,13
 206 702 206 702 237 711 c 128,-1,14
 268 720 268 720 277.5 738 c 128,-1,15
 287 756 287 756 313 844 c 1,16,-1
 -18 844 l 1,17,-1
 4 926 l 1,18,-1
 508 1389 l 1,19,-1
 594 1389 l 1,0,-1
430 1251 m 1,20,-1
 86 934 l 1,21,-1
 340 934 l 1,22,-1
 430 1251 l 1,20,-1
EndSplineSet
EndChar
StartChar: Aogonek
Encoding: 260 260 252
Width: 1251
Flags: W
Fore
868 0 m 1,1,-1
 647 0 l 1,2,-1
 659 47 l 1,3,4
 759 47 759 47 801.5 66.5 c 128,-1,5
 844 86 844 86 844 146 c 0,6,7
 844 164 844 164 809 436 c 1,8,-1
 334 436 l 1,9,10
 191 195 191 195 178.5 169 c 128,-1,11
 166 143 166 143 166 113 c 0,12,13
 166 47 166 47 285 47 c 1,14,-1
 272 0 l 1,15,-1
 -145 0 l 1,16,-1
 -133 47 l 1,17,18
 -71 47 -71 47 -19 73 c 128,-1,19
 33 99 33 99 98 207 c 2,20,-1
 809 1386 l 1,21,-1
 866 1386 l 1,22,-1
 1028 156 l 2,23,24
 1036 96 1036 96 1074.5 71.5 c 128,-1,25
 1113 47 1113 47 1198 47 c 1,26,-1
 1186 0 l 1,27,-1
 956 0 l 1,28,29
 852 -105 852 -105 852 -197 c 0,30,31
 852 -287 852 -287 950 -287 c 0,32,33
 1045 -287 1045 -287 1122 -223 c 1,34,-1
 1147 -256 l 1,35,36
 1048 -362 1048 -362 903 -362 c 0,37,38
 816 -362 816 -362 761.5 -320.5 c 128,-1,39
 707 -279 707 -279 707 -207 c 0,40,0
 707 -100 707 -100 868 0 c 1,1,-1
799 518 m 1,41,-1
 725 1094 l 1,42,-1
 383 518 l 1,43,-1
 799 518 l 1,41,-1
EndSplineSet
EndChar
StartChar: aogonek
Encoding: 261 261 253
Width: 1024
Flags: W
Fore
827 -287 m 0,1,2
 922 -287 922 -287 999 -223 c 1,3,-1
 1024 -256 l 1,4,5
 925 -362 925 -362 780 -362 c 0,6,7
 693 -362 693 -362 638.5 -320.5 c 128,-1,8
 584 -279 584 -279 584 -207 c 0,9,10
 584 -116 584 -116 709 -25 c 1,11,-1
 696 -25 l 2,12,13
 655 -25 655 -25 628.5 -2.5 c 128,-1,14
 602 20 602 20 602 57 c 0,15,16
 602 91 602 91 649 258 c 1,17,18
 581 134 581 134 480 54.5 c 128,-1,19
 379 -25 379 -25 283 -25 c 0,20,21
 188 -25 188 -25 129 49 c 128,-1,22
 70 123 70 123 70 244 c 0,23,24
 70 514 70 514 245 739.5 c 128,-1,25
 420 965 420 965 645 965 c 0,26,27
 767 965 767 965 807 846 c 1,28,-1
 829 932 l 1,29,-1
 989 932 l 1,30,-1
 788 190 l 2,31,32
 772 129 772 129 772 106 c 0,33,34
 772 95 772 95 781.5 85.5 c 128,-1,35
 791 76 791 76 803 76 c 0,36,37
 833 76 833 76 875 106.5 c 128,-1,38
 917 137 917 137 946 178 c 1,39,-1
 979 154 l 1,40,41
 928 82 928 82 852 16 c 0,42,43
 729 -88 729 -88 729 -197 c 0,44,0
 729 -287 729 -287 827 -287 c 0,1,2
778 737 m 2,45,46
 781 749 781 749 768.5 788 c 128,-1,47
 756 827 756 827 739.5 851.5 c 128,-1,48
 723 876 723 876 700 890.5 c 128,-1,49
 677 905 677 905 647 905 c 0,50,51
 506 905 506 905 376 695 c 128,-1,52
 246 485 246 485 246 268 c 0,53,54
 246 94 246 94 354 94 c 0,55,56
 409 94 409 94 470.5 138.5 c 128,-1,57
 532 183 532 183 609.5 290.5 c 128,-1,58
 687 398 687 398 692 418 c 2,59,-1
 778 737 l 2,45,46
EndSplineSet
EndChar
StartChar: dcroat
Encoding: 273 273 261
Width: 1024
Flags: W
Fore
1034 1106 m 1,0,-1
 788 190 l 2,1,2
 772 129 772 129 772 106 c 0,3,4
 772 95 772 95 781.5 85.5 c 128,-1,5
 791 76 791 76 803 76 c 0,6,7
 833 76 833 76 875 106.5 c 128,-1,8
 917 137 917 137 946 178 c 1,9,-1
 979 154 l 1,10,11
 857 -25 857 -25 696 -25 c 0,12,13
 655 -25 655 -25 628.5 -2.5 c 128,-1,14
 602 20 602 20 602 57 c 0,15,16
 602 91 602 91 649 258 c 1,17,18
 581 134 581 134 480 54.5 c 128,-1,19
 379 -25 379 -25 283 -25 c 0,20,21
 188 -25 188 -25 129 49 c 128,-1,22
 70 123 70 123 70 244 c 0,23,24
 70 514 70 514 245 739.5 c 128,-1,25
 420 965 420 965 645 965 c 0,26,27
 767 965 767 965 807 846 c 1,28,-1
 877 1106 l 1,29,-1
 641 1106 l 1,30,-1
 664 1180 l 1,31,-1
 895 1180 l 1,32,33
 913 1251 913 1251 913 1280 c 0,34,35
 913 1292 913 1292 894 1303.5 c 128,-1,36
 875 1315 875 1315 774 1319 c 1,37,-1
 774 1362 l 1,38,-1
 1079 1421 l 1,39,-1
 1120 1421 l 1,40,-1
 1055 1180 l 1,41,-1
 1233 1180 l 1,42,-1
 1212 1106 l 1,43,-1
 1034 1106 l 1,0,-1
778 737 m 2,44,45
 781 749 781 749 768.5 788 c 128,-1,46
 756 827 756 827 739.5 851.5 c 128,-1,47
 723 876 723 876 700 890.5 c 128,-1,48
 677 905 677 905 647 905 c 0,49,50
 506 905 506 905 376 695 c 128,-1,51
 246 485 246 485 246 268 c 0,52,53
 246 94 246 94 354 94 c 0,54,55
 409 94 409 94 470.5 138.5 c 128,-1,56
 532 183 532 183 609.5 290.5 c 128,-1,57
 687 398 687 398 692 418 c 2,58,-1
 778 737 l 2,44,45
EndSplineSet
EndChar
StartChar: Eogonek
Encoding: 280 280 262
Width: 1251
Flags: W
Fore
1292 1356 m 1,0,-1
 1204 1028 l 1,1,-1
 1157 1028 l 1,2,3
 1169 1112 1169 1112 1169 1141 c 0,4,5
 1169 1186 1169 1186 1156.5 1215.5 c 128,-1,6
 1144 1245 1144 1245 1096.5 1264.5 c 128,-1,7
 1049 1284 1049 1284 950 1284 c 2,8,-1
 672 1284 l 1,9,-1
 516 745 l 1,10,-1
 692 745 l 2,11,12
 793 745 793 745 837 754 c 128,-1,13
 881 763 881 763 915 802.5 c 128,-1,14
 949 842 949 842 991 940 c 1,15,-1
 1038 940 l 1,16,-1
 899 446 l 1,17,-1
 852 446 l 1,18,19
 868 520 868 520 868 563 c 0,20,21
 868 622 868 622 844.5 648 c 128,-1,22
 821 674 821 674 739 674 c 2,23,-1
 498 674 l 1,24,-1
 375 246 l 2,25,26
 350 159 350 159 350 135 c 0,27,28
 350 97 350 97 369.5 84.5 c 128,-1,29
 389 72 389 72 500 72 c 0,30,31
 720 72 720 72 817.5 89 c 128,-1,32
 915 106 915 106 971.5 167.5 c 128,-1,33
 1028 229 1028 229 1079 377 c 1,34,-1
 1126 377 l 1,35,-1
 1016 0 l 1,36,-1
 786 0 l 1,37,38
 682 -105 682 -105 682 -197 c 0,39,40
 682 -287 682 -287 780 -287 c 0,41,42
 875 -287 875 -287 952 -223 c 1,43,-1
 977 -256 l 1,44,45
 878 -362 878 -362 733 -362 c 0,46,47
 646 -362 646 -362 591.5 -320.5 c 128,-1,48
 537 -279 537 -279 537 -207 c 0,49,50
 537 -100 537 -100 698 0 c 1,51,-1
 -49 0 l 1,52,-1
 -37 47 l 1,53,54
 75 47 75 47 111 79 c 128,-1,55
 147 111 147 111 188 254 c 2,56,-1
 424 1063 l 2,57,58
 459 1180 459 1180 459 1239 c 0,59,60
 459 1274 459 1274 432.5 1291.5 c 128,-1,61
 406 1309 406 1309 303 1309 c 1,62,-1
 315 1356 l 1,63,-1
 1292 1356 l 1,0,-1
EndSplineSet
EndChar
StartChar: eogonek
Encoding: 281 281 263
Width: 909
Flags: W
Fore
344 -25 m 0,0,1
 211 -25 211 -25 140.5 53 c 128,-1,2
 70 131 70 131 70 274 c 0,3,4
 70 425 70 425 160 591 c 128,-1,5
 250 757 250 757 391.5 861 c 128,-1,6
 533 965 533 965 674 965 c 0,7,8
 887 965 887 965 887 799 c 0,9,10
 887 648 887 648 717 537 c 128,-1,11
 547 426 547 426 256 403 c 1,12,13
 246 337 246 337 246 293 c 0,14,15
 246 194 246 194 293 137 c 128,-1,16
 340 80 340 80 424 80 c 0,17,18
 573 80 573 80 735 195 c 1,19,-1
 758 156 l 1,20,21
 681 76 681 76 565 16 c 0,22,23
 514 -9 514 -9 475 -73.5 c 128,-1,24
 436 -138 436 -138 436 -197 c 0,25,26
 436 -287 436 -287 535 -287 c 0,27,28
 629 -287 629 -287 707 -223 c 1,29,-1
 731 -256 l 1,30,31
 632 -362 632 -362 487 -362 c 0,32,33
 400 -362 400 -362 345.5 -320.5 c 128,-1,34
 291 -279 291 -279 291 -207 c 0,35,36
 291 -112 291 -112 424 -18 c 1,37,38
 384 -25 384 -25 344 -25 c 0,0,1
270 465 m 1,39,40
 497 485 497 485 609 583 c 128,-1,41
 721 681 721 681 721 795 c 0,42,43
 721 905 721 905 651 905 c 0,44,45
 536 905 536 905 424 768.5 c 128,-1,46
 312 632 312 632 270 465 c 1,39,40
EndSplineSet
EndChar
StartChar: glyph296
Encoding: 65541 -1 296
Width: 682
Flags: W
Fore
179 -387 m 1,0,1
 264 -387 264 -387 313.5 -362.5 c 128,-1,2
 363 -338 363 -338 363 -311 c 0,3,4
 363 -288 363 -288 300 -283 c 0,5,6
 270 -281 270 -281 248 -262.5 c 128,-1,7
 226 -244 226 -244 226 -215 c 0,8,9
 226 -171 226 -171 259.5 -144 c 128,-1,10
 293 -117 293 -117 351 -117 c 0,11,12
 406 -117 406 -117 441 -147.5 c 128,-1,13
 476 -178 476 -178 476 -225 c 0,14,15
 476 -319 476 -319 395.5 -379.5 c 128,-1,16
 315 -440 315 -440 165 -440 c 1,17,-1
 179 -387 l 1,0,1
EndSplineSet
EndChar
StartChar: currency
Encoding: 164 164 297
Width: 1024
Flags: W
Fore
1014 287 m 1,0,-1
 956 229 l 1,1,-1
 809 377 l 1,2,3
 701 291 701 291 563 291 c 0,4,5
 425 291 425 291 317 377 c 1,6,-1
 172 231 l 1,7,-1
 115 289 l 1,8,-1
 260 434 l 1,9,10
 174 542 174 542 174 680 c 0,11,12
 174 818 174 818 260 924 c 1,13,14
 262 924 262 924 113 1073 c 1,15,-1
 170 1130 l 1,16,-1
 317 983 l 1,17,18
 425 1069 425 1069 563 1069 c 0,19,20
 703 1069 703 1069 807 981 c 1,21,-1
 956 1130 l 1,22,-1
 1014 1073 l 1,23,-1
 866 926 l 1,24,25
 952 818 952 818 952 680 c 0,26,27
 952 540 952 540 864 434 c 1,28,29
 864 436 864 436 1014 287 c 1,0,-1
563 373 m 0,30,31
 690 373 690 373 780 463 c 128,-1,32
 870 553 870 553 870 680 c 0,33,34
 870 807 870 807 780 897 c 128,-1,35
 690 987 690 987 563 987 c 0,36,37
 436 987 436 987 346 897 c 128,-1,38
 256 807 256 807 256 680 c 0,39,40
 256 552 256 552 346 462.5 c 128,-1,41
 436 373 436 373 563 373 c 0,30,31
EndSplineSet
EndChar
StartChar: afii10051
Encoding: 1026 1026 299
Width: 1632
Flags: W
Fore
715 686 m 1,0,1
 888 823 888 823 1094 823 c 0,2,3
 1273 823 1273 823 1397.5 720 c 128,-1,4
 1522 617 1522 617 1522 463 c 0,5,6
 1522 245 1522 245 1394.5 111 c 128,-1,7
 1267 -23 1267 -23 1071 -23 c 0,8,9
 1011 -23 1011 -23 975 -6 c 1,10,-1
 983 29 l 1,11,12
 998 25 998 25 1034 25 c 0,13,14
 1156 25 1156 25 1230.5 140.5 c 128,-1,15
 1305 256 1305 256 1305 459 c 0,16,17
 1305 588 1305 588 1238.5 664.5 c 128,-1,18
 1172 741 1172 741 1055 741 c 0,19,20
 874 741 874 741 686 584 c 1,21,-1
 596 274 l 2,22,23
 565 167 565 167 565 123 c 0,24,25
 565 85 565 85 589 68.5 c 128,-1,26
 613 52 613 52 643.5 49.5 c 128,-1,27
 674 47 674 47 756 47 c 1,28,-1
 743 0 l 1,29,-1
 143 0 l 1,30,-1
 156 47 l 1,31,32
 271 47 271 47 315 78 c 128,-1,33
 359 109 359 109 393 225 c 2,34,-1
 700 1274 l 1,35,-1
 537 1274 l 2,36,37
 330 1274 330 1274 256 997 c 1,38,-1
 209 997 l 1,39,-1
 305 1356 l 1,40,-1
 1333 1356 l 1,41,-1
 1225 997 l 1,42,-1
 1178 997 l 1,43,44
 1200 1110 1200 1110 1200 1159 c 0,45,46
 1200 1212 1200 1212 1164.5 1243 c 128,-1,47
 1129 1274 1129 1274 1063 1274 c 2,48,-1
 885 1274 l 1,49,-1
 715 686 l 1,0,1
EndSplineSet
EndChar
StartChar: afii10053
Encoding: 1028 1028 301
Width: 1370
Flags: W
Fore
1442 1386 m 1,0,-1
 1346 975 l 1,1,-1
 1300 975 l 1,2,-1
 1300 1038 l 2,3,4
 1300 1315 1300 1315 1006 1315 c 0,5,6
 788 1315 788 1315 621.5 1158 c 128,-1,7
 455 1001 455 1001 387 735 c 1,8,-1
 662 735 l 2,9,10
 778 735 778 735 825.5 763 c 128,-1,11
 873 791 873 791 915 889 c 1,12,-1
 963 889 l 1,13,-1
 840 467 l 1,14,-1
 793 467 l 1,15,16
 805 525 805 525 805 559 c 0,17,18
 805 653 805 653 672 653 c 2,19,-1
 373 653 l 1,20,21
 360 580 360 580 360 510 c 0,22,23
 360 311 360 311 470 191.5 c 128,-1,24
 580 72 580 72 754 72 c 0,25,26
 1038 72 1038 72 1221 309 c 1,27,-1
 1253 289 l 1,28,29
 1054 -31 1054 -31 688 -31 c 0,30,31
 441 -31 441 -31 289 118 c 128,-1,32
 137 267 137 267 137 512 c 0,33,34
 137 736 137 736 258.5 940.5 c 128,-1,35
 380 1145 380 1145 584 1265.5 c 128,-1,36
 788 1386 788 1386 1012 1386 c 0,37,38
 1114 1386 1114 1386 1223 1352 c 0,39,40
 1290 1331 1290 1331 1329 1331 c 0,41,42
 1371 1331 1371 1331 1395 1386 c 1,43,-1
 1442 1386 l 1,0,-1
EndSplineSet
EndChar
StartChar: afii10058
Encoding: 1033 1033 306
Width: 1899
Flags: W
Fore
1210 754 m 1,0,-1
 1303 754 l 2,1,2
 1546 754 1546 754 1676 660.5 c 128,-1,3
 1806 567 1806 567 1806 430 c 0,4,5
 1806 246 1806 246 1654.5 123 c 128,-1,6
 1503 0 1503 0 1212 0 c 2,7,-1
 641 0 l 1,8,-1
 653 47 l 1,9,10
 766 47 766 47 801.5 79 c 128,-1,11
 837 111 837 111 879 254 c 2,12,-1
 1182 1294 l 1,13,-1
 262 190 l 2,14,15
 221 143 221 143 221 111 c 0,16,17
 221 47 221 47 340 47 c 1,18,-1
 328 0 l 1,19,-1
 -145 0 l 1,20,-1
 -133 47 l 1,21,22
 -56 47 -56 47 30 99.5 c 128,-1,23
 116 152 116 152 193 242 c 2,24,-1
 1102 1309 l 1,25,-1
 891 1309 l 1,26,-1
 903 1356 l 1,27,-1
 1382 1356 l 1,28,-1
 1210 754 l 1,0,-1
1020 88 m 1,29,30
 1094 72 1094 72 1184 72 c 0,31,32
 1372 72 1372 72 1480.5 166.5 c 128,-1,33
 1589 261 1589 261 1589 424 c 0,34,35
 1589 682 1589 682 1274 682 c 2,36,-1
 1190 682 l 1,37,-1
 1020 88 l 1,29,30
EndSplineSet
KernsSLIFO: 183 -248 1 0
EndChar
StartChar: afii10059
Encoding: 1034 1034 307
Width: 1886
Flags: W
Fore
1235 754 m 1,0,-1
 1290 754 l 2,1,2
 1534 754 1534 754 1664 660.5 c 128,-1,3
 1794 567 1794 567 1794 430 c 0,4,5
 1794 239 1794 239 1637 119.5 c 128,-1,6
 1480 0 1480 0 1200 0 c 2,7,-1
 666 0 l 1,8,-1
 678 47 l 1,9,10
 755 47 755 47 790.5 58 c 128,-1,11
 826 69 826 69 848.5 107 c 128,-1,12
 871 145 871 145 916 299 c 2,13,-1
 1024 670 l 1,14,-1
 496 670 l 1,15,-1
 372 235 l 2,16,17
 348 154 348 154 348 125 c 0,18,19
 348 87 348 87 379 67 c 128,-1,20
 410 47 410 47 510 47 c 1,21,-1
 498 0 l 1,22,-1
 -49 0 l 1,23,-1
 -37 47 l 1,24,25
 75 47 75 47 111 79 c 128,-1,26
 147 111 147 111 188 254 c 2,27,-1
 424 1063 l 2,28,29
 459 1180 459 1180 459 1239 c 0,30,31
 459 1274 459 1274 432.5 1291.5 c 128,-1,32
 406 1309 406 1309 303 1309 c 1,33,-1
 315 1356 l 1,34,-1
 862 1356 l 1,35,-1
 850 1309 l 1,36,-1
 807 1309 l 2,37,38
 682 1309 682 1309 641 1171 c 2,39,-1
 518 752 l 1,40,-1
 1049 752 l 1,41,42
 1152 1109 1152 1109 1163 1148 c 128,-1,43
 1174 1187 1174 1187 1174 1239 c 0,44,45
 1174 1274 1174 1274 1147.5 1291.5 c 128,-1,46
 1121 1309 1121 1309 1018 1309 c 1,47,-1
 1030 1356 l 1,48,-1
 1577 1356 l 1,49,-1
 1565 1309 l 1,50,-1
 1522 1309 l 2,51,52
 1455 1309 1455 1309 1413.5 1270.5 c 128,-1,53
 1372 1232 1372 1232 1347 1144 c 2,54,-1
 1235 754 l 1,0,-1
1042 84 m 1,55,56
 1102 72 1102 72 1171 72 c 0,57,58
 1359 72 1359 72 1468 166.5 c 128,-1,59
 1577 261 1577 261 1577 424 c 0,60,61
 1577 682 1577 682 1262 682 c 2,62,-1
 1214 682 l 1,63,-1
 1042 84 l 1,55,56
EndSplineSet
KernsSLIFO: 183 -180 1 0
EndChar
StartChar: afii10060
Encoding: 1035 1035 308
Width: 1636
Flags: W
Fore
1462 47 m 1,0,-1
 1450 0 l 1,1,-1
 903 0 l 1,2,-1
 915 47 l 1,3,4
 998 47 998 47 1033.5 60 c 128,-1,5
 1069 73 1069 73 1091 116 c 128,-1,6
 1113 159 1113 159 1155 305 c 2,7,-1
 1230 562 l 2,8,9
 1262 674 1262 674 1262 711 c 0,10,11
 1262 769 1262 769 1222 803.5 c 128,-1,12
 1182 838 1182 838 1112 838 c 0,13,14
 966 838 966 838 709 664 c 1,15,-1
 597 275 l 2,16,17
 565 167 565 167 565 123 c 0,18,19
 565 85 565 85 589 68.5 c 128,-1,20
 613 52 613 52 643.5 49.5 c 128,-1,21
 674 47 674 47 756 47 c 1,22,-1
 743 0 l 1,23,-1
 143 0 l 1,24,-1
 156 47 l 1,25,26
 271 47 271 47 315 78 c 128,-1,27
 359 109 359 109 393 225 c 2,28,-1
 700 1274 l 1,29,-1
 537 1274 l 2,30,31
 330 1274 330 1274 256 997 c 1,32,-1
 209 997 l 1,33,-1
 305 1356 l 1,34,-1
 1333 1356 l 1,35,-1
 1241 1051 l 1,36,-1
 1194 1051 l 1,37,38
 1208 1115 1208 1115 1208 1165 c 0,39,40
 1208 1213 1208 1213 1171.5 1243.5 c 128,-1,41
 1135 1274 1135 1274 1063 1274 c 2,42,-1
 885 1274 l 1,43,-1
 735 756 l 1,44,45
 1006 944 1006 944 1182 944 c 0,46,47
 1307 944 1307 944 1377.5 884.5 c 128,-1,48
 1448 825 1448 825 1448 715 c 0,49,50
 1448 665 1448 665 1430 602 c 2,51,-1
 1324 234 l 2,52,53
 1300 153 1300 153 1300 125 c 0,54,55
 1300 87 1300 87 1331.5 67 c 128,-1,56
 1363 47 1363 47 1462 47 c 1,0,-1
EndSplineSet
EndChar
StartChar: afii10145
Encoding: 1039 1039 311
Width: 1479
Flags: W
Fore
1657 1356 m 1,0,-1
 1645 1309 l 1,1,-1
 1602 1309 l 2,2,3
 1540 1309 1540 1309 1497 1274.5 c 128,-1,4
 1454 1240 1454 1240 1425 1139 c 2,5,-1
 1182 289 l 2,6,7
 1143 149 1143 149 1143 125 c 0,8,9
 1143 87 1143 87 1174 67 c 128,-1,10
 1205 47 1205 47 1305 47 c 1,11,-1
 1292 0 l 1,12,-1
 850 0 l 2,13,14
 765 0 765 0 714.5 -23 c 128,-1,15
 664 -46 664 -46 625 -113 c 128,-1,16
 586 -180 586 -180 547 -315 c 1,17,-1
 481 -315 l 1,18,19
 520 -178 520 -178 520 -109 c 0,20,21
 520 -51 520 -51 484.5 -25.5 c 128,-1,22
 449 0 449 0 358 0 c 2,23,-1
 -49 0 l 1,24,-1
 -37 47 l 1,25,26
 75 47 75 47 111 79 c 128,-1,27
 147 111 147 111 188 254 c 2,28,-1
 424 1063 l 2,29,30
 459 1180 459 1180 459 1239 c 0,31,32
 459 1274 459 1274 432.5 1291.5 c 128,-1,33
 406 1309 406 1309 303 1309 c 1,34,-1
 315 1356 l 1,35,-1
 862 1356 l 1,36,-1
 850 1309 l 1,37,-1
 807 1309 l 2,38,39
 744 1309 744 1309 701.5 1273 c 128,-1,40
 659 1237 659 1237 631 1139 c 2,41,-1
 326 74 l 1,42,-1
 930 74 l 1,43,-1
 1219 1063 l 2,44,45
 1253 1180 1253 1180 1253 1239 c 0,46,47
 1253 1274 1253 1274 1227 1291.5 c 128,-1,48
 1201 1309 1201 1309 1098 1309 c 1,49,-1
 1110 1356 l 1,50,-1
 1657 1356 l 1,0,-1
EndSplineSet
EndChar
StartChar: afii10018
Encoding: 1041 1041 313
Width: 1208
Flags: W
Fore
1274 1356 m 1,0,-1
 1169 967 l 1,1,-1
 1122 967 l 1,2,3
 1139 1045 1139 1045 1139 1100 c 0,4,5
 1139 1284 1139 1284 911 1284 c 2,6,-1
 672 1284 l 1,7,-1
 520 754 l 1,8,-1
 612 754 l 2,9,10
 856 754 856 754 986 660.5 c 128,-1,11
 1116 567 1116 567 1116 430 c 0,12,13
 1116 239 1116 239 959 119.5 c 128,-1,14
 802 0 802 0 522 0 c 2,15,-1
 -49 0 l 1,16,-1
 -37 47 l 1,17,18
 75 47 75 47 111 79 c 128,-1,19
 147 111 147 111 188 254 c 2,20,-1
 424 1063 l 2,21,22
 459 1180 459 1180 459 1239 c 0,23,24
 459 1274 459 1274 432.5 1291.5 c 128,-1,25
 406 1309 406 1309 303 1309 c 1,26,-1
 315 1356 l 1,27,-1
 1274 1356 l 1,0,-1
330 88 m 1,28,29
 404 72 404 72 494 72 c 0,30,31
 682 72 682 72 790.5 166.5 c 128,-1,32
 899 261 899 261 899 424 c 0,33,34
 899 682 899 682 584 682 c 2,35,-1
 500 682 l 1,36,-1
 330 88 l 1,28,29
EndSplineSet
KernsSLIFO: 375 47 1 0 363 -25 1 0 348 25 1 0 341 -29 1 0 335 -55 1 0 333 -27 1 0 332 -55 1 0 331 -82 1 0 319 76 1 0 318 51 1 0 316 25 1 0 312 -55 1 0
EndChar
StartChar: afii10020
Encoding: 1043 1043 315
Width: 1165
Flags: W
Fore
1337 1356 m 1,0,-1
 1233 967 l 1,1,-1
 1186 967 l 1,2,3
 1202 1045 1202 1045 1202 1100 c 0,4,5
 1202 1284 1202 1284 975 1284 c 2,6,-1
 670 1284 l 1,7,-1
 387 289 l 2,8,9
 348 149 348 149 348 125 c 0,10,11
 348 87 348 87 379 67 c 128,-1,12
 410 47 410 47 510 47 c 1,13,-1
 498 0 l 1,14,-1
 -49 0 l 1,15,-1
 -37 47 l 1,16,17
 75 47 75 47 111 79 c 128,-1,18
 147 111 147 111 188 254 c 2,19,-1
 424 1063 l 2,20,21
 459 1180 459 1180 459 1239 c 0,22,23
 459 1274 459 1274 432.5 1291.5 c 128,-1,24
 406 1309 406 1309 303 1309 c 1,25,-1
 315 1356 l 1,26,-1
 1337 1356 l 1,0,-1
EndSplineSet
KernsSLIFO: 375 -82 1 0 374 -133 1 0 372 -102 1 0 371 -109 1 0 363 -88 1 0 360 -57 1 0 358 -106 1 0 357 -61 1 0 356 -82 1 0 355 -109 1 0 352 -39 1 0 349 -61 1 0 348 -37 1 0 346 -78 1 0 344 -51 1 0 343 -27 1 0 326 -27 1 0 324 -51 1 0 323 -27 1 0 319 39 1 0 312 -154 1 0 29 51 1 0 17 -154 1 0 15 -129 1 0
EndChar
StartChar: afii10021
Encoding: 1044 1044 316
Width: 1303
Flags: W
Fore
1208 47 m 1,0,-1
 1104 -315 l 1,1,-1
 1061 -315 l 1,2,3
 1071 -235 1071 -235 1071 -217 c 0,4,5
 1071 -99 1071 -99 1015 -49.5 c 128,-1,6
 959 0 959 0 825 0 c 2,7,-1
 258 0 l 2,8,9
 97 0 97 0 6.5 -74.5 c 128,-1,10
 -84 -149 -84 -149 -156 -315 c 1,11,-1
 -197 -315 l 1,12,-1
 -92 47 l 1,13,14
 27 47 27 47 102 172 c 2,15,-1
 834 1386 l 1,16,-1
 891 1386 l 1,17,-1
 1051 180 l 2,18,19
 1060 101 1060 101 1089 74 c 128,-1,20
 1118 47 1118 47 1208 47 c 1,0,-1
881 74 m 1,21,-1
 750 1094 l 1,22,-1
 145 74 l 1,23,-1
 881 74 l 1,21,-1
EndSplineSet
EndChar
StartChar: afii10024
Encoding: 1046 1046 318
Width: 1876
Flags: W
Fore
1079 760 m 1,0,-1
 1102 760 l 2,1,2
 1189 760 1189 760 1317 864 c 128,-1,3
 1445 968 1445 968 1614 1176 c 0,4,5
 1691 1270 1691 1270 1761 1313 c 128,-1,6
 1831 1356 1831 1356 1923 1356 c 0,7,8
 1970 1356 1970 1356 2000 1332.5 c 128,-1,9
 2030 1309 2030 1309 2030 1274 c 0,10,11
 2030 1227 2030 1227 2000 1201.5 c 128,-1,12
 1970 1176 1970 1176 1933 1176 c 0,13,14
 1899 1176 1899 1176 1856 1205 c 0,15,16
 1822 1229 1822 1229 1800 1229 c 0,17,18
 1771 1229 1771 1229 1748 1209.5 c 128,-1,19
 1725 1190 1725 1190 1667 1122 c 0,20,21
 1537 969 1537 969 1422 863.5 c 128,-1,22
 1307 758 1307 758 1257 745 c 1,23,24
 1352 707 1352 707 1436 455 c 0,25,26
 1520 196 1520 196 1575 119.5 c 128,-1,27
 1630 43 1630 43 1690 43 c 0,28,29
 1715 43 1715 43 1763 47 c 1,30,-1
 1745 2 l 1,31,32
 1636 -20 1636 -20 1546 -20 c 0,33,34
 1468 -20 1468 -20 1406 51 c 128,-1,35
 1344 122 1344 122 1262 391 c 0,36,37
 1200 593 1200 593 1171.5 635.5 c 128,-1,38
 1143 678 1143 678 1092 678 c 2,39,-1
 1055 678 l 1,40,-1
 929 235 l 2,41,42
 905 154 905 154 905 125 c 0,43,44
 905 87 905 87 936 67 c 128,-1,45
 967 47 967 47 1067 47 c 1,46,-1
 1055 0 l 1,47,-1
 508 0 l 1,48,-1
 520 47 l 1,49,50
 598 47 598 47 633.5 58.5 c 128,-1,51
 669 70 669 70 691.5 108 c 128,-1,52
 714 146 714 146 759 302 c 2,53,-1
 868 678 l 1,54,-1
 842 678 l 2,55,56
 796 678 796 678 755 659.5 c 128,-1,57
 714 641 714 641 648 573.5 c 128,-1,58
 582 506 582 506 481 367 c 0,59,60
 351 186 351 186 234.5 83 c 128,-1,61
 118 -20 118 -20 -39 -20 c 0,62,63
 -132 -20 -132 -20 -225 2 c 1,64,-1
 -219 47 l 1,65,66
 -171 43 -171 43 -145 43 c 0,67,68
 -80 43 -80 43 -26.5 69.5 c 128,-1,69
 27 96 27 96 113 187.5 c 128,-1,70
 199 279 199 279 342 471 c 0,71,72
 519 710 519 710 729 748 c 1,73,74
 687 765 687 765 650.5 832 c 128,-1,75
 614 899 614 899 549 1133 c 0,76,77
 522 1229 522 1229 465 1229 c 0,78,79
 436 1229 436 1229 401 1203 c 0,80,81
 364 1176 364 1176 332 1176 c 0,82,83
 297 1176 297 1176 272.5 1198.5 c 128,-1,84
 248 1221 248 1221 248 1255 c 0,85,86
 248 1301 248 1301 288.5 1328.5 c 128,-1,87
 329 1356 329 1356 383 1356 c 0,88,89
 478 1356 478 1356 535.5 1308 c 128,-1,90
 593 1260 593 1260 623 1151 c 0,91,92
 688 901 688 901 736 830.5 c 128,-1,93
 784 760 784 760 860 760 c 2,94,-1
 893 760 l 1,95,96
 994 1106 994 1106 1005 1146.5 c 128,-1,97
 1016 1187 1016 1187 1016 1239 c 0,98,99
 1016 1274 1016 1274 989.5 1291.5 c 128,-1,100
 963 1309 963 1309 860 1309 c 1,101,-1
 872 1356 l 1,102,-1
 1419 1356 l 1,103,-1
 1407 1309 l 1,104,-1
 1364 1309 l 2,105,106
 1238 1309 1238 1309 1198 1171 c 2,107,-1
 1079 760 l 1,0,-1
EndSplineSet
KernsSLIFO: 363 -61 1 0 358 -27 1 0 335 -70 1 0 331 -70 1 0 329 -109 1 0 326 -109 1 0
EndChar
StartChar: afii10025
Encoding: 1047 1047 319
Width: 1014
Flags: W
Fore
406 1386 m 1,0,1
 408 1331 408 1331 449 1331 c 0,2,3
 465 1331 465 1331 508 1346 c 0,4,5
 622 1386 622 1386 735 1386 c 0,6,7
 886 1386 886 1386 984.5 1302.5 c 128,-1,8
 1083 1219 1083 1219 1083 1098 c 0,9,10
 1083 955 1083 955 959 847.5 c 128,-1,11
 835 740 835 740 627 711 c 1,12,13
 759 689 759 689 838.5 611 c 128,-1,14
 918 533 918 533 918 430 c 0,15,16
 918 243 918 243 755 106 c 128,-1,17
 592 -31 592 -31 350 -31 c 0,18,19
 216 -31 216 -31 112 40 c 128,-1,20
 8 111 8 111 -37 227 c 1,21,-1
 8 250 l 1,22,23
 56 162 56 162 145.5 117 c 128,-1,24
 235 72 235 72 346 72 c 0,25,26
 507 72 507 72 603.5 172.5 c 128,-1,27
 700 273 700 273 700 422 c 0,28,29
 700 541 700 541 616 606.5 c 128,-1,30
 532 672 532 672 375 672 c 1,31,-1
 393 737 l 1,32,33
 606 737 606 737 743.5 838 c 128,-1,34
 881 939 881 939 881 1096 c 0,35,36
 881 1198 881 1198 834.5 1256.5 c 128,-1,37
 788 1315 788 1315 700 1315 c 0,38,39
 445 1315 445 1315 295 991 c 1,40,-1
 248 991 l 1,41,-1
 360 1386 l 1,42,-1
 406 1386 l 1,0,1
EndSplineSet
KernsSLIFO: 348 27 1 0 335 -102 1 0 331 -27 1 0 330 25 1 0
EndChar
StartChar: afii10026
Encoding: 1048 1048 320
Width: 1479
Flags: W
Fore
1657 1356 m 1,0,-1
 1645 1309 l 1,1,-1
 1602 1309 l 2,2,3
 1540 1309 1540 1309 1497 1274.5 c 128,-1,4
 1454 1240 1454 1240 1425 1139 c 2,5,-1
 1182 289 l 2,6,7
 1143 149 1143 149 1143 125 c 0,8,9
 1143 87 1143 87 1174 67 c 128,-1,10
 1205 47 1205 47 1305 47 c 1,11,-1
 1292 0 l 1,12,-1
 745 0 l 1,13,-1
 758 47 l 1,14,15
 870 47 870 47 905.5 79 c 128,-1,16
 941 111 941 111 983 254 c 2,17,-1
 1249 1163 l 1,18,-1
 303 0 l 1,19,-1
 -49 0 l 1,20,-1
 -37 47 l 1,21,22
 75 47 75 47 111 79 c 128,-1,23
 147 111 147 111 188 254 c 2,24,-1
 424 1063 l 2,25,26
 459 1180 459 1180 459 1239 c 0,27,28
 459 1274 459 1274 432.5 1291.5 c 128,-1,29
 406 1309 406 1309 303 1309 c 1,30,-1
 315 1356 l 1,31,-1
 862 1356 l 1,32,-1
 850 1309 l 1,33,-1
 807 1309 l 2,34,35
 744 1309 744 1309 701.5 1273 c 128,-1,36
 659 1237 659 1237 631 1139 c 2,37,-1
 358 193 l 1,38,-1
 1305 1356 l 1,39,-1
 1657 1356 l 1,0,-1
EndSplineSet
EndChar
StartChar: afii10028
Encoding: 1050 1050 322
Width: 1360
Flags: W
Fore
522 760 m 1,0,-1
 545 760 l 2,1,2
 610 760 610 760 703 819 c 128,-1,3
 796 878 796 878 1077 1186 c 0,4,5
 1157 1274 1157 1274 1233.5 1315 c 128,-1,6
 1310 1356 1310 1356 1407 1356 c 0,7,8
 1454 1356 1454 1356 1483.5 1332.5 c 128,-1,9
 1513 1309 1513 1309 1513 1274 c 0,10,11
 1513 1229 1513 1229 1484.5 1202.5 c 128,-1,12
 1456 1176 1456 1176 1417 1176 c 0,13,14
 1383 1176 1383 1176 1340 1205 c 0,15,16
 1306 1229 1306 1229 1284 1229 c 0,17,18
 1244 1229 1244 1229 1209.5 1205 c 128,-1,19
 1175 1181 1175 1181 1130 1133 c 0,20,21
 784 763 784 763 707 752 c 1,22,23
 827 732 827 732 920 455 c 0,24,25
 1004 196 1004 196 1059 119.5 c 128,-1,26
 1114 43 1114 43 1174 43 c 0,27,28
 1199 43 1199 43 1247 47 c 1,29,-1
 1229 2 l 1,30,31
 1119 -20 1119 -20 1030 -20 c 0,32,33
 952 -20 952 -20 890 51 c 128,-1,34
 828 122 828 122 745 391 c 0,35,36
 708 514 708 514 673 575.5 c 128,-1,37
 638 637 638 637 607 657.5 c 128,-1,38
 576 678 576 678 535 678 c 2,39,-1
 498 678 l 1,40,-1
 372 235 l 2,41,42
 348 154 348 154 348 125 c 0,43,44
 348 87 348 87 379 67 c 128,-1,45
 410 47 410 47 510 47 c 1,46,-1
 498 0 l 1,47,-1
 -49 0 l 1,48,-1
 -37 47 l 1,49,50
 75 47 75 47 111 79 c 128,-1,51
 147 111 147 111 188 254 c 2,52,-1
 424 1063 l 2,53,54
 459 1180 459 1180 459 1239 c 0,55,56
 459 1274 459 1274 432.5 1291.5 c 128,-1,57
 406 1309 406 1309 303 1309 c 1,58,-1
 315 1356 l 1,59,-1
 862 1356 l 1,60,-1
 850 1309 l 1,61,-1
 807 1309 l 2,62,63
 749 1309 749 1309 713.5 1282.5 c 128,-1,64
 678 1256 678 1256 661 1220 c 128,-1,65
 644 1184 644 1184 607 1056 c 2,66,-1
 522 760 l 1,0,-1
EndSplineSet
KernsSLIFO: 373 -51 1 0 363 -88 1 0 361 -51 1 0 358 -78 1 0 349 -51 1 0 341 -27 1 0 332 -164 1 0 331 -27 1 0 329 -96 1 0 326 -96 1 0
EndChar
StartChar: afii10029
Encoding: 1051 1051 323
Width: 1387
Flags: W
Fore
1313 47 m 1,0,-1
 1300 0 l 1,1,-1
 758 0 l 1,2,-1
 770 47 l 1,3,4
 870 47 870 47 913 66.5 c 128,-1,5
 956 86 956 86 956 142 c 0,6,7
 956 161 956 161 952 184 c 2,8,-1
 795 1108 l 1,9,-1
 236 201 l 2,10,11
 205 152 205 152 205 113 c 0,12,13
 205 47 205 47 326 47 c 1,14,-1
 313 0 l 1,15,-1
 -125 0 l 1,16,-1
 -113 47 l 1,17,18
 -32 47 -32 47 27 84.5 c 128,-1,19
 86 122 86 122 139 207 c 2,20,-1
 870 1386 l 1,21,-1
 928 1386 l 1,22,-1
 1143 156 l 2,23,24
 1154 95 1154 95 1192.5 71 c 128,-1,25
 1231 47 1231 47 1313 47 c 1,0,-1
EndSplineSet
EndChar
StartChar: afii10033
Encoding: 1055 1055 327
Width: 1479
Flags: W
Fore
1657 1356 m 1,0,-1
 1645 1309 l 1,1,-1
 1602 1309 l 2,2,3
 1540 1309 1540 1309 1497 1274.5 c 128,-1,4
 1454 1240 1454 1240 1425 1139 c 2,5,-1
 1182 289 l 2,6,7
 1143 149 1143 149 1143 125 c 0,8,9
 1143 87 1143 87 1174 67 c 128,-1,10
 1205 47 1205 47 1305 47 c 1,11,-1
 1292 0 l 1,12,-1
 745 0 l 1,13,-1
 758 47 l 1,14,15
 869 47 869 47 905.5 79.5 c 128,-1,16
 942 112 942 112 983 254 c 2,17,-1
 1282 1282 l 1,18,-1
 672 1282 l 1,19,-1
 387 289 l 2,20,21
 348 149 348 149 348 125 c 0,22,23
 348 87 348 87 379 67 c 128,-1,24
 410 47 410 47 510 47 c 1,25,-1
 498 0 l 1,26,-1
 -49 0 l 1,27,-1
 -37 47 l 1,28,29
 75 47 75 47 111 79 c 128,-1,30
 147 111 147 111 188 254 c 2,31,-1
 424 1063 l 2,32,33
 459 1180 459 1180 459 1239 c 0,34,35
 459 1274 459 1274 432.5 1291.5 c 128,-1,36
 406 1309 406 1309 303 1309 c 1,37,-1
 315 1356 l 1,38,-1
 1657 1356 l 1,0,-1
EndSplineSet
EndChar
StartChar: afii10037
Encoding: 1059 1059 331
Width: 1378
Flags: W
Fore
1622 1356 m 1,0,-1
 1608 1309 l 1,1,2
 1531 1309 1531 1309 1462.5 1263 c 128,-1,3
 1394 1217 1394 1217 1319 1108 c 2,4,-1
 727 250 l 2,5,6
 623 99 623 99 525.5 34 c 128,-1,7
 428 -31 428 -31 293 -31 c 0,8,9
 240 -31 240 -31 205 -5 c 128,-1,10
 170 21 170 21 170 66 c 0,11,12
 170 101 170 101 196.5 126.5 c 128,-1,13
 223 152 223 152 264 152 c 0,14,15
 294 152 294 152 342 123 c 0,16,17
 383 98 383 98 406 98 c 0,18,19
 459 98 459 98 513.5 134 c 128,-1,20
 568 170 568 170 651 287 c 1,21,-1
 416 1126 l 2,22,23
 384 1239 384 1239 350 1270.5 c 128,-1,24
 316 1302 316 1302 240 1309 c 1,25,-1
 254 1356 l 1,26,-1
 788 1356 l 1,27,-1
 774 1309 l 1,28,29
 674 1309 674 1309 635 1279 c 128,-1,30
 596 1249 596 1249 596 1190 c 0,31,32
 596 1169 596 1169 610 1115 c 2,33,-1
 784 473 l 1,34,-1
 1165 1030 l 2,35,36
 1220 1109 1220 1109 1253 1169 c 128,-1,37
 1286 1229 1286 1229 1286 1251 c 0,38,39
 1286 1280 1286 1280 1258.5 1294.5 c 128,-1,40
 1231 1309 1231 1309 1176 1309 c 1,41,-1
 1190 1356 l 1,42,-1
 1622 1356 l 1,0,-1
EndSplineSet
KernsSLIFO: 375 -96 1 0 374 -57 1 0 369 -27 1 0 368 -27 1 0 366 -27 1 0 365 -96 1 0 361 -96 1 0 360 -82 1 0 359 -57 1 0 358 -96 1 0 357 -51 1 0 356 -102 1 0 355 -102 1 0 354 -51 1 0 353 -27 1 0 352 -31 1 0 351 -102 1 0 350 -102 1 0 349 -96 1 0 348 -27 1 0 347 -102 1 0 346 -96 1 0 345 -27 1 0 343 -109 1 0 332 -109 1 0 326 -55 1 0 323 -133 1 0 316 -82 1 0 312 -154 1 0 170 51 1 0 169 25 1 0 29 51 1 0 17 -129 1 0 15 -104 1 0
EndChar
StartChar: afii10038
Encoding: 1060 1060 332
Width: 1647
Flags: W
Fore
1120 1174 m 1,0,1
 1371 1155 1371 1155 1506 1052 c 128,-1,2
 1641 949 1641 949 1641 793 c 0,3,4
 1641 579 1641 579 1422 397.5 c 128,-1,5
 1203 216 1203 216 840 197 c 1,6,7
 827 140 827 140 827 125 c 0,8,9
 827 87 827 87 858.5 67 c 128,-1,10
 890 47 890 47 989 47 c 1,11,-1
 977 0 l 1,12,-1
 430 0 l 1,13,-1
 442 47 l 1,14,15
 544 47 544 47 581 72 c 128,-1,16
 618 97 618 97 651 197 c 1,17,18
 405 215 405 215 273 314.5 c 128,-1,19
 141 414 141 414 141 569 c 0,20,21
 141 806 141 806 356 978.5 c 128,-1,22
 571 1151 571 1151 932 1174 c 1,23,24
 938 1207 938 1207 938 1239 c 0,25,26
 938 1274 938 1274 911.5 1291.5 c 128,-1,27
 885 1309 885 1309 782 1309 c 1,28,-1
 795 1356 l 1,29,-1
 1341 1356 l 1,30,-1
 1329 1309 l 1,31,-1
 1286 1309 l 2,32,33
 1167 1309 1167 1309 1120 1174 c 1,0,1
860 268 m 1,34,35
 1145 290 1145 290 1286 447.5 c 128,-1,36
 1427 605 1427 605 1427 817 c 0,37,38
 1427 1071 1427 1071 1100 1104 c 1,39,-1
 860 268 l 1,34,35
915 1104 m 1,40,41
 640 1081 640 1081 497 925 c 128,-1,42
 354 769 354 769 354 555 c 0,43,44
 354 297 354 297 672 268 c 1,45,-1
 915 1104 l 1,40,41
EndSplineSet
KernsSLIFO: 355 -31 1 0 343 -27 1 0 335 -70 1 0 331 -158 1 0 330 -27 1 0 326 25 1 0 324 -12 1 0 323 -27 1 0 316 -96 1 0 312 -102 1 0
EndChar
StartChar: afii10040
Encoding: 1062 1062 334
Width: 1479
Flags: W
Fore
1657 1356 m 1,0,-1
 1645 1309 l 1,1,-1
 1602 1309 l 2,2,3
 1540 1309 1540 1309 1497 1274.5 c 128,-1,4
 1454 1240 1454 1240 1425 1139 c 2,5,-1
 1182 289 l 2,6,7
 1143 149 1143 149 1143 125 c 0,8,9
 1143 87 1143 87 1174 67 c 128,-1,10
 1205 47 1205 47 1305 47 c 1,11,-1
 1202 -315 l 1,12,-1
 1157 -315 l 1,13,14
 1167 -235 1167 -235 1167 -211 c 0,15,16
 1167 0 1167 0 942 0 c 2,17,-1
 -49 0 l 1,18,-1
 -37 47 l 1,19,20
 75 47 75 47 111 79 c 128,-1,21
 147 111 147 111 188 254 c 2,22,-1
 424 1063 l 2,23,24
 459 1180 459 1180 459 1239 c 0,25,26
 459 1274 459 1274 432.5 1291.5 c 128,-1,27
 406 1309 406 1309 303 1309 c 1,28,-1
 315 1356 l 1,29,-1
 862 1356 l 1,30,-1
 850 1309 l 1,31,-1
 807 1309 l 2,32,33
 744 1309 744 1309 701.5 1273 c 128,-1,34
 659 1237 659 1237 631 1139 c 2,35,-1
 326 74 l 1,36,-1
 930 74 l 1,37,-1
 1219 1063 l 2,38,39
 1253 1180 1253 1180 1253 1239 c 0,40,41
 1253 1274 1253 1274 1227 1291.5 c 128,-1,42
 1201 1309 1201 1309 1098 1309 c 1,43,-1
 1110 1356 l 1,44,-1
 1657 1356 l 1,0,-1
EndSplineSet
EndChar
StartChar: afii10041
Encoding: 1063 1063 335
Width: 1411
Flags: W
Fore
1589 1356 m 1,0,-1
 1577 1309 l 1,1,-1
 1534 1309 l 2,2,3
 1473 1309 1473 1309 1430 1274.5 c 128,-1,4
 1387 1240 1387 1240 1358 1139 c 2,5,-1
 1114 289 l 2,6,7
 1075 149 1075 149 1075 125 c 0,8,9
 1075 87 1075 87 1106 67 c 128,-1,10
 1137 47 1137 47 1237 47 c 1,11,-1
 1225 0 l 1,12,-1
 678 0 l 1,13,-1
 690 47 l 1,14,15
 768 47 768 47 803.5 58.5 c 128,-1,16
 839 70 839 70 861.5 108.5 c 128,-1,17
 884 147 884 147 930 304 c 2,18,-1
 1040 684 l 1,19,20
 783 506 783 506 578 506 c 0,21,22
 453 506 453 506 382 565.5 c 128,-1,23
 311 625 311 625 311 735 c 0,24,25
 311 785 311 785 330 848 c 2,26,-1
 408 1118 l 2,27,28
 432 1202 432 1202 432 1231 c 0,29,30
 432 1269 432 1269 401 1289 c 128,-1,31
 370 1309 370 1309 270 1309 c 1,32,-1
 283 1356 l 1,33,-1
 829 1356 l 1,34,-1
 817 1309 l 1,35,36
 738 1309 738 1309 702.5 1297 c 128,-1,37
 667 1285 667 1285 644.5 1245 c 128,-1,38
 622 1205 622 1205 588 1090 c 2,39,-1
 526 877 l 2,40,41
 498 778 498 778 498 739 c 0,42,43
 498 682 498 682 536.5 647 c 128,-1,44
 575 612 575 612 647 612 c 0,45,46
 819 612 819 612 1067 776 c 1,47,48
 1162 1101 1162 1101 1174 1144.5 c 128,-1,49
 1186 1188 1186 1188 1186 1239 c 0,50,51
 1186 1274 1186 1274 1159.5 1291.5 c 128,-1,52
 1133 1309 1133 1309 1030 1309 c 1,53,-1
 1042 1356 l 1,54,-1
 1589 1356 l 1,0,-1
EndSplineSet
EndChar
StartChar: afii10042
Encoding: 1064 1064 336
Width: 2136
Flags: W
Fore
2314 1356 m 1,0,-1
 2302 1309 l 1,1,-1
 2259 1309 l 2,2,3
 2196 1309 2196 1309 2153.5 1273 c 128,-1,4
 2111 1237 2111 1237 2083 1139 c 2,5,-1
 1839 289 l 2,6,7
 1800 149 1800 149 1800 125 c 0,8,9
 1800 87 1800 87 1831 67 c 128,-1,10
 1862 47 1862 47 1962 47 c 1,11,-1
 1950 0 l 1,12,-1
 -49 0 l 1,13,-1
 -37 47 l 1,14,15
 75 47 75 47 111 79 c 128,-1,16
 147 111 147 111 188 254 c 2,17,-1
 424 1063 l 2,18,19
 459 1180 459 1180 459 1239 c 0,20,21
 459 1274 459 1274 432.5 1291.5 c 128,-1,22
 406 1309 406 1309 303 1309 c 1,23,-1
 315 1356 l 1,24,-1
 862 1356 l 1,25,-1
 850 1309 l 1,26,-1
 807 1309 l 2,27,28
 744 1309 744 1309 701.5 1273 c 128,-1,29
 659 1237 659 1237 631 1139 c 2,30,-1
 326 74 l 1,31,-1
 862 74 l 1,32,-1
 1151 1063 l 2,33,34
 1186 1180 1186 1180 1186 1239 c 0,35,36
 1186 1274 1186 1274 1159.5 1291.5 c 128,-1,37
 1133 1309 1133 1309 1030 1309 c 1,38,-1
 1042 1356 l 1,39,-1
 1589 1356 l 1,40,-1
 1577 1309 l 1,41,-1
 1534 1309 l 2,42,43
 1471 1309 1471 1309 1428.5 1273 c 128,-1,44
 1386 1237 1386 1237 1358 1139 c 2,45,-1
 1053 74 l 1,46,-1
 1587 74 l 1,47,-1
 1876 1063 l 2,48,49
 1911 1180 1911 1180 1911 1239 c 0,50,51
 1911 1274 1911 1274 1884.5 1291.5 c 128,-1,52
 1858 1309 1858 1309 1755 1309 c 1,53,-1
 1767 1356 l 1,54,-1
 2314 1356 l 1,0,-1
EndSplineSet
EndChar
StartChar: afii10043
Encoding: 1065 1065 337
Width: 2136
Flags: W
Fore
2314 1356 m 1,0,-1
 2302 1309 l 1,1,-1
 2259 1309 l 2,2,3
 2196 1309 2196 1309 2153.5 1273 c 128,-1,4
 2111 1237 2111 1237 2083 1139 c 2,5,-1
 1839 289 l 2,6,7
 1800 149 1800 149 1800 125 c 0,8,9
 1800 87 1800 87 1831 67 c 128,-1,10
 1862 47 1862 47 1962 47 c 1,11,-1
 1860 -315 l 1,12,-1
 1815 -315 l 1,13,14
 1825 -235 1825 -235 1825 -211 c 0,15,16
 1825 0 1825 0 1599 0 c 2,17,-1
 -49 0 l 1,18,-1
 -37 47 l 1,19,20
 75 47 75 47 111 79 c 128,-1,21
 147 111 147 111 188 254 c 2,22,-1
 424 1063 l 2,23,24
 459 1180 459 1180 459 1239 c 0,25,26
 459 1274 459 1274 432.5 1291.5 c 128,-1,27
 406 1309 406 1309 303 1309 c 1,28,-1
 315 1356 l 1,29,-1
 862 1356 l 1,30,-1
 850 1309 l 1,31,-1
 807 1309 l 2,32,33
 744 1309 744 1309 701.5 1273 c 128,-1,34
 659 1237 659 1237 631 1139 c 2,35,-1
 326 74 l 1,36,-1
 862 74 l 1,37,-1
 1151 1063 l 2,38,39
 1186 1180 1186 1180 1186 1239 c 0,40,41
 1186 1274 1186 1274 1159.5 1291.5 c 128,-1,42
 1133 1309 1133 1309 1030 1309 c 1,43,-1
 1042 1356 l 1,44,-1
 1589 1356 l 1,45,-1
 1577 1309 l 1,46,-1
 1534 1309 l 2,47,48
 1471 1309 1471 1309 1428.5 1273 c 128,-1,49
 1386 1237 1386 1237 1358 1139 c 2,50,-1
 1053 74 l 1,51,-1
 1587 74 l 1,52,-1
 1876 1063 l 2,53,54
 1911 1180 1911 1180 1911 1239 c 0,55,56
 1911 1274 1911 1274 1884.5 1291.5 c 128,-1,57
 1858 1309 1858 1309 1755 1309 c 1,58,-1
 1767 1356 l 1,59,-1
 2314 1356 l 1,0,-1
EndSplineSet
EndChar
StartChar: afii10044
Encoding: 1066 1066 338
Width: 1384
Flags: W
Fore
733 754 m 1,0,-1
 788 754 l 2,1,2
 1032 754 1032 754 1162 660.5 c 128,-1,3
 1292 567 1292 567 1292 430 c 0,4,5
 1292 239 1292 239 1135.5 119.5 c 128,-1,6
 979 0 979 0 698 0 c 2,7,-1
 164 0 l 1,8,-1
 176 47 l 1,9,10
 288 47 288 47 324 79 c 128,-1,11
 360 111 360 111 401 254 c 2,12,-1
 700 1282 l 1,13,-1
 557 1282 l 2,14,15
 325 1282 325 1282 238 1053 c 1,16,-1
 184 1053 l 1,17,-1
 272 1356 l 1,18,-1
 1075 1356 l 1,19,-1
 1063 1309 l 1,20,-1
 1020 1309 l 2,21,22
 953 1309 953 1309 911.5 1270.5 c 128,-1,23
 870 1232 870 1232 845 1144 c 2,24,-1
 733 754 l 1,0,-1
541 84 m 1,25,26
 600 72 600 72 670 72 c 0,27,28
 858 72 858 72 966.5 166.5 c 128,-1,29
 1075 261 1075 261 1075 424 c 0,30,31
 1075 682 1075 682 760 682 c 2,32,-1
 713 682 l 1,33,-1
 541 84 l 1,25,26
EndSplineSet
KernsSLIFO: 343 -59 1 0 183 -248 1 0
EndChar
StartChar: afii10045
Encoding: 1067 1067 339
Width: 1786
Flags: W
Fore
520 754 m 1,0,-1
 580 754 l 2,1,2
 823 754 823 754 953 660.5 c 128,-1,3
 1083 567 1083 567 1083 430 c 0,4,5
 1083 239 1083 239 926.5 119.5 c 128,-1,6
 770 0 770 0 489 0 c 2,7,-1
 -49 0 l 1,8,-1
 -37 47 l 1,9,10
 75 47 75 47 111 79 c 128,-1,11
 147 111 147 111 188 254 c 2,12,-1
 424 1063 l 2,13,14
 459 1180 459 1180 459 1239 c 0,15,16
 459 1274 459 1274 432.5 1291.5 c 128,-1,17
 406 1309 406 1309 303 1309 c 1,18,-1
 315 1356 l 1,19,-1
 862 1356 l 1,20,-1
 850 1309 l 1,21,-1
 807 1309 l 2,22,23
 681 1309 681 1309 642 1174 c 2,24,-1
 520 754 l 1,0,-1
330 88 m 1,25,26
 398 72 398 72 461 72 c 0,27,28
 649 72 649 72 757.5 166.5 c 128,-1,29
 866 261 866 261 866 424 c 0,30,31
 866 682 866 682 551 682 c 2,32,-1
 500 682 l 1,33,-1
 330 88 l 1,25,26
1962 1356 m 1,34,-1
 1950 1309 l 1,35,-1
 1907 1309 l 2,36,37
 1844 1309 1844 1309 1801.5 1273 c 128,-1,38
 1759 1237 1759 1237 1731 1139 c 2,39,-1
 1487 289 l 2,40,41
 1448 149 1448 149 1448 125 c 0,42,43
 1448 87 1448 87 1479 67 c 128,-1,44
 1510 47 1510 47 1610 47 c 1,45,-1
 1597 0 l 1,46,-1
 1051 0 l 1,47,-1
 1063 47 l 1,48,49
 1175 47 1175 47 1211 79 c 128,-1,50
 1247 111 1247 111 1288 254 c 2,51,-1
 1524 1063 l 2,52,53
 1559 1180 1559 1180 1559 1239 c 0,54,55
 1559 1274 1559 1274 1532.5 1291.5 c 128,-1,56
 1506 1309 1506 1309 1403 1309 c 1,57,-1
 1415 1356 l 1,58,-1
 1962 1356 l 1,34,-1
EndSplineSet
EndChar
